<svg xmlns="http://www.w3.org/2000/svg" width="1584" height="396" viewBox="0 0 1584 396" fill="none">
  <defs>
    <radialGradient id="skyGlow" cx="18%" cy="8%" r="65%"><stop offset="0%" stop-color="#FF8A72" stop-opacity=".24"/><stop offset="58%" stop-color="#F85239" stop-opacity=".06"/><stop offset="100%" stop-color="#0A0A0B" stop-opacity="0"/></radialGradient>
    <radialGradient id="pinkGlow" cx="88%" cy="14%" r="66%"><stop offset="0%" stop-color="#F85239" stop-opacity=".18"/><stop offset="58%" stop-color="#CF3433" stop-opacity=".045"/><stop offset="100%" stop-color="#0A0A0B" stop-opacity="0"/></radialGradient>
    <radialGradient id="goldGlow" cx="62%" cy="96%" r="68%"><stop offset="0%" stop-color="#F6C65B" stop-opacity=".12"/><stop offset="58%" stop-color="#F6C65B" stop-opacity=".035"/><stop offset="100%" stop-color="#0A0A0B" stop-opacity="0"/></radialGradient>
    <linearGradient id="tagGrad" x1="0" y1="0" x2="1" y2="0"><stop offset="0%" stop-color="#FF8A72"/><stop offset="52%" stop-color="#F85239"/><stop offset="100%" stop-color="#F6C65B"/></linearGradient>
    <filter id="softBlur" x="-20%" y="-20%" width="140%" height="140%"><feGaussianBlur stdDeviation="24"/></filter>
  </defs>
  
    <rect width="1584" height="396" fill="#050505"/>
    <rect width="1584" height="396" fill="url(#skyGlow)" opacity=".48"/>
    <rect width="1584" height="396" fill="url(#pinkGlow)" opacity=".4"/>
    <rect width="1584" height="396" fill="url(#goldGlow)" opacity=".28"/>
    <g font-family="ui-monospace, SFMono-Regular, Menlo, monospace" font-size="11" text-anchor="middle" dominant-baseline="middle"><text x="168" y="24" fill="rgba(255,255,255,0.028)">\</text><text x="216" y="24" fill="rgba(255,255,255,0.039)">·</text><text x="264" y="24" fill="rgba(255,255,255,0.049)">:</text><text x="312" y="24" fill="rgba(167,212,222,0.153)">*</text><text x="360" y="24" fill="rgba(222,166,188,0.204)">x</text><text x="408" y="24" fill="rgba(222,217,166,0.214)">/</text><text x="456" y="24" fill="rgba(167,212,222,0.181)">+</text><text x="504" y="24" fill="rgba(255,255,255,0.053)">o</text><text x="552" y="24" fill="rgba(255,255,255,0.044)">=</text><text x="600" y="24" fill="rgba(255,255,255,0.033)">\</text><text x="1128" y="24" fill="rgba(255,255,255,0.032)">:</text><text x="1176" y="24" fill="rgba(255,255,255,0.043)">*</text><text x="1224" y="24" fill="rgba(255,255,255,0.052)">x</text><text x="1272" y="24" fill="rgba(222,217,166,0.177)">/</text><text x="1320" y="24" fill="rgba(167,212,222,0.213)">+</text><text x="1368" y="24" fill="rgba(222,166,188,0.207)">o</text><text x="1416" y="24" fill="rgba(222,217,166,0.159)">=</text><text x="1464" y="24" fill="rgba(255,255,255,0.050)">\</text><text x="1512" y="24" fill="rgba(255,255,255,0.040)">·</text><text x="1560" y="24" fill="rgba(255,255,255,0.029)">:</text><text x="120" y="72" fill="rgba(255,255,255,0.026)">+</text><text x="168" y="72" fill="rgba(255,255,255,0.036)">o</text><text x="216" y="72" fill="rgba(255,255,255,0.046)">=</text><text x="264" y="72" fill="rgba(255,255,255,0.055)">\</text><text x="312" y="72" fill="rgba(222,166,188,0.193)">·</text><text x="360" y="72" fill="rgba(222,217,166,0.216)">:</text><text x="408" y="72" fill="rgba(167,212,222,0.196)">*</text><text x="456" y="72" fill="rgba(255,255,255,0.055)">x</text><text x="504" y="72" fill="rgba(255,255,255,0.047)">/</text><text x="552" y="72" fill="rgba(255,255,255,0.037)">+</text><text x="600" y="72" fill="rgba(255,255,255,0.026)">o</text><text x="1080" y="72" fill="rgba(255,255,255,0.029)">=</text><text x="1128" y="72" fill="rgba(255,255,255,0.040)">\</text><text x="1176" y="72" fill="rgba(255,255,255,0.050)">·</text><text x="1224" y="72" fill="rgba(222,217,166,0.157)">:</text><text x="1272" y="72" fill="rgba(167,212,222,0.206)">*</text><text x="1320" y="72" fill="rgba(222,166,188,0.213)">x</text><text x="1368" y="72" fill="rgba(222,217,166,0.178)">/</text><text x="1416" y="72" fill="rgba(255,255,255,0.052)">+</text><text x="1464" y="72" fill="rgba(255,255,255,0.043)">o</text><text x="1512" y="72" fill="rgba(255,255,255,0.033)">=</text><text x="120" y="120" fill="rgba(255,255,255,0.032)">x</text><text x="168" y="120" fill="rgba(255,255,255,0.043)">/</text><text x="216" y="120" fill="rgba(255,255,255,0.052)">+</text><text x="264" y="120" fill="rgba(222,166,188,0.177)">o</text><text x="312" y="120" fill="rgba(222,217,166,0.213)">=</text><text x="360" y="120" fill="rgba(167,212,222,0.206)">\</text><text x="408" y="120" fill="rgba(222,166,188,0.158)">·</text><text x="456" y="120" fill="rgba(255,255,255,0.050)">:</text><text x="504" y="120" fill="rgba(255,255,255,0.040)">*</text><text x="552" y="120" fill="rgba(255,255,255,0.029)">x</text><text x="1032" y="120" fill="rgba(255,255,255,0.026)">/</text><text x="1080" y="120" fill="rgba(255,255,255,0.037)">+</text><text x="1128" y="120" fill="rgba(255,255,255,0.047)">o</text><text x="1176" y="120" fill="rgba(255,255,255,0.055)">=</text><text x="1224" y="120" fill="rgba(167,212,222,0.195)">\</text><text x="1272" y="120" fill="rgba(222,166,188,0.216)">·</text><text x="1320" y="120" fill="rgba(222,217,166,0.193)">:</text><text x="1368" y="120" fill="rgba(255,255,255,0.055)">*</text><text x="1416" y="120" fill="rgba(255,255,255,0.046)">x</text><text x="1464" y="120" fill="rgba(255,255,255,0.036)">/</text><text x="1512" y="120" fill="rgba(255,255,255,0.026)">+</text><text x="72" y="168" fill="rgba(255,255,255,0.029)">·</text><text x="120" y="168" fill="rgba(255,255,255,0.040)">:</text><text x="168" y="168" fill="rgba(255,255,255,0.050)">*</text><text x="216" y="168" fill="rgba(222,166,188,0.158)">x</text><text x="264" y="168" fill="rgba(222,217,166,0.206)">/</text><text x="312" y="168" fill="rgba(167,212,222,0.213)">+</text><text x="360" y="168" fill="rgba(222,166,188,0.178)">o</text><text x="408" y="168" fill="rgba(255,255,255,0.052)">=</text><text x="456" y="168" fill="rgba(255,255,255,0.043)">\</text><text x="504" y="168" fill="rgba(255,255,255,0.033)">·</text><text x="1032" y="168" fill="rgba(255,255,255,0.033)">*</text><text x="1080" y="168" fill="rgba(255,255,255,0.044)">x</text><text x="1128" y="168" fill="rgba(255,255,255,0.053)">/</text><text x="1176" y="168" fill="rgba(167,212,222,0.180)">+</text><text x="1224" y="168" fill="rgba(222,166,188,0.214)">o</text><text x="1272" y="168" fill="rgba(222,217,166,0.205)">=</text><text x="1320" y="168" fill="rgba(167,212,222,0.155)">\</text><text x="1368" y="168" fill="rgba(255,255,255,0.049)">·</text><text x="1416" y="168" fill="rgba(255,255,255,0.040)">:</text><text x="1464" y="168" fill="rgba(255,255,255,0.028)">*</text><text x="24" y="216" fill="rgba(255,255,255,0.026)">o</text><text x="72" y="216" fill="rgba(255,255,255,0.037)">=</text><text x="120" y="216" fill="rgba(255,255,255,0.047)">\</text><text x="168" y="216" fill="rgba(255,255,255,0.055)">·</text><text x="216" y="216" fill="rgba(222,217,166,0.195)">:</text><text x="264" y="216" fill="rgba(167,212,222,0.216)">*</text><text x="312" y="216" fill="rgba(222,166,188,0.193)">x</text><text x="360" y="216" fill="rgba(255,255,255,0.055)">/</text><text x="408" y="216" fill="rgba(255,255,255,0.046)">+</text><text x="456" y="216" fill="rgba(255,255,255,0.036)">o</text><text x="504" y="216" fill="rgba(255,255,255,0.026)">=</text><text x="984" y="216" fill="rgba(255,255,255,0.029)">\</text><text x="1032" y="216" fill="rgba(255,255,255,0.041)">·</text><text x="1080" y="216" fill="rgba(255,255,255,0.050)">:</text><text x="1128" y="216" fill="rgba(167,212,222,0.161)">*</text><text x="1176" y="216" fill="rgba(222,166,188,0.208)">x</text><text x="1224" y="216" fill="rgba(222,217,166,0.212)">/</text><text x="1272" y="216" fill="rgba(167,212,222,0.175)">+</text><text x="1320" y="216" fill="rgba(255,255,255,0.052)">o</text><text x="1368" y="216" fill="rgba(255,255,255,0.043)">=</text><text x="1416" y="216" fill="rgba(255,255,255,0.032)">\</text><text x="24" y="264" fill="rgba(255,255,255,0.033)">/</text><text x="72" y="264" fill="rgba(255,255,255,0.044)">+</text><text x="120" y="264" fill="rgba(255,255,255,0.053)">o</text><text x="168" y="264" fill="rgba(222,217,166,0.181)">=</text><text x="216" y="264" fill="rgba(167,212,222,0.214)">\</text><text x="264" y="264" fill="rgba(222,166,188,0.205)">·</text><text x="312" y="264" fill="rgba(222,217,166,0.154)">:</text><text x="360" y="264" fill="rgba(255,255,255,0.049)">*</text><text x="408" y="264" fill="rgba(255,255,255,0.039)">x</text><text x="456" y="264" fill="rgba(255,255,255,0.028)">/</text><text x="936" y="264" fill="rgba(255,255,255,0.026)">+</text><text x="984" y="264" fill="rgba(255,255,255,0.037)">o</text><text x="1032" y="264" fill="rgba(255,255,255,0.047)">=</text><text x="1080" y="264" fill="rgba(255,255,255,0.055)">\</text><text x="1128" y="264" fill="rgba(222,166,188,0.198)">·</text><text x="1176" y="264" fill="rgba(222,217,166,0.215)">:</text><text x="1224" y="264" fill="rgba(167,212,222,0.191)">*</text><text x="1272" y="264" fill="rgba(255,255,255,0.054)">x</text><text x="1320" y="264" fill="rgba(255,255,255,0.046)">/</text><text x="1368" y="264" fill="rgba(255,255,255,0.035)">+</text><text x="1416" y="264" fill="rgba(255,255,255,0.026)">o</text><text x="24" y="312" fill="rgba(255,255,255,0.041)">*</text><text x="72" y="312" fill="rgba(255,255,255,0.050)">x</text><text x="120" y="312" fill="rgba(222,217,166,0.162)">/</text><text x="168" y="312" fill="rgba(167,212,222,0.208)">+</text><text x="216" y="312" fill="rgba(222,166,188,0.212)">o</text><text x="264" y="312" fill="rgba(222,217,166,0.174)">=</text><text x="312" y="312" fill="rgba(255,255,255,0.052)">\</text><text x="360" y="312" fill="rgba(255,255,255,0.043)">·</text><text x="408" y="312" fill="rgba(255,255,255,0.032)">:</text><text x="936" y="312" fill="rgba(255,255,255,0.034)">x</text><text x="984" y="312" fill="rgba(255,255,255,0.044)">/</text><text x="1032" y="312" fill="rgba(255,255,255,0.053)">+</text><text x="1080" y="312" fill="rgba(222,166,188,0.183)">o</text><text x="1128" y="312" fill="rgba(222,217,166,0.214)">=</text><text x="1176" y="312" fill="rgba(167,212,222,0.203)">\</text><text x="1224" y="312" fill="rgba(222,166,188,0.150)">·</text><text x="1272" y="312" fill="rgba(255,255,255,0.049)">:</text><text x="1320" y="312" fill="rgba(255,255,255,0.039)">*</text><text x="1368" y="312" fill="rgba(255,255,255,0.028)">x</text><text x="24" y="360" fill="rgba(255,255,255,0.047)">·</text><text x="72" y="360" fill="rgba(255,255,255,0.055)">:</text><text x="120" y="360" fill="rgba(167,212,222,0.198)">*</text><text x="168" y="360" fill="rgba(222,166,188,0.215)">x</text><text x="216" y="360" fill="rgba(222,217,166,0.190)">/</text><text x="264" y="360" fill="rgba(255,255,255,0.054)">+</text><text x="312" y="360" fill="rgba(255,255,255,0.046)">o</text><text x="360" y="360" fill="rgba(255,255,255,0.035)">=</text><text x="408" y="360" fill="rgba(255,255,255,0.026)">\</text><text x="888" y="360" fill="rgba(255,255,255,0.030)">·</text><text x="936" y="360" fill="rgba(255,255,255,0.041)">:</text><text x="984" y="360" fill="rgba(255,255,255,0.051)">*</text><text x="1032" y="360" fill="rgba(222,166,188,0.165)">x</text><text x="1080" y="360" fill="rgba(222,217,166,0.209)">/</text><text x="1128" y="360" fill="rgba(167,212,222,0.211)">+</text><text x="1176" y="360" fill="rgba(222,166,188,0.171)">o</text><text x="1224" y="360" fill="rgba(255,255,255,0.051)">=</text><text x="1272" y="360" fill="rgba(255,255,255,0.042)">\</text><text x="1320" y="360" fill="rgba(255,255,255,0.031)">·</text><text x="24" y="408" fill="rgba(255,255,255,0.053)">=</text><text x="72" y="408" fill="rgba(167,212,222,0.184)">\</text><text x="120" y="408" fill="rgba(222,166,188,0.215)">·</text><text x="168" y="408" fill="rgba(222,217,166,0.203)">:</text><text x="216" y="408" fill="rgba(167,212,222,0.149)">*</text><text x="264" y="408" fill="rgba(255,255,255,0.049)">x</text><text x="312" y="408" fill="rgba(255,255,255,0.039)">/</text><text x="360" y="408" fill="rgba(255,255,255,0.027)">+</text><text x="840" y="408" fill="rgba(255,255,255,0.027)">o</text><text x="888" y="408" fill="rgba(255,255,255,0.038)">=</text><text x="936" y="408" fill="rgba(255,255,255,0.048)">\</text><text x="984" y="408" fill="rgba(222,166,188,0.144)">·</text><text x="1032" y="408" fill="rgba(222,217,166,0.200)">:</text><text x="1080" y="408" fill="rgba(167,212,222,0.215)">*</text><text x="1128" y="408" fill="rgba(222,166,188,0.188)">x</text><text x="1176" y="408" fill="rgba(255,255,255,0.054)">/</text><text x="1224" y="408" fill="rgba(255,255,255,0.045)">+</text><text x="1272" y="408" fill="rgba(255,255,255,0.035)">o</text><text x="1320" y="408" fill="rgba(255,255,255,0.026)">=</text><text x="24" y="456" fill="rgba(167,212,222,0.166)">+</text><text x="72" y="456" fill="rgba(222,166,188,0.209)">o</text><text x="120" y="456" fill="rgba(222,217,166,0.211)">=</text><text x="168" y="456" fill="rgba(167,212,222,0.170)">\</text><text x="216" y="456" fill="rgba(255,255,255,0.051)">·</text><text x="264" y="456" fill="rgba(255,255,255,0.042)">:</text><text x="312" y="456" fill="rgba(255,255,255,0.031)">*</text><text x="792" y="456" fill="rgba(255,255,255,0.026)">x</text><text x="840" y="456" fill="rgba(255,255,255,0.034)">/</text><text x="888" y="456" fill="rgba(255,255,255,0.045)">+</text><text x="936" y="456" fill="rgba(255,255,255,0.054)">o</text><text x="984" y="456" fill="rgba(222,217,166,0.187)">=</text><text x="1032" y="456" fill="rgba(167,212,222,0.215)">\</text><text x="1080" y="456" fill="rgba(222,166,188,0.201)">·</text><text x="1128" y="456" fill="rgba(222,217,166,0.146)">:</text><text x="1176" y="456" fill="rgba(255,255,255,0.048)">*</text><text x="1224" y="456" fill="rgba(255,255,255,0.038)">x</text><text x="1272" y="456" fill="rgba(255,255,255,0.027)">/</text></g>
  <circle cx="1235.52" cy="198" r="217.8" fill="rgba(255,255,255,.012)" filter="url(#softBlur)"/>
  <g transform="translate(1274 100) scale(3.0625)" opacity="0.96" shape-rendering="crispEdges">
  <path fill="#F85239" d="M8 20V8h12v4h4v4h16v-4h4V8h12v12h4v28h-4v4h-8v4H16v-4H8v-4H4V20h4Z"/>
  <path fill="#CF3433" d="M12 12h8v4h4v8h-4v-4h-8V12Zm32 4h4v-4h8v8h-8v4h-4v-8ZM24 16h4v8h-4v-8Zm12 0h4v8h-4v-8ZM16 48h32v4h-4v4H20v-4h-4v-4Z"/>
  <path fill="#050505" d="M16 32h8v8h-8v-8Zm24 0h8v8h-8v-8ZM28 40h8v4h-8v-4Zm-4 4h4v4h-8v-4h4Zm12 0h4v4h-8v-4h4ZM4 36h12v4H4v-4Zm0 8h12v4H4v-4Zm44-8h12v4H48v-4Zm0 8h12v4H48v-4Z"/></g>
  
      <text x="114" y="166.51" fill="#F5F5F3" style="font-family:'Recursive','Segoe UI',sans-serif;font-weight:850;letter-spacing:-.03em;font-variation-settings:'CASL' 1" font-size="62">Your dollars already</text>
      <text x="114" y="230.99" fill="url(#tagGrad)" style="font-family:'Recursive','Segoe UI',sans-serif;font-weight:850;letter-spacing:-.03em;font-variation-settings:'CASL' 1" font-size="62">know how to move.</text>
      <text x="114" y="266.69" fill="#F5F5F3" fill-opacity=".62" font-family="'Recursive','Segoe UI',sans-serif" font-weight="600" font-size="21">GatoPago</text>
</svg>