<?xml version="1.0" encoding="UTF-8"?>
<svg xmlns="http://www.w3.org/2000/svg" width="1584" height="396" viewBox="0 0 1584 396" fill="none">
  
    <defs>
      <radialGradient id="skyGlow" cx="18%" cy="8%" r="65%">
        <stop offset="0%" stop-color="#9CE3F4" stop-opacity=".24"/>
        <stop offset="58%" stop-color="#A7D4DE" stop-opacity=".06"/>
        <stop offset="100%" stop-color="#0A0A0B" stop-opacity="0"/>
      </radialGradient>
      <radialGradient id="pinkGlow" cx="88%" cy="14%" r="66%">
        <stop offset="0%" stop-color="#F4A9CF" stop-opacity=".18"/>
        <stop offset="58%" stop-color="#DEA6BC" stop-opacity=".045"/>
        <stop offset="100%" stop-color="#0A0A0B" stop-opacity="0"/>
      </radialGradient>
      <radialGradient id="goldGlow" cx="62%" cy="96%" r="68%">
        <stop offset="0%" stop-color="#EFE08C" stop-opacity=".12"/>
        <stop offset="58%" stop-color="#DED9A6" stop-opacity=".035"/>
        <stop offset="100%" stop-color="#0A0A0B" stop-opacity="0"/>
      </radialGradient>
      <linearGradient id="brandLine" x1="0" y1="0" x2="1" y2="0">
        <stop offset="0%" stop-color="#A7D4DE"/>
        <stop offset="50%" stop-color="#DEA6BC"/>
        <stop offset="100%" stop-color="#DED9A6"/>
      </linearGradient>
      <filter id="logoShadow" x="-60%" y="-60%" width="220%" height="220%">
        <feDropShadow dx="0" dy="22" stdDeviation="26" flood-color="#000000" flood-opacity=".45"/>
        <feDropShadow dx="0" dy="0" stdDeviation="18" flood-color="#A7D4DE" flood-opacity=".16"/>
      </filter>
      <filter id="softBlur" x="-20%" y="-20%" width="140%" height="140%">
        <feGaussianBlur stdDeviation="24"/>
      </filter>
      <pattern id="glyphs" width="96" height="96" patternUnits="userSpaceOnUse">
        <text x="12" y="24" fill="rgba(255,255,255,.045)" font-size="18" font-family="ui-monospace, SFMono-Regular, Menlo, monospace">+</text>
        <text x="64" y="42" fill="rgba(255,255,255,.036)" font-size="16" font-family="ui-monospace, SFMono-Regular, Menlo, monospace">/</text>
        <text x="34" y="78" fill="rgba(255,255,255,.032)" font-size="17" font-family="ui-monospace, SFMono-Regular, Menlo, monospace">=</text>
      </pattern>
    </defs>
  
  
    <rect width="1584" height="396" fill="#050505"/>
    <rect width="1584" height="396" fill="url(#skyGlow)" opacity=".95"/>
    <rect width="1584" height="396" fill="url(#pinkGlow)" opacity=".9"/>
    <rect width="1584" height="396" fill="url(#goldGlow)" opacity=".75"/>
    <g opacity="0.9" font-family="ui-monospace, SFMono-Regular, Menlo, monospace" font-size="11" text-anchor="middle" dominant-baseline="middle"><text x="168" y="24" fill="rgba(255,255,255,0.028)">\</text><text x="216" y="24" fill="rgba(255,255,255,0.039)">·</text><text x="264" y="24" fill="rgba(255,255,255,0.049)">:</text><text x="312" y="24" fill="rgba(167,212,222,0.153)">*</text><text x="360" y="24" fill="rgba(222,166,188,0.204)">x</text><text x="408" y="24" fill="rgba(222,217,166,0.214)">/</text><text x="456" y="24" fill="rgba(167,212,222,0.181)">+</text><text x="504" y="24" fill="rgba(255,255,255,0.053)">o</text><text x="552" y="24" fill="rgba(255,255,255,0.044)">=</text><text x="600" y="24" fill="rgba(255,255,255,0.033)">\</text><text x="1128" y="24" fill="rgba(255,255,255,0.032)">:</text><text x="1176" y="24" fill="rgba(255,255,255,0.043)">*</text><text x="1224" y="24" fill="rgba(255,255,255,0.052)">x</text><text x="1272" y="24" fill="rgba(222,217,166,0.177)">/</text><text x="1320" y="24" fill="rgba(167,212,222,0.213)">+</text><text x="1368" y="24" fill="rgba(222,166,188,0.207)">o</text><text x="1416" y="24" fill="rgba(222,217,166,0.159)">=</text><text x="1464" y="24" fill="rgba(255,255,255,0.050)">\</text><text x="1512" y="24" fill="rgba(255,255,255,0.040)">·</text><text x="1560" y="24" fill="rgba(255,255,255,0.029)">:</text><text x="120" y="72" fill="rgba(255,255,255,0.026)">+</text><text x="168" y="72" fill="rgba(255,255,255,0.036)">o</text><text x="216" y="72" fill="rgba(255,255,255,0.046)">=</text><text x="264" y="72" fill="rgba(255,255,255,0.055)">\</text><text x="312" y="72" fill="rgba(222,166,188,0.193)">·</text><text x="360" y="72" fill="rgba(222,217,166,0.216)">:</text><text x="408" y="72" fill="rgba(167,212,222,0.196)">*</text><text x="456" y="72" fill="rgba(255,255,255,0.055)">x</text><text x="504" y="72" fill="rgba(255,255,255,0.047)">/</text><text x="552" y="72" fill="rgba(255,255,255,0.037)">+</text><text x="600" y="72" fill="rgba(255,255,255,0.026)">o</text><text x="1080" y="72" fill="rgba(255,255,255,0.029)">=</text><text x="1128" y="72" fill="rgba(255,255,255,0.040)">\</text><text x="1176" y="72" fill="rgba(255,255,255,0.050)">·</text><text x="1224" y="72" fill="rgba(222,217,166,0.157)">:</text><text x="1272" y="72" fill="rgba(167,212,222,0.206)">*</text><text x="1320" y="72" fill="rgba(222,166,188,0.213)">x</text><text x="1368" y="72" fill="rgba(222,217,166,0.178)">/</text><text x="1416" y="72" fill="rgba(255,255,255,0.052)">+</text><text x="1464" y="72" fill="rgba(255,255,255,0.043)">o</text><text x="1512" y="72" fill="rgba(255,255,255,0.033)">=</text><text x="120" y="120" fill="rgba(255,255,255,0.032)">x</text><text x="168" y="120" fill="rgba(255,255,255,0.043)">/</text><text x="216" y="120" fill="rgba(255,255,255,0.052)">+</text><text x="264" y="120" fill="rgba(222,166,188,0.177)">o</text><text x="312" y="120" fill="rgba(222,217,166,0.213)">=</text><text x="360" y="120" fill="rgba(167,212,222,0.206)">\</text><text x="408" y="120" fill="rgba(222,166,188,0.158)">·</text><text x="456" y="120" fill="rgba(255,255,255,0.050)">:</text><text x="504" y="120" fill="rgba(255,255,255,0.040)">*</text><text x="552" y="120" fill="rgba(255,255,255,0.029)">x</text><text x="1032" y="120" fill="rgba(255,255,255,0.026)">/</text><text x="1080" y="120" fill="rgba(255,255,255,0.037)">+</text><text x="1128" y="120" fill="rgba(255,255,255,0.047)">o</text><text x="1176" y="120" fill="rgba(255,255,255,0.055)">=</text><text x="1224" y="120" fill="rgba(167,212,222,0.195)">\</text><text x="1272" y="120" fill="rgba(222,166,188,0.216)">·</text><text x="1320" y="120" fill="rgba(222,217,166,0.193)">:</text><text x="1368" y="120" fill="rgba(255,255,255,0.055)">*</text><text x="1416" y="120" fill="rgba(255,255,255,0.046)">x</text><text x="1464" y="120" fill="rgba(255,255,255,0.036)">/</text><text x="1512" y="120" fill="rgba(255,255,255,0.026)">+</text><text x="72" y="168" fill="rgba(255,255,255,0.029)">·</text><text x="120" y="168" fill="rgba(255,255,255,0.040)">:</text><text x="168" y="168" fill="rgba(255,255,255,0.050)">*</text><text x="216" y="168" fill="rgba(222,166,188,0.158)">x</text><text x="264" y="168" fill="rgba(222,217,166,0.206)">/</text><text x="312" y="168" fill="rgba(167,212,222,0.213)">+</text><text x="360" y="168" fill="rgba(222,166,188,0.178)">o</text><text x="408" y="168" fill="rgba(255,255,255,0.052)">=</text><text x="456" y="168" fill="rgba(255,255,255,0.043)">\</text><text x="504" y="168" fill="rgba(255,255,255,0.033)">·</text><text x="1032" y="168" fill="rgba(255,255,255,0.033)">*</text><text x="1080" y="168" fill="rgba(255,255,255,0.044)">x</text><text x="1128" y="168" fill="rgba(255,255,255,0.053)">/</text><text x="1176" y="168" fill="rgba(167,212,222,0.180)">+</text><text x="1224" y="168" fill="rgba(222,166,188,0.214)">o</text><text x="1272" y="168" fill="rgba(222,217,166,0.205)">=</text><text x="1320" y="168" fill="rgba(167,212,222,0.155)">\</text><text x="1368" y="168" fill="rgba(255,255,255,0.049)">·</text><text x="1416" y="168" fill="rgba(255,255,255,0.040)">:</text><text x="1464" y="168" fill="rgba(255,255,255,0.028)">*</text><text x="24" y="216" fill="rgba(255,255,255,0.026)">o</text><text x="72" y="216" fill="rgba(255,255,255,0.037)">=</text><text x="120" y="216" fill="rgba(255,255,255,0.047)">\</text><text x="168" y="216" fill="rgba(255,255,255,0.055)">·</text><text x="216" y="216" fill="rgba(222,217,166,0.195)">:</text><text x="264" y="216" fill="rgba(167,212,222,0.216)">*</text><text x="312" y="216" fill="rgba(222,166,188,0.193)">x</text><text x="360" y="216" fill="rgba(255,255,255,0.055)">/</text><text x="408" y="216" fill="rgba(255,255,255,0.046)">+</text><text x="456" y="216" fill="rgba(255,255,255,0.036)">o</text><text x="504" y="216" fill="rgba(255,255,255,0.026)">=</text><text x="984" y="216" fill="rgba(255,255,255,0.029)">\</text><text x="1032" y="216" fill="rgba(255,255,255,0.041)">·</text><text x="1080" y="216" fill="rgba(255,255,255,0.050)">:</text><text x="1128" y="216" fill="rgba(167,212,222,0.161)">*</text><text x="1176" y="216" fill="rgba(222,166,188,0.208)">x</text><text x="1224" y="216" fill="rgba(222,217,166,0.212)">/</text><text x="1272" y="216" fill="rgba(167,212,222,0.175)">+</text><text x="1320" y="216" fill="rgba(255,255,255,0.052)">o</text><text x="1368" y="216" fill="rgba(255,255,255,0.043)">=</text><text x="1416" y="216" fill="rgba(255,255,255,0.032)">\</text><text x="24" y="264" fill="rgba(255,255,255,0.033)">/</text><text x="72" y="264" fill="rgba(255,255,255,0.044)">+</text><text x="120" y="264" fill="rgba(255,255,255,0.053)">o</text><text x="168" y="264" fill="rgba(222,217,166,0.181)">=</text><text x="216" y="264" fill="rgba(167,212,222,0.214)">\</text><text x="264" y="264" fill="rgba(222,166,188,0.205)">·</text><text x="312" y="264" fill="rgba(222,217,166,0.154)">:</text><text x="360" y="264" fill="rgba(255,255,255,0.049)">*</text><text x="408" y="264" fill="rgba(255,255,255,0.039)">x</text><text x="456" y="264" fill="rgba(255,255,255,0.028)">/</text><text x="936" y="264" fill="rgba(255,255,255,0.026)">+</text><text x="984" y="264" fill="rgba(255,255,255,0.037)">o</text><text x="1032" y="264" fill="rgba(255,255,255,0.047)">=</text><text x="1080" y="264" fill="rgba(255,255,255,0.055)">\</text><text x="1128" y="264" fill="rgba(222,166,188,0.198)">·</text><text x="1176" y="264" fill="rgba(222,217,166,0.215)">:</text><text x="1224" y="264" fill="rgba(167,212,222,0.191)">*</text><text x="1272" y="264" fill="rgba(255,255,255,0.054)">x</text><text x="1320" y="264" fill="rgba(255,255,255,0.046)">/</text><text x="1368" y="264" fill="rgba(255,255,255,0.035)">+</text><text x="1416" y="264" fill="rgba(255,255,255,0.026)">o</text><text x="24" y="312" fill="rgba(255,255,255,0.041)">*</text><text x="72" y="312" fill="rgba(255,255,255,0.050)">x</text><text x="120" y="312" fill="rgba(222,217,166,0.162)">/</text><text x="168" y="312" fill="rgba(167,212,222,0.208)">+</text><text x="216" y="312" fill="rgba(222,166,188,0.212)">o</text><text x="264" y="312" fill="rgba(222,217,166,0.174)">=</text><text x="312" y="312" fill="rgba(255,255,255,0.052)">\</text><text x="360" y="312" fill="rgba(255,255,255,0.043)">·</text><text x="408" y="312" fill="rgba(255,255,255,0.032)">:</text><text x="936" y="312" fill="rgba(255,255,255,0.034)">x</text><text x="984" y="312" fill="rgba(255,255,255,0.044)">/</text><text x="1032" y="312" fill="rgba(255,255,255,0.053)">+</text><text x="1080" y="312" fill="rgba(222,166,188,0.183)">o</text><text x="1128" y="312" fill="rgba(222,217,166,0.214)">=</text><text x="1176" y="312" fill="rgba(167,212,222,0.203)">\</text><text x="1224" y="312" fill="rgba(222,166,188,0.150)">·</text><text x="1272" y="312" fill="rgba(255,255,255,0.049)">:</text><text x="1320" y="312" fill="rgba(255,255,255,0.039)">*</text><text x="1368" y="312" fill="rgba(255,255,255,0.028)">x</text><text x="24" y="360" fill="rgba(255,255,255,0.047)">·</text><text x="72" y="360" fill="rgba(255,255,255,0.055)">:</text><text x="120" y="360" fill="rgba(167,212,222,0.198)">*</text><text x="168" y="360" fill="rgba(222,166,188,0.215)">x</text><text x="216" y="360" fill="rgba(222,217,166,0.190)">/</text><text x="264" y="360" fill="rgba(255,255,255,0.054)">+</text><text x="312" y="360" fill="rgba(255,255,255,0.046)">o</text><text x="360" y="360" fill="rgba(255,255,255,0.035)">=</text><text x="408" y="360" fill="rgba(255,255,255,0.026)">\</text><text x="888" y="360" fill="rgba(255,255,255,0.030)">·</text><text x="936" y="360" fill="rgba(255,255,255,0.041)">:</text><text x="984" y="360" fill="rgba(255,255,255,0.051)">*</text><text x="1032" y="360" fill="rgba(222,166,188,0.165)">x</text><text x="1080" y="360" fill="rgba(222,217,166,0.209)">/</text><text x="1128" y="360" fill="rgba(167,212,222,0.211)">+</text><text x="1176" y="360" fill="rgba(222,166,188,0.171)">o</text><text x="1224" y="360" fill="rgba(255,255,255,0.051)">=</text><text x="1272" y="360" fill="rgba(255,255,255,0.042)">\</text><text x="1320" y="360" fill="rgba(255,255,255,0.031)">·</text><text x="24" y="408" fill="rgba(255,255,255,0.053)">=</text><text x="72" y="408" fill="rgba(167,212,222,0.184)">\</text><text x="120" y="408" fill="rgba(222,166,188,0.215)">·</text><text x="168" y="408" fill="rgba(222,217,166,0.203)">:</text><text x="216" y="408" fill="rgba(167,212,222,0.149)">*</text><text x="264" y="408" fill="rgba(255,255,255,0.049)">x</text><text x="312" y="408" fill="rgba(255,255,255,0.039)">/</text><text x="360" y="408" fill="rgba(255,255,255,0.027)">+</text><text x="840" y="408" fill="rgba(255,255,255,0.027)">o</text><text x="888" y="408" fill="rgba(255,255,255,0.038)">=</text><text x="936" y="408" fill="rgba(255,255,255,0.048)">\</text><text x="984" y="408" fill="rgba(222,166,188,0.144)">·</text><text x="1032" y="408" fill="rgba(222,217,166,0.200)">:</text><text x="1080" y="408" fill="rgba(167,212,222,0.215)">*</text><text x="1128" y="408" fill="rgba(222,166,188,0.188)">x</text><text x="1176" y="408" fill="rgba(255,255,255,0.054)">/</text><text x="1224" y="408" fill="rgba(255,255,255,0.045)">+</text><text x="1272" y="408" fill="rgba(255,255,255,0.035)">o</text><text x="1320" y="408" fill="rgba(255,255,255,0.026)">=</text><text x="24" y="456" fill="rgba(167,212,222,0.166)">+</text><text x="72" y="456" fill="rgba(222,166,188,0.209)">o</text><text x="120" y="456" fill="rgba(222,217,166,0.211)">=</text><text x="168" y="456" fill="rgba(167,212,222,0.170)">\</text><text x="216" y="456" fill="rgba(255,255,255,0.051)">·</text><text x="264" y="456" fill="rgba(255,255,255,0.042)">:</text><text x="312" y="456" fill="rgba(255,255,255,0.031)">*</text><text x="792" y="456" fill="rgba(255,255,255,0.026)">x</text><text x="840" y="456" fill="rgba(255,255,255,0.034)">/</text><text x="888" y="456" fill="rgba(255,255,255,0.045)">+</text><text x="936" y="456" fill="rgba(255,255,255,0.054)">o</text><text x="984" y="456" fill="rgba(222,217,166,0.187)">=</text><text x="1032" y="456" fill="rgba(167,212,222,0.215)">\</text><text x="1080" y="456" fill="rgba(222,166,188,0.201)">·</text><text x="1128" y="456" fill="rgba(222,217,166,0.146)">:</text><text x="1176" y="456" fill="rgba(255,255,255,0.048)">*</text><text x="1224" y="456" fill="rgba(255,255,255,0.038)">x</text><text x="1272" y="456" fill="rgba(255,255,255,0.027)">/</text></g>
    <path d="M -126.72 289.08 C 300.96 229.67999999999998, 649.4399999999999 380.15999999999997, 1092.9599999999998 277.2 S 1647.3600000000001 134.64000000000001, 1774.0800000000002 213.84" fill="none" stroke="#A7D4DE" stroke-width="3.8015999999999996" stroke-opacity=".24"/>
    <path d="M 79.2 95.03999999999999 C 538.5600000000001 39.6, 918.7199999999999 150.48, 1457.28 71.28" fill="none" stroke="#F5F5F3" stroke-width="1.7107199999999998" stroke-opacity=".07"/>
  
  <circle cx="1235.52" cy="205.92000000000002" r="221.76000000000002" fill="rgba(255,255,255,.025)" filter="url(#softBlur)"/>
  <g transform="translate(1262 78.73684210526315) scale(1.2046783625730995)" opacity="0.92" filter="url(#logoShadow)">
  <path d="M83.3377 0.820332L0.328533 58.6046L8.32585 64.2196L85.1075 118.216L162.136 64.6112L170.082 59.0738L87.3243 0.832505C86.0859 0.0162387 84.5791 0.00937285 83.3377 0.820332Z" fill="#A7D4DE"/>
  <path d="M86.8349 125.155C85.7498 125.866 84.4312 125.863 83.3487 125.146L7.21886 72.2561L0.265018 67.4362L0.196435 98.6944L7.15101 103.514L85.0306 157.652L163.105 103.911L170.078 99.095L170.137 67.8895L163.164 72.6739L86.8349 125.155Z" fill="#DEA6BC"/>
  <path d="M86.7497 164.587C85.6645 165.298 84.3459 165.295 83.2635 164.578L7.13366 111.688L0.179813 106.869L0.11123 138.127L7.0658 142.947L84.9454 197.085L163.02 143.344L169.993 138.527L170.052 107.322L163.079 112.106L86.7497 164.587Z" fill="#DED9A6"/>
</g>
  
  
</svg>
