<?xml version="1.0" encoding="UTF-8"?>
<svg xmlns="http://www.w3.org/2000/svg" width="1500" height="500" viewBox="0 0 1500 500" fill="none">
  
    <defs>
      <radialGradient id="skyGlow" cx="18%" cy="8%" r="65%">
        <stop offset="0%" stop-color="#9CE3F4" stop-opacity=".24"/>
        <stop offset="58%" stop-color="#A7D4DE" stop-opacity=".06"/>
        <stop offset="100%" stop-color="#0A0A0B" stop-opacity="0"/>
      </radialGradient>
      <radialGradient id="pinkGlow" cx="88%" cy="14%" r="66%">
        <stop offset="0%" stop-color="#F4A9CF" stop-opacity=".18"/>
        <stop offset="58%" stop-color="#DEA6BC" stop-opacity=".045"/>
        <stop offset="100%" stop-color="#0A0A0B" stop-opacity="0"/>
      </radialGradient>
      <radialGradient id="goldGlow" cx="62%" cy="96%" r="68%">
        <stop offset="0%" stop-color="#EFE08C" stop-opacity=".12"/>
        <stop offset="58%" stop-color="#DED9A6" stop-opacity=".035"/>
        <stop offset="100%" stop-color="#0A0A0B" stop-opacity="0"/>
      </radialGradient>
      <linearGradient id="brandLine" x1="0" y1="0" x2="1" y2="0">
        <stop offset="0%" stop-color="#A7D4DE"/>
        <stop offset="50%" stop-color="#DEA6BC"/>
        <stop offset="100%" stop-color="#DED9A6"/>
      </linearGradient>
      <filter id="logoShadow" x="-60%" y="-60%" width="220%" height="220%">
        <feDropShadow dx="0" dy="22" stdDeviation="26" flood-color="#000000" flood-opacity=".45"/>
        <feDropShadow dx="0" dy="0" stdDeviation="18" flood-color="#A7D4DE" flood-opacity=".16"/>
      </filter>
      <filter id="softBlur" x="-20%" y="-20%" width="140%" height="140%">
        <feGaussianBlur stdDeviation="24"/>
      </filter>
      <pattern id="glyphs" width="96" height="96" patternUnits="userSpaceOnUse">
        <text x="12" y="24" fill="rgba(255,255,255,.045)" font-size="18" font-family="ui-monospace, SFMono-Regular, Menlo, monospace">+</text>
        <text x="64" y="42" fill="rgba(255,255,255,.036)" font-size="16" font-family="ui-monospace, SFMono-Regular, Menlo, monospace">/</text>
        <text x="34" y="78" fill="rgba(255,255,255,.032)" font-size="17" font-family="ui-monospace, SFMono-Regular, Menlo, monospace">=</text>
      </pattern>
    </defs>
  
  
    <rect width="1500" height="500" fill="#050505"/>
    <rect width="1500" height="500" fill="url(#skyGlow)" opacity=".95"/>
    <rect width="1500" height="500" fill="url(#pinkGlow)" opacity=".9"/>
    <rect width="1500" height="500" fill="url(#goldGlow)" opacity=".75"/>
    <g opacity="0.9" font-family="ui-monospace, SFMono-Regular, Menlo, monospace" font-size="13" text-anchor="middle" dominant-baseline="middle"><text x="210" y="30" fill="rgba(255,255,255,0.028)">\</text><text x="270" y="30" fill="rgba(255,255,255,0.039)">·</text><text x="330" y="30" fill="rgba(255,255,255,0.049)">:</text><text x="390" y="30" fill="rgba(167,212,222,0.153)">*</text><text x="450" y="30" fill="rgba(222,166,188,0.204)">x</text><text x="510" y="30" fill="rgba(222,217,166,0.214)">/</text><text x="570" y="30" fill="rgba(167,212,222,0.181)">+</text><text x="630" y="30" fill="rgba(255,255,255,0.053)">o</text><text x="690" y="30" fill="rgba(255,255,255,0.044)">=</text><text x="750" y="30" fill="rgba(255,255,255,0.033)">\</text><text x="1410" y="30" fill="rgba(255,255,255,0.032)">:</text><text x="1470" y="30" fill="rgba(255,255,255,0.043)">*</text><text x="1530" y="30" fill="rgba(255,255,255,0.052)">x</text><text x="150" y="90" fill="rgba(255,255,255,0.026)">+</text><text x="210" y="90" fill="rgba(255,255,255,0.036)">o</text><text x="270" y="90" fill="rgba(255,255,255,0.046)">=</text><text x="330" y="90" fill="rgba(255,255,255,0.055)">\</text><text x="390" y="90" fill="rgba(222,166,188,0.193)">·</text><text x="450" y="90" fill="rgba(222,217,166,0.216)">:</text><text x="510" y="90" fill="rgba(167,212,222,0.196)">*</text><text x="570" y="90" fill="rgba(255,255,255,0.055)">x</text><text x="630" y="90" fill="rgba(255,255,255,0.047)">/</text><text x="690" y="90" fill="rgba(255,255,255,0.037)">+</text><text x="750" y="90" fill="rgba(255,255,255,0.026)">o</text><text x="1350" y="90" fill="rgba(255,255,255,0.029)">=</text><text x="1410" y="90" fill="rgba(255,255,255,0.040)">\</text><text x="1470" y="90" fill="rgba(255,255,255,0.050)">·</text><text x="1530" y="90" fill="rgba(222,217,166,0.157)">:</text><text x="150" y="150" fill="rgba(255,255,255,0.032)">x</text><text x="210" y="150" fill="rgba(255,255,255,0.043)">/</text><text x="270" y="150" fill="rgba(255,255,255,0.052)">+</text><text x="330" y="150" fill="rgba(222,166,188,0.177)">o</text><text x="390" y="150" fill="rgba(222,217,166,0.213)">=</text><text x="450" y="150" fill="rgba(167,212,222,0.206)">\</text><text x="510" y="150" fill="rgba(222,166,188,0.158)">·</text><text x="570" y="150" fill="rgba(255,255,255,0.050)">:</text><text x="630" y="150" fill="rgba(255,255,255,0.040)">*</text><text x="690" y="150" fill="rgba(255,255,255,0.029)">x</text><text x="1290" y="150" fill="rgba(255,255,255,0.026)">/</text><text x="1350" y="150" fill="rgba(255,255,255,0.037)">+</text><text x="1410" y="150" fill="rgba(255,255,255,0.047)">o</text><text x="1470" y="150" fill="rgba(255,255,255,0.055)">=</text><text x="1530" y="150" fill="rgba(167,212,222,0.195)">\</text><text x="90" y="210" fill="rgba(255,255,255,0.029)">·</text><text x="150" y="210" fill="rgba(255,255,255,0.040)">:</text><text x="210" y="210" fill="rgba(255,255,255,0.050)">*</text><text x="270" y="210" fill="rgba(222,166,188,0.158)">x</text><text x="330" y="210" fill="rgba(222,217,166,0.206)">/</text><text x="390" y="210" fill="rgba(167,212,222,0.213)">+</text><text x="450" y="210" fill="rgba(222,166,188,0.178)">o</text><text x="510" y="210" fill="rgba(255,255,255,0.052)">=</text><text x="570" y="210" fill="rgba(255,255,255,0.043)">\</text><text x="630" y="210" fill="rgba(255,255,255,0.033)">·</text><text x="1290" y="210" fill="rgba(255,255,255,0.033)">*</text><text x="1350" y="210" fill="rgba(255,255,255,0.044)">x</text><text x="1410" y="210" fill="rgba(255,255,255,0.053)">/</text><text x="1470" y="210" fill="rgba(167,212,222,0.180)">+</text><text x="1530" y="210" fill="rgba(222,166,188,0.214)">o</text><text x="30" y="270" fill="rgba(255,255,255,0.026)">o</text><text x="90" y="270" fill="rgba(255,255,255,0.037)">=</text><text x="150" y="270" fill="rgba(255,255,255,0.047)">\</text><text x="210" y="270" fill="rgba(255,255,255,0.055)">·</text><text x="270" y="270" fill="rgba(222,217,166,0.195)">:</text><text x="330" y="270" fill="rgba(167,212,222,0.216)">*</text><text x="390" y="270" fill="rgba(222,166,188,0.193)">x</text><text x="450" y="270" fill="rgba(255,255,255,0.055)">/</text><text x="510" y="270" fill="rgba(255,255,255,0.046)">+</text><text x="570" y="270" fill="rgba(255,255,255,0.036)">o</text><text x="630" y="270" fill="rgba(255,255,255,0.026)">=</text><text x="1230" y="270" fill="rgba(255,255,255,0.029)">\</text><text x="1290" y="270" fill="rgba(255,255,255,0.041)">·</text><text x="1350" y="270" fill="rgba(255,255,255,0.050)">:</text><text x="1410" y="270" fill="rgba(167,212,222,0.161)">*</text><text x="1470" y="270" fill="rgba(222,166,188,0.208)">x</text><text x="1530" y="270" fill="rgba(222,217,166,0.212)">/</text><text x="30" y="330" fill="rgba(255,255,255,0.033)">/</text><text x="90" y="330" fill="rgba(255,255,255,0.044)">+</text><text x="150" y="330" fill="rgba(255,255,255,0.053)">o</text><text x="210" y="330" fill="rgba(222,217,166,0.181)">=</text><text x="270" y="330" fill="rgba(167,212,222,0.214)">\</text><text x="330" y="330" fill="rgba(222,166,188,0.205)">·</text><text x="390" y="330" fill="rgba(222,217,166,0.154)">:</text><text x="450" y="330" fill="rgba(255,255,255,0.049)">*</text><text x="510" y="330" fill="rgba(255,255,255,0.039)">x</text><text x="570" y="330" fill="rgba(255,255,255,0.028)">/</text><text x="1170" y="330" fill="rgba(255,255,255,0.026)">+</text><text x="1230" y="330" fill="rgba(255,255,255,0.037)">o</text><text x="1290" y="330" fill="rgba(255,255,255,0.047)">=</text><text x="1350" y="330" fill="rgba(255,255,255,0.055)">\</text><text x="1410" y="330" fill="rgba(222,166,188,0.198)">·</text><text x="1470" y="330" fill="rgba(222,217,166,0.215)">:</text><text x="1530" y="330" fill="rgba(167,212,222,0.191)">*</text><text x="30" y="390" fill="rgba(255,255,255,0.041)">*</text><text x="90" y="390" fill="rgba(255,255,255,0.050)">x</text><text x="150" y="390" fill="rgba(222,217,166,0.162)">/</text><text x="210" y="390" fill="rgba(167,212,222,0.208)">+</text><text x="270" y="390" fill="rgba(222,166,188,0.212)">o</text><text x="330" y="390" fill="rgba(222,217,166,0.174)">=</text><text x="390" y="390" fill="rgba(255,255,255,0.052)">\</text><text x="450" y="390" fill="rgba(255,255,255,0.043)">·</text><text x="510" y="390" fill="rgba(255,255,255,0.032)">:</text><text x="1170" y="390" fill="rgba(255,255,255,0.034)">x</text><text x="1230" y="390" fill="rgba(255,255,255,0.044)">/</text><text x="1290" y="390" fill="rgba(255,255,255,0.053)">+</text><text x="1350" y="390" fill="rgba(222,166,188,0.183)">o</text><text x="1410" y="390" fill="rgba(222,217,166,0.214)">=</text><text x="1470" y="390" fill="rgba(167,212,222,0.203)">\</text><text x="1530" y="390" fill="rgba(222,166,188,0.150)">·</text><text x="30" y="450" fill="rgba(255,255,255,0.047)">·</text><text x="90" y="450" fill="rgba(255,255,255,0.055)">:</text><text x="150" y="450" fill="rgba(167,212,222,0.198)">*</text><text x="210" y="450" fill="rgba(222,166,188,0.215)">x</text><text x="270" y="450" fill="rgba(222,217,166,0.190)">/</text><text x="330" y="450" fill="rgba(255,255,255,0.054)">+</text><text x="390" y="450" fill="rgba(255,255,255,0.046)">o</text><text x="450" y="450" fill="rgba(255,255,255,0.035)">=</text><text x="510" y="450" fill="rgba(255,255,255,0.026)">\</text><text x="1110" y="450" fill="rgba(255,255,255,0.030)">·</text><text x="1170" y="450" fill="rgba(255,255,255,0.041)">:</text><text x="1230" y="450" fill="rgba(255,255,255,0.051)">*</text><text x="1290" y="450" fill="rgba(222,166,188,0.165)">x</text><text x="1350" y="450" fill="rgba(222,217,166,0.209)">/</text><text x="1410" y="450" fill="rgba(167,212,222,0.211)">+</text><text x="1470" y="450" fill="rgba(222,166,188,0.171)">o</text><text x="1530" y="450" fill="rgba(255,255,255,0.051)">=</text><text x="30" y="510" fill="rgba(255,255,255,0.053)">=</text><text x="90" y="510" fill="rgba(167,212,222,0.184)">\</text><text x="150" y="510" fill="rgba(222,166,188,0.215)">·</text><text x="210" y="510" fill="rgba(222,217,166,0.203)">:</text><text x="270" y="510" fill="rgba(167,212,222,0.149)">*</text><text x="330" y="510" fill="rgba(255,255,255,0.049)">x</text><text x="390" y="510" fill="rgba(255,255,255,0.039)">/</text><text x="450" y="510" fill="rgba(255,255,255,0.027)">+</text><text x="1050" y="510" fill="rgba(255,255,255,0.027)">o</text><text x="1110" y="510" fill="rgba(255,255,255,0.038)">=</text><text x="1170" y="510" fill="rgba(255,255,255,0.048)">\</text><text x="1230" y="510" fill="rgba(222,166,188,0.144)">·</text><text x="1290" y="510" fill="rgba(222,217,166,0.200)">:</text><text x="1350" y="510" fill="rgba(167,212,222,0.215)">*</text><text x="1410" y="510" fill="rgba(222,166,188,0.188)">x</text><text x="1470" y="510" fill="rgba(255,255,255,0.054)">/</text><text x="1530" y="510" fill="rgba(255,255,255,0.045)">+</text><text x="30" y="570" fill="rgba(167,212,222,0.166)">+</text><text x="90" y="570" fill="rgba(222,166,188,0.209)">o</text><text x="150" y="570" fill="rgba(222,217,166,0.211)">=</text><text x="210" y="570" fill="rgba(167,212,222,0.170)">\</text><text x="270" y="570" fill="rgba(255,255,255,0.051)">·</text><text x="330" y="570" fill="rgba(255,255,255,0.042)">:</text><text x="390" y="570" fill="rgba(255,255,255,0.031)">*</text><text x="990" y="570" fill="rgba(255,255,255,0.026)">x</text><text x="1050" y="570" fill="rgba(255,255,255,0.034)">/</text><text x="1110" y="570" fill="rgba(255,255,255,0.045)">+</text><text x="1170" y="570" fill="rgba(255,255,255,0.054)">o</text><text x="1230" y="570" fill="rgba(222,217,166,0.187)">=</text><text x="1290" y="570" fill="rgba(167,212,222,0.215)">\</text><text x="1350" y="570" fill="rgba(222,166,188,0.201)">·</text><text x="1410" y="570" fill="rgba(222,217,166,0.146)">:</text><text x="1470" y="570" fill="rgba(255,255,255,0.048)">*</text><text x="1530" y="570" fill="rgba(255,255,255,0.038)">x</text></g>
    <path d="M -120 365 C 285 290, 615 480, 1035 350 S 1560 170, 1680.0000000000002 270" fill="none" stroke="#A7D4DE" stroke-width="3.5999999999999996" stroke-opacity=".24"/>
    <path d="M 75 120 C 510.00000000000006 50, 869.9999999999999 190, 1380 90" fill="none" stroke="#F5F5F3" stroke-width="1.6199999999999999" stroke-opacity=".07"/>
  
  <circle cx="1170" cy="260" r="280" fill="rgba(255,255,255,.025)" filter="url(#softBlur)"/>
  
  <text x="110" y="250" text-anchor="start" fill="#F5F5F3" font-family="'Bricolage Grotesque', 'Inter', 'Segoe UI', Arial, sans-serif" font-size="85" font-weight="800" letter-spacing="-.03em">Parmelia</text>
  <text x="110" y="309.5" text-anchor="start" fill="#F5F5F3" fill-opacity=".6" font-family="'Inter', 'Segoe UI', Arial, sans-serif" font-size="33" font-weight="650">parmelia.me</text>
</svg>
