<svg xmlns="http://www.w3.org/2000/svg" width="1080" height="1350" viewBox="0 0 1080 1350" role="img" aria-label="DeFi, explicado sin jerga."><rect x="0" y="0" width="1080" height="1350" fill="#EEE4D8" /><rect x="931.98" y="0" width="60" height="12" fill="#F85239" /><rect x="913.98" y="0" width="18" height="12" fill="#9F292E" /><rect x="88.02000000000001" y="143.14000000000001" width="12" height="12" fill="#9F292E" /><g fill="#9F292E" aria-label="DEFI SIN JERGA"><path d="M539 240Q539 184 522.5 139.5Q506 95 474 64Q442 33 397 16.5Q352 0 296 0Q275 0 251 0Q227 0 203 0Q179 0 156.5 0Q134 0 117 0Q100 0 93 0Q88 0 85 3Q82 6 82 11Q82 89 82 167.5Q82 246 82 324Q82 402 82 480.5Q82 559 82 637L218 637L209 616Q209 589 209 562Q209 535 209 508Q209 458 209 408.5Q209 359 209 309Q209 259 209 209.5Q209 160 209 110Q223 110 236.5 110Q250 110 263 110Q276 110 289 110Q334 110 360 124Q386 138 398.5 166.5Q411 195 411 241L411 459Q411 484 407.5 502.5Q404 521 397.5 536Q391 551 381 561Q371 571 358 577.5Q345 584 328 587Q311 590 289 590Q258 590 227.5 590Q197 590 165 590Q133 590 102 590Q71 590 41 590Q38 590 35.5 591.5Q33 593 31.5 595.5Q30 598 30 601Q30 625 30 650.5Q30 676 30 700Q61 700 93 700Q125 700 158.5 700Q192 700 226 700Q260 700 295 700Q352 700 397 683.5Q442 667 473.5 636Q505 605 522 560.5Q539 516 539 461Z" transform="translate(108.42 158.02) scale(0.02400 -0.02400)"/><path d="M30 700L526 700Q531 700 532.5 698.5Q534 697 535.5 695Q537 693 537 689Q537 661 537 639Q537 617 537 588L41 588Q38 588 35.5 589.5Q33 591 31.5 593.5Q30 596 30 599Q30 627 30 649.5Q30 672 30 700ZM162 407L469 407Q473 407 475 405Q477 403 478.5 401Q480 399 480 396Q480 377 480 361Q480 345 480 330Q480 315 480 298L162 298ZM93 0Q90 0 88 0.5Q86 1 84.5 2.5Q83 4 82.5 6Q82 8 82 11Q82 44 82 97.5Q82 151 82 218Q82 285 82 357.5Q82 430 82 501.5Q82 573 82 635L220 635L213 615Q213 594 213 570Q213 546 213 522Q213 474 213 422.5Q213 371 213 318.5Q213 266 213 214Q213 162 213 112L526 112Q531 112 534 109Q537 106 537 101Q537 74 537 50.5Q537 27 537 0Z" transform="translate(123.78 158.02) scale(0.02400 -0.02400)"/><path d="M249 0Q219 0 189.5 0Q160 0 129 0Q126 0 123.5 1.5Q121 3 119.5 5Q118 7 118 11Q118 92 118 169.5Q118 247 118 323.5Q118 400 118 477.5Q118 555 118 635L259 635L249 610Q249 583 249 557Q249 531 249 506Q249 437 249 369Q249 301 249 233.5Q249 166 249 98Q249 72 249 47.5Q249 23 249 0ZM58 700L526 700Q530 700 532 698.5Q534 697 535.5 695Q537 693 537 689Q537 670 537 654.5Q537 639 537 623Q537 607 537 588L70 588Q67 588 64 589.5Q61 591 59.5 593.5Q58 596 58 599Q58 628 58 650Q58 672 58 700ZM190 382L477 382Q482 382 485 379Q488 376 488 371Q488 353 488 335.5Q488 318 488 302.5Q488 287 488 270L190 270Z" transform="translate(139.14 158.02) scale(0.02400 -0.02400)"/><path d="M365 68L232 68L235 105Q235 122 235 143Q235 164 235 181Q235 237 235 293.5Q235 350 235 406Q235 462 235 518.5Q235 575 235 632L369 632L365 595Q365 579 365 559.5Q365 540 365 523Q365 466 365 409Q365 352 365 295Q365 238 365 181.5Q365 125 365 68ZM524 0L86 0Q83 0 81 0.5Q79 1 77.5 2.5Q76 4 76 6Q76 8 76 11Q76 29 76 45Q76 61 76 77.5Q76 94 76 112L513 112Q517 112 519 110.5Q521 109 522.5 107Q524 105 524 101Q524 83 524 66.5Q524 50 524 34Q524 18 524 0ZM76 700L513 700Q518 700 521 697Q524 694 524 689Q524 675 524 663Q524 651 524 638.5Q524 626 524 614Q524 602 524 588L87 588Q81 588 78.5 591Q76 594 76 599Q76 613 76 625Q76 637 76 649.5Q76 662 76 674.5Q76 687 76 700Z" transform="translate(154.02 158.02) scale(0.02400 -0.02400)"/><path d="M321 719Q390 719 440 702.5Q490 686 513 662Q518 658 519 654.5Q520 651 520 645Q520 626 520 602.5Q520 579 520 555.5Q520 532 520 509Q494 509 466.5 509Q439 509 413 509Q408 509 405 512Q402 515 402 520Q402 531 402 542Q402 553 402 565Q402 577 402 590.5Q402 604 402 620L430 582Q406 594 377 600.5Q348 607 314 607Q286 607 264.5 602Q243 597 226.5 586.5Q210 576 202.5 560Q195 544 195 523L195 502Q195 481 201.5 466Q208 451 227 439.5Q246 428 283 417L378 388Q425 375 456.5 358.5Q488 342 506.5 321.5Q525 301 533 274Q541 247 541 213L541 169Q541 111 510.5 68.5Q480 26 422.5 3.5Q365 -19 284 -19Q236 -19 193.5 -12.5Q151 -6 119.5 6.5Q88 19 70 36Q67 39 65.5 42.5Q64 46 64 54Q64 70 64 86Q64 102 64 119Q64 136 64 155L82 155Q127 123 176 108.5Q225 94 292 94Q357 94 388 116Q419 138 419 171L419 204Q419 222 412.5 235Q406 248 387.5 259Q369 270 331 281L236 310Q187 325 155.5 344Q124 363 106 385Q88 407 80.5 432.5Q73 458 73 487L73 532Q73 573 90.5 607Q108 641 140.5 666.5Q173 692 218.5 705.5Q264 719 321 719Z" transform="translate(184.74 158.02) scale(0.02400 -0.02400)"/><path d="M365 68L232 68L235 105Q235 122 235 143Q235 164 235 181Q235 237 235 293.5Q235 350 235 406Q235 462 235 518.5Q235 575 235 632L369 632L365 595Q365 579 365 559.5Q365 540 365 523Q365 466 365 409Q365 352 365 295Q365 238 365 181.5Q365 125 365 68ZM524 0L86 0Q83 0 81 0.5Q79 1 77.5 2.5Q76 4 76 6Q76 8 76 11Q76 29 76 45Q76 61 76 77.5Q76 94 76 112L513 112Q517 112 519 110.5Q521 109 522.5 107Q524 105 524 101Q524 83 524 66.5Q524 50 524 34Q524 18 524 0ZM76 700L513 700Q518 700 521 697Q524 694 524 689Q524 675 524 663Q524 651 524 638.5Q524 626 524 614Q524 602 524 588L87 588Q81 588 78.5 591Q76 594 76 599Q76 613 76 625Q76 637 76 649.5Q76 662 76 674.5Q76 687 76 700Z" transform="translate(200.10 158.02) scale(0.02400 -0.02400)"/><path d="M190 0Q162 0 133.5 0Q105 0 77 0Q74 0 71.5 1.5Q69 3 67.5 5Q66 7 66 11Q66 84 66 156Q66 228 66 300Q66 372 66 445Q66 518 66 589Q66 617 66 644.5Q66 672 66 700Q85 700 112 700Q139 700 166.5 700Q194 700 213 700Q219 700 222.5 698Q226 696 229 689.5Q232 683 239 667Q247 645 258.5 614.5Q270 584 284.5 546.5Q299 509 316.5 465.5Q334 422 352.5 373.5Q371 325 391 272Q411 219 431 164L399 180L463 180L445 167Q435 224 429 270Q423 316 419.5 353.5Q416 391 414 423Q412 455 411 486Q410 517 410 549Q410 588 410 625Q410 662 410 700Q439 700 467 700Q495 700 523 700Q528 700 531 697Q534 694 534 689Q534 618 534 546.5Q534 475 534 403.5Q534 332 534 261Q534 190 534 118Q534 88 534 58.5Q534 29 534 0Q516 0 491 0Q466 0 441.5 0Q417 0 404 0Q394 0 387.5 4.5Q381 9 373 30Q352 82 328 142Q304 202 277.5 267.5Q251 333 224 403Q197 473 170 547L203 529L140 529L156 544Q165 489 170.5 444.5Q176 400 180 363.5Q184 327 186 294Q188 261 189 229Q190 197 190 162Q189 124 189.5 82.5Q190 41 190 0Z" transform="translate(215.46 158.02) scale(0.02400 -0.02400)"/><path d="M249 96Q281 96 304 103Q327 110 342 125Q353 137 360 151.5Q367 166 370 185.5Q373 205 373 229Q373 273 373 319Q373 365 373 413.5Q373 462 373 512.5Q373 563 373 616L392 571L357 609L402 588Q368 588 335 588Q302 588 269 588Q236 588 203 588Q170 588 137 588Q134 588 131.5 589.5Q129 591 127.5 593.5Q126 596 126 599Q126 626 126 649.5Q126 673 126 700Q171 700 217.5 700Q264 700 310 700Q356 700 402 700Q448 700 494 700Q497 700 499 698.5Q501 697 503 695Q505 693 505 689Q505 633 505 576Q505 519 505 463Q505 407 505 351Q505 295 505 237Q505 181 489.5 134Q474 87 443.5 53Q413 19 366.5 -0.5Q320 -20 257 -20Q217 -20 182.5 -14.5Q148 -9 125 -1Q102 7 93 15Q91 17 90 19Q89 21 88.5 23.5Q88 26 88 29Q88 55 88 79Q88 103 88 131L106 131Q131 119 153.5 111Q176 103 200 99.5Q224 96 249 96Z" transform="translate(246.18 158.02) scale(0.02400 -0.02400)"/><path d="M30 700L526 700Q531 700 532.5 698.5Q534 697 535.5 695Q537 693 537 689Q537 661 537 639Q537 617 537 588L41 588Q38 588 35.5 589.5Q33 591 31.5 593.5Q30 596 30 599Q30 627 30 649.5Q30 672 30 700ZM162 407L469 407Q473 407 475 405Q477 403 478.5 401Q480 399 480 396Q480 377 480 361Q480 345 480 330Q480 315 480 298L162 298ZM93 0Q90 0 88 0.5Q86 1 84.5 2.5Q83 4 82.5 6Q82 8 82 11Q82 44 82 97.5Q82 151 82 218Q82 285 82 357.5Q82 430 82 501.5Q82 573 82 635L220 635L213 615Q213 594 213 570Q213 546 213 522Q213 474 213 422.5Q213 371 213 318.5Q213 266 213 214Q213 162 213 112L526 112Q531 112 534 109Q537 106 537 101Q537 74 537 50.5Q537 27 537 0Z" transform="translate(261.54 158.02) scale(0.02400 -0.02400)"/><path d="M389 322Q416 273 439.5 231Q463 189 489 140Q498 124 506.5 118Q515 112 528 112Q533 112 536 112Q539 112 543 112L560 112Q560 84 560 61.5Q560 39 560 11Q560 6 557 3Q554 0 549 0Q542 0 531 0Q520 0 510 0Q478 0 456 6Q434 12 417.5 26.5Q401 41 387 67Q361 119 334.5 170.5Q308 222 281 273ZM30 700Q99 700 169 700Q239 700 308 700Q366 700 408.5 686Q451 672 477.5 645Q504 618 517 581Q530 544 530 497L530 443Q530 398 516 361.5Q502 325 475.5 300Q449 275 411.5 262Q374 249 326 249Q294 249 261.5 249Q229 249 197 249L186 243L186 357Q217 357 248.5 357Q280 357 311 357Q342 357 362 366.5Q382 376 392 395Q402 414 402 442L402 503Q402 524 396.5 539.5Q391 555 381 566Q370 576 353 582Q336 588 311 588Q267 588 221.5 588Q176 588 131 588Q86 588 41 588Q36 588 33 591Q30 594 30 599Q30 626 30 649.5Q30 673 30 700ZM209 0Q179 0 151 0Q123 0 93 0Q88 0 85 3Q82 6 82 11Q82 92 82 169Q82 246 82 322Q82 398 82 475.5Q82 553 82 633L221 633L209 608Q209 571 209 535.5Q209 500 209 465Q209 404 209 345Q209 286 209 225.5Q209 165 209 99Q209 72 209 47Q209 22 209 0Z" transform="translate(276.90 158.02) scale(0.02400 -0.02400)"/><path d="M308 377L555 377Q559 377 561 375.5Q563 374 564.5 372Q566 370 566 366L566 269L320 269Q316 269 314 269.5Q312 270 310.5 271.5Q309 273 308.5 275Q308 277 308 280Q308 304 308 328Q308 352 308 377ZM330 720Q366 720 396 714.5Q426 709 450.5 700Q475 691 493.5 680Q512 669 523 657Q526 653 527 649.5Q528 646 528 641Q528 621 528 596.5Q528 572 528 548Q528 524 528 500Q502 500 475.5 500Q449 500 423 500Q418 500 415 503Q412 506 412 511Q412 526 412 541Q412 556 412 574Q412 592 412 614L438 570Q414 589 387.5 595.5Q361 602 327 602Q295 602 269.5 593.5Q244 585 226 566Q208 547 198 519Q188 491 188 453L188 240Q188 203 197.5 174.5Q207 146 225 128Q242 111 265 103.5Q288 96 316 96Q348 96 368.5 100.5Q389 105 400.5 110Q412 115 411 116Q411 149 411 181.5Q411 214 411 246Q411 278 411 308L532 308L528 286Q528 233 528 171Q528 109 528 51Q528 49 527.5 46.5Q527 44 525 41Q510 26 478.5 12Q447 -2 406.5 -11Q366 -20 319 -20Q254 -20 204.5 -2Q155 16 122.5 50Q90 84 73.5 131.5Q57 179 57 238L57 456Q57 516 75 564Q93 612 127.5 647.5Q162 683 213 701.5Q264 720 330 720Z" transform="translate(292.26 158.02) scale(0.02400 -0.02400)"/><path d="M145 279L328 279Q343 279 357 279Q371 279 385 279L418 288L430 230L444 171L155 171Q152 171 149.5 172.5Q147 174 145.5 176.5Q144 179 144 182ZM149 0Q122 0 92.5 0Q63 0 35 0Q31 0 29 1.5Q27 3 26 6Q25 9 26 13Q33 40 44 83Q55 126 68 179.5Q81 233 96 292.5Q111 352 125.5 412Q140 472 154.5 527.5Q169 583 180 628.5Q191 674 199 703Q251 703 299 703Q347 703 390 703Q394 703 397 701.5Q400 700 401 697.5Q402 695 402 692Q418 632 435 566Q452 500 470 429.5Q488 359 507 284Q526 209 546 129Q554 97 562 65Q570 33 578 0Q548 0 520 0Q492 0 466 0Q461 0 456.5 2Q452 4 449 10.5Q446 17 443 31Q423 112 406 182.5Q389 253 373.5 313.5Q358 374 346 426.5Q334 479 324.5 525.5Q315 572 308 612L336 591L265 591L293 612Q285 572 276 527Q267 482 254 429.5Q241 377 225.5 313.5Q210 250 190.5 172.5Q171 95 149 0Z" transform="translate(307.62 158.02) scale(0.02400 -0.02400)"/></g><g fill="#5F5650" aria-label="01/06"><path d="M301 720Q372 720 424.5 687Q477 654 506.5 592Q536 530 536 445L536 255Q536 169 506 107Q476 45 422.5 12.5Q369 -20 299 -20Q247 -20 203.5 -1Q160 18 128.5 54Q97 90 80.5 140.5Q64 191 64 255L64 445Q64 532 94 593.5Q124 655 177.5 687.5Q231 720 301 720ZM300 604Q264 604 239 588.5Q214 573 200.5 538Q187 503 187 445L187 255Q187 229 189.5 206Q192 183 197.5 166Q203 149 210 138Q224 118 245 107Q266 96 296 96Q332 96 358 112Q384 128 398.5 163Q413 198 413 255L413 448Q413 480 408.5 504.5Q404 529 396.5 546.5Q389 564 378 575Q365 590 345 597Q325 604 300 604ZM434 536L440 421L372 421L401 440Q392 417 381 397.5Q370 378 356 360.5Q342 343 322 324Q294 295 268.5 268.5Q243 242 216.5 216.5Q190 191 160 163L149 284L223 284L197 263Q206 286 217 304.5Q228 323 244 342.5Q260 362 286 388Q324 426 359.5 462Q395 498 434 536Z" transform="translate(916.14 158.02) scale(0.02400 -0.02400)"/><path d="M264 710Q268 710 280.5 710Q293 710 310 710Q327 710 343.5 710Q360 710 371.5 710Q383 710 386 710Q390 710 392 708.5Q394 707 395.5 705Q397 703 397 699Q397 696 397 663Q397 630 397 578Q397 526 397 463Q397 400 397 336.5Q397 273 397 219Q397 165 397 128.5Q397 92 397 85L267 85L273 110Q273 119 273 138.5Q273 158 273 177.5Q273 197 273 206Q273 213 273 236Q273 259 273 293.5Q273 328 273 368Q273 408 273 447.5Q273 487 273 521Q273 555 273 577.5Q273 600 273 605L287 587L239 587L266 606Q251 578 237 558.5Q223 539 207.5 524Q192 509 171 492Q153 477 139.5 466.5Q126 456 118.5 451.5Q111 447 107 447Q105 447 103 448Q101 449 100 451.5Q99 454 99 457L99 584Q120 600 140.5 615.5Q161 631 182 647Q196 658 212 670Q228 682 242.5 693Q257 704 264 710ZM83 117Q85 117 110.5 117Q136 117 175.5 117Q215 117 262.5 117Q310 117 357 117Q404 117 444 117Q484 117 509 117Q534 117 536 117Q541 117 544 114Q547 111 547 106Q547 102 547 87Q547 72 547 53.5Q547 35 547 19.5Q547 4 547 0Q545 0 520 0Q495 0 455.5 0Q416 0 369 0Q322 0 274.5 0Q227 0 187 0Q147 0 121.5 0Q96 0 94 0Q91 0 89.5 1Q88 2 86 3Q85 5 84 7Q83 9 83 11Q83 14 83 24.5Q83 35 83 49.5Q83 64 83 78.5Q83 93 83 103.5Q83 114 83 117Z" transform="translate(931.50 158.02) scale(0.02400 -0.02400)"/><path d="M545 750Q489 606 432.5 461Q376 316 320 171Q264 26 207 -119Q206 -123 204 -125.5Q202 -128 199 -129Q196 -130 193 -130Q162 -130 134 -130Q106 -130 74 -130Q85 -103 96 -75.5Q107 -48 117 -21Q167 106 216 233.5Q265 361 314.5 488.5Q364 616 413 743Q415 747 418 748.5Q421 750 425 750Q457 750 485.5 750Q514 750 545 750Z" transform="translate(946.86 158.02) scale(0.02400 -0.02400)"/><path d="M301 720Q372 720 424.5 687Q477 654 506.5 592Q536 530 536 445L536 255Q536 169 506 107Q476 45 422.5 12.5Q369 -20 299 -20Q247 -20 203.5 -1Q160 18 128.5 54Q97 90 80.5 140.5Q64 191 64 255L64 445Q64 532 94 593.5Q124 655 177.5 687.5Q231 720 301 720ZM300 604Q264 604 239 588.5Q214 573 200.5 538Q187 503 187 445L187 255Q187 229 189.5 206Q192 183 197.5 166Q203 149 210 138Q224 118 245 107Q266 96 296 96Q332 96 358 112Q384 128 398.5 163Q413 198 413 255L413 448Q413 480 408.5 504.5Q404 529 396.5 546.5Q389 564 378 575Q365 590 345 597Q325 604 300 604ZM434 536L440 421L372 421L401 440Q392 417 381 397.5Q370 378 356 360.5Q342 343 322 324Q294 295 268.5 268.5Q243 242 216.5 216.5Q190 191 160 163L149 284L223 284L197 263Q206 286 217 304.5Q228 323 244 342.5Q260 362 286 388Q324 426 359.5 462Q395 498 434 536Z" transform="translate(962.22 158.02) scale(0.02400 -0.02400)"/><path d="M350 720Q403 720 444.5 708.5Q486 697 504 686Q509 684 511 680Q513 676 513 670Q513 667 513 656.5Q513 646 513 632.5Q513 619 513 604.5Q513 590 513 579.5Q513 569 513 566L495 566Q456 585 417.5 594.5Q379 604 333 604Q294 604 267.5 594Q241 584 220 564Q199 543 191 509Q183 475 183 428L183 255Q183 220 187 193.5Q191 167 199 149Q207 131 218 119Q234 103 255.5 96Q277 89 306 89Q364 89 395 120Q426 151 426 206L426 222Q426 250 420 269.5Q414 289 403 300Q390 313 368 321.5Q346 330 312 330Q272 330 236.5 317Q201 304 168 277L161 384L221 384L187 366Q213 402 251 421.5Q289 441 348 441Q408 441 452.5 418Q497 395 522 353Q547 311 547 252L547 191Q547 131 516.5 83Q486 35 432 7.5Q378 -20 307 -20Q227 -20 171 12Q115 44 86 107Q57 170 57 263L57 408Q57 482 74 535.5Q91 589 120.5 624.5Q150 660 188 681Q226 702 267.5 711Q309 720 350 720Z" transform="translate(977.58 158.02) scale(0.02400 -0.02400)"/></g><g transform="translate(0 236)"><g fill="#0B0B0F" aria-label="DeFi,"><path d="M599 401Q599 304 572 227.5Q545 151 498.5 98Q452 45 391 17.5Q330 -10 264 -10Q246 -10 229 -8Q212 -6 195 -1.5Q178 3 162 9Q146 15 132.5 24Q119 33 108 44Q89 63 82.5 75Q76 87 76 109Q76 172 76 234.5Q76 297 76 357Q76 417 76 476Q76 535 76 594L202 594L192 566Q212 552 221 532Q230 512 230 482Q230 439 230 396.5Q230 354 230 311Q230 268 230 225.5Q230 183 230 139Q233 139 235.5 139Q238 139 240.5 138.5Q243 138 246 138Q301 138 347 167.5Q393 197 420 253.5Q447 310 447 392L447 402Q447 438 444 463Q441 488 437 508.5Q433 529 426 546Q406 557 384.5 563Q363 569 339 572.5Q315 576 283 576Q236 576 199 573Q162 570 135 566Q108 562 90.5 559Q73 556 65 556Q50 556 40.5 566Q31 576 26.5 595.5Q22 615 22 646Q22 662 23.5 674.5Q25 687 27 700Q60 705 93.5 709Q127 713 161.5 715.5Q196 718 232 719Q268 720 305 720Q368 720 421 701Q474 682 513.5 644.5Q553 607 576 550Q599 493 599 417Z" transform="translate(88.02 276.82) scale(0.09900 -0.09900)"/><path d="M324 555Q395 555 445 525.5Q495 496 522 445Q549 394 549 327L549 322Q549 282 544 262.5Q539 243 531 237.5Q523 232 514 232L300 232Q268 232 242.5 240.5Q217 249 202 263L181 253L185 316L404 316Q406 323 406.5 331Q407 339 407 344Q407 366 403 387Q399 408 387 424Q375 429 365.5 431Q356 433 336 433Q273 433 234.5 384Q196 335 196 234L196 230Q196 210 198 194Q200 178 203.5 163.5Q207 149 212 137Q235 126 265 121Q295 116 338 116Q371 116 402 120Q433 124 462.5 133.5Q492 143 519 158L526 158Q528 149 528.5 139.5Q529 130 529 121Q529 88 520.5 66Q512 44 495 28Q479 12 454 2.5Q429 -7 399.5 -11.5Q370 -16 337 -16Q274 -16 221.5 4Q169 24 131 60Q93 96 72.5 147Q52 198 52 261L52 264Q52 328 71.5 380.5Q91 433 128 472.5Q165 512 215 533.5Q265 555 324 555Z" transform="translate(147.92 276.82) scale(0.09900 -0.09900)"/><path d="M259 0Q247 -3 236 -4.5Q225 -6 209 -6Q170 -6 145 4.5Q120 15 107.5 39Q95 63 95 99Q95 159 95 219.5Q95 280 95 339.5Q95 399 95 459.5Q95 520 95 580L221 580L212 550Q231 538 239.5 516Q248 494 248 463Q248 401 248 340.5Q248 280 248 218.5Q248 157 248 95Q248 71 250 46.5Q252 22 259 0ZM31 700L451 700Q479 700 493.5 683Q508 666 513.5 644.5Q519 623 519 608Q519 598 518.5 588.5Q518 579 516.5 570.5Q515 562 512 556L77 556Q57 556 46 570Q35 584 30.5 605Q26 626 26 647Q26 660 27.5 673Q29 686 31 700ZM196 347L375 347Q422 347 446 318Q470 289 470 249Q470 243 469.5 234Q469 225 468.5 217Q468 209 466 203L196 203Z" transform="translate(202.86 276.82) scale(0.09900 -0.09900)"/><path d="M127 114Q127 137 127 164Q127 191 127 219.5Q127 248 127 277.5Q127 307 127 336Q127 365 127 392L121 392Q118 389 113.5 386Q109 383 104.5 381.5Q100 380 94.5 379Q89 378 82 378Q58 378 45 400Q32 422 32 466Q32 486 34.5 504.5Q37 523 41 539Q50 541 59.5 542.5Q69 544 79 545Q89 546 99 547Q109 548 119 548.5Q129 549 140 549Q178 549 207.5 539Q237 529 254 508Q271 487 271 454Q271 417 271 376Q271 335 271 294Q271 253 271 213.5Q271 174 271 138Q271 111 272.5 91Q274 71 278.5 50Q283 29 290 0Q277 -3 264 -4.5Q251 -6 235 -6Q174 -6 150.5 19.5Q127 45 127 114ZM95 753Q104 756 115.5 759Q127 762 139 764.5Q151 767 164.5 768Q178 769 191 769Q237 769 266 753.5Q295 738 295 699L295 629Q286 625 276 622Q266 619 255 617Q244 615 233.5 614Q223 613 210 613Q160 613 127.5 636Q95 659 95 698Z" transform="translate(251.87 276.82) scale(0.09900 -0.09900)"/><path d="M132 -208Q110 -208 90.5 -198Q71 -188 55 -170Q73 -136 85.5 -98.5Q98 -61 107 -18.5Q116 24 120.5 72.5Q125 121 126 177Q140 180 150.5 182Q161 184 172 184.5Q183 185 194 185Q223 185 243.5 176.5Q264 168 274.5 149Q285 130 285 99Q284 65 275.5 25Q267 -15 251.5 -55.5Q236 -96 217 -131Q198 -166 176 -191Q169 -200 159 -204Q149 -208 132 -208Z" transform="translate(277.11 276.82) scale(0.09900 -0.09900)"/></g><g fill="#0B0B0F" aria-label="explicado sin jerga."><path d="M324 555Q395 555 445 525.5Q495 496 522 445Q549 394 549 327L549 322Q549 282 544 262.5Q539 243 531 237.5Q523 232 514 232L300 232Q268 232 242.5 240.5Q217 249 202 263L181 253L185 316L404 316Q406 323 406.5 331Q407 339 407 344Q407 366 403 387Q399 408 387 424Q375 429 365.5 431Q356 433 336 433Q273 433 234.5 384Q196 335 196 234L196 230Q196 210 198 194Q200 178 203.5 163.5Q207 149 212 137Q235 126 265 121Q295 116 338 116Q371 116 402 120Q433 124 462.5 133.5Q492 143 519 158L526 158Q528 149 528.5 139.5Q529 130 529 121Q529 88 520.5 66Q512 44 495 28Q479 12 454 2.5Q429 -7 399.5 -11.5Q370 -16 337 -16Q274 -16 221.5 4Q169 24 131 60Q93 96 72.5 147Q52 198 52 261L52 264Q52 328 71.5 380.5Q91 433 128 472.5Q165 512 215 533.5Q265 555 324 555Z" transform="translate(88.02 375.82) scale(0.09900 -0.09900)"/><path d="M36 541Q50 545 67 547Q84 549 103 549Q162 549 194 538.5Q226 528 239 499Q260 453 283.5 407Q307 361 334 319L374 256Q421 189 474 128Q527 67 584 17Q575 10 565 4.5Q555 -1 543.5 -4.5Q532 -8 518.5 -10Q505 -12 490 -12Q447 -12 423.5 0Q400 12 376 38Q361 56 345.5 73.5Q330 91 314.5 109Q299 127 285 144L240 202Q182 282 131 366.5Q80 451 36 541ZM250 259L337 131L291 131Q275 106 258.5 82Q242 58 223.5 36Q205 14 183 -10L170 -10Q95 -10 64.5 5Q34 20 34 50Q34 63 42 72.5Q50 82 69 97Q125 138 169.5 178Q214 218 250 259ZM447 551Q498 551 532 536Q566 521 566 487Q566 481 564.5 473.5Q563 466 560 457Q531 392 486.5 333.5Q442 275 376 211L296 340L326 340Q347 374 364.5 407Q382 440 397 475.5Q412 511 425 551Z" transform="translate(140.99 375.82) scale(0.09900 -0.09900)"/><path d="M48 539Q57 541 63.5 542Q70 543 77.5 544Q85 545 91 545Q123 545 150.5 530Q178 515 194.5 478Q211 441 211 374Q211 300 211 228.5Q211 157 211 86.5Q211 16 211 -54.5Q211 -125 211 -197Q204 -198 197 -199Q190 -200 185 -200Q180 -200 171 -200Q132 -200 109 -178.5Q86 -157 76.5 -122.5Q67 -88 67 -50Q67 22 67 82.5Q67 143 67 199.5Q67 256 67 314.5Q67 373 67 441Q67 467 63 494Q59 521 48 539ZM403 551Q442 551 477.5 522.5Q513 494 535.5 447Q558 400 558 343L558 322Q558 233 540 169.5Q522 106 491 66Q460 26 423 7Q386 -12 347 -12Q317 -12 291.5 -0.5Q266 11 246.5 29Q227 47 217 68L195 68L195 169Q215 149 238.5 137.5Q262 126 296 126Q334 126 359 146Q384 166 396.5 205Q409 244 409 300L409 311Q409 342 407.5 361Q406 380 401 392Q397 395 393 396Q389 397 385 397Q345 397 311 379Q277 361 250 320Q223 279 201 209L201 390L218 390Q234 435 263.5 471Q293 507 328.5 529Q364 551 403 551Z" transform="translate(195.93 375.82) scale(0.09900 -0.09900)"/><path d="M20 750Q31 752 43.5 754Q56 756 68.5 757Q81 758 92 758.5Q103 759 112.5 759.5Q122 760 131 760Q165 760 187 749Q209 738 220.5 717Q232 696 232 665Q232 620 232 575Q232 530 232 486Q232 442 232 397Q232 352 232 307Q232 262 232 216Q232 193 233 175Q234 157 238 144Q243 140 250 137Q257 134 268 134Q283 134 296 139Q309 144 318 155L324 155Q326 146 327 135.5Q328 125 328 109Q328 86 324.5 66.5Q321 47 315 33Q309 19 302 11Q293 3 281.5 -2Q270 -7 257 -8.5Q244 -10 229 -10Q188 -10 161 5Q134 20 117.5 44Q101 68 94.5 97Q88 126 88 154Q88 198 88 243Q88 288 88 333.5Q88 379 88 424Q88 469 88 514.5Q88 560 88 604L82 606Q78 602 72 599Q66 596 59.5 595Q53 594 48 594Q32 594 22 615Q12 636 12 688Q12 705 14.5 721.5Q17 738 20 750Z" transform="translate(250.88 375.82) scale(0.09900 -0.09900)"/><path d="M127 114Q127 137 127 164Q127 191 127 219.5Q127 248 127 277.5Q127 307 127 336Q127 365 127 392L121 392Q118 389 113.5 386Q109 383 104.5 381.5Q100 380 94.5 379Q89 378 82 378Q58 378 45 400Q32 422 32 466Q32 486 34.5 504.5Q37 523 41 539Q50 541 59.5 542.5Q69 544 79 545Q89 546 99 547Q109 548 119 548.5Q129 549 140 549Q178 549 207.5 539Q237 529 254 508Q271 487 271 454Q271 417 271 376Q271 335 271 294Q271 253 271 213.5Q271 174 271 138Q271 111 272.5 91Q274 71 278.5 50Q283 29 290 0Q277 -3 264 -4.5Q251 -6 235 -6Q174 -6 150.5 19.5Q127 45 127 114ZM95 753Q104 756 115.5 759Q127 762 139 764.5Q151 767 164.5 768Q178 769 191 769Q237 769 266 753.5Q295 738 295 699L295 629Q286 625 276 622Q266 619 255 617Q244 615 233.5 614Q223 613 210 613Q160 613 127.5 636Q95 659 95 698Z" transform="translate(278.10 375.82) scale(0.09900 -0.09900)"/><path d="M330 551Q356 551 376 548Q396 545 411 539Q426 533 434 523Q447 512 452.5 496.5Q458 481 458 452Q458 426 454.5 406Q451 386 442 367L436 367Q408 388 383 396Q358 404 320 404Q279 404 251.5 382.5Q224 361 209.5 325Q195 289 195 242L195 231Q195 210 198.5 190Q202 170 209 153Q231 139 256 133.5Q281 128 310 128Q339 128 363.5 132.5Q388 137 410 147.5Q432 158 455 175L461 175Q463 165 464 154.5Q465 144 465 127Q465 90 458 63Q451 36 434 20Q423 10 404.5 2.5Q386 -5 360 -8.5Q334 -12 301 -12Q249 -12 204 2.5Q159 17 124.5 47.5Q90 78 70.5 127Q51 176 51 243L51 258Q51 345 86.5 411Q122 477 184 514Q246 551 330 551Z" transform="translate(308.30 375.82) scale(0.09900 -0.09900)"/><path d="M513 353Q513 333 513 312Q513 291 513 270.5Q513 250 513 229.5Q513 209 513 187Q513 175 513 164Q513 153 513 141Q516 139 522 137.5Q528 136 533 136Q543 136 554 139.5Q565 143 575 152L581 152Q582 145 582.5 140.5Q583 136 583 128Q583 99 573 69.5Q563 40 547 24Q530 7 514.5 0.5Q499 -6 483 -6Q457 -6 434 8.5Q411 23 394.5 47Q378 71 368.5 98.5Q359 126 359 150Q359 170 359 191Q359 212 359 231Q359 252 361.5 276Q364 300 369 329Q374 358 381 392Q362 400 344 404.5Q326 409 306 410Q286 411 262 411Q232 411 206.5 409Q181 407 157 402.5Q133 398 107 391L102 391Q100 400 98.5 412.5Q97 425 97 437Q97 460 103.5 481Q110 502 124 516Q136 527 155.5 534.5Q175 542 209 545.5Q243 549 297 549Q348 549 388.5 531Q429 513 456.5 484.5Q484 456 498.5 422Q513 388 513 353ZM199 158Q199 132 209 123Q219 114 250 114Q270 114 290.5 120.5Q311 127 332.5 141Q354 155 372 178L379 96L364 96Q353 70 328 45.5Q303 21 270.5 5.5Q238 -10 201 -10Q151 -10 116.5 7.5Q82 25 64 60.5Q46 96 46 149L46 156Q46 183 60.5 210.5Q75 238 100 262Q125 286 156.5 300.5Q188 315 223 315Q266 315 303 310.5Q340 306 366.5 297.5Q393 289 406 277Q412 271 417 261.5Q422 252 425.5 239Q429 226 429 207Q401 214 373 217.5Q345 221 317.5 223.5Q290 226 267 226Q249 226 234.5 223.5Q220 221 206 216Q203 201 201 187.5Q199 174 199 159Z" transform="translate(353.34 375.82) scale(0.09900 -0.09900)"/><path d="M253 551Q284 551 309 539.5Q334 528 353.5 510.5Q373 493 383 472L405 472L405 370Q386 392 361.5 402.5Q337 413 304 413Q265 413 240 393.5Q215 374 203 334.5Q191 295 191 239L191 228Q191 200 192 180.5Q193 161 197 146Q202 144 206 143Q210 142 215 142Q256 142 289.5 160Q323 178 350.5 219.5Q378 261 399 331L399 148L382 148Q366 105 336.5 68.5Q307 32 271.5 10Q236 -12 197 -12Q168 -12 140 4.5Q112 21 89.5 49.5Q67 78 54.5 115.5Q42 153 42 196L42 217Q42 306 60 369.5Q78 433 109 473Q140 513 177 532Q214 551 253 551ZM412 756Q444 756 471.5 741Q499 726 516 689Q533 652 533 585Q533 525 533 465.5Q533 406 533 348.5Q533 291 533 233.5Q533 176 533 118Q533 87 536.5 59.5Q540 32 549 1Q542 0 535.5 -1.5Q529 -3 522.5 -4.5Q516 -6 510 -6.5Q504 -7 497 -7Q457 -7 433 15.5Q409 38 399 74.5Q389 111 389 150Q389 224 389 286Q389 348 389 405Q389 462 389 522Q389 582 389 652Q389 678 384.5 705Q380 732 369 750Q375 751 380 752Q385 753 390.5 754Q396 755 401 755.5Q406 756 412 756Z" transform="translate(408.29 375.82) scale(0.09900 -0.09900)"/><path d="M304 551Q354 551 398.5 533Q443 515 477.5 478.5Q512 442 532.5 386.5Q553 331 553 255L553 241Q553 166 520.5 109Q488 52 430 20Q372 -12 295 -12Q244 -12 199.5 3.5Q155 19 121 50Q87 81 67 129Q47 177 47 243L47 256Q47 345 79.5 411Q112 477 170 514Q228 551 304 551ZM322 416Q276 416 246 398.5Q216 381 201 343Q186 305 186 245L186 239Q186 206 190 179Q194 152 201 129Q217 125 233.5 124Q250 123 273 123Q321 123 352 136Q383 149 398.5 178Q414 207 414 253L414 260Q414 304 408.5 340.5Q403 377 393 408Q379 413 362.5 414.5Q346 416 322 416Z" transform="translate(463.23 375.82) scale(0.09900 -0.09900)"/><path d="M298 132Q320 132 336.5 134.5Q353 137 366 143Q370 160 366 171.5Q362 183 348.5 193Q335 203 307 209L235 226Q176 240 141.5 258.5Q107 277 91.5 305Q76 333 76 374Q76 415 94.5 448.5Q113 482 147.5 504.5Q182 527 228.5 539Q275 551 332 551Q363 551 385.5 548Q408 545 424 539.5Q440 534 447 525Q458 515 465 499.5Q472 484 476 463.5Q480 443 480 415Q480 405 478.5 395.5Q477 386 475 377L468 377Q448 387 429.5 393.5Q411 400 388.5 403.5Q366 407 333 407Q294 407 268.5 402Q243 397 231.5 389Q220 381 220 370Q220 360 227 354Q234 348 251.5 343.5Q269 339 303 330L356 318Q410 305 442.5 283.5Q475 262 489.5 232Q504 202 504 162Q504 105 480 65.5Q456 26 408 7Q360 -12 287 -12Q246 -12 212.5 -9.5Q179 -7 154.5 -1.5Q130 4 113 11.5Q96 19 84 30Q70 43 60.5 67.5Q51 92 51 135Q51 152 52.5 164.5Q54 177 56 187L62 187Q89 172 112 161.5Q135 151 160 145Q185 139 218 135.5Q251 132 298 132Z" transform="translate(543.42 375.82) scale(0.09900 -0.09900)"/><path d="M127 114Q127 137 127 164Q127 191 127 219.5Q127 248 127 277.5Q127 307 127 336Q127 365 127 392L121 392Q118 389 113.5 386Q109 383 104.5 381.5Q100 380 94.5 379Q89 378 82 378Q58 378 45 400Q32 422 32 466Q32 486 34.5 504.5Q37 523 41 539Q50 541 59.5 542.5Q69 544 79 545Q89 546 99 547Q109 548 119 548.5Q129 549 140 549Q178 549 207.5 539Q237 529 254 508Q271 487 271 454Q271 417 271 376Q271 335 271 294Q271 253 271 213.5Q271 174 271 138Q271 111 272.5 91Q274 71 278.5 50Q283 29 290 0Q277 -3 264 -4.5Q251 -6 235 -6Q174 -6 150.5 19.5Q127 45 127 114ZM95 753Q104 756 115.5 759Q127 762 139 764.5Q151 767 164.5 768Q178 769 191 769Q237 769 266 753.5Q295 738 295 699L295 629Q286 625 276 622Q266 619 255 617Q244 615 233.5 614Q223 613 210 613Q160 613 127.5 636Q95 659 95 698Z" transform="translate(593.42 375.82) scale(0.09900 -0.09900)"/><path d="M548 0Q534 -3 521 -4.5Q508 -6 492 -6Q452 -6 424 5.5Q396 17 382 46.5Q368 76 368 129Q368 166 371.5 206.5Q375 247 382 288.5Q389 330 398 374Q391 382 382 386.5Q373 391 364 391Q341 391 319 379Q297 367 274.5 339Q252 311 231.5 262.5Q211 214 191 141L191 379L218 379Q236 428 267 467Q298 506 337 528.5Q376 551 418 551Q440 551 460 536.5Q480 522 494.5 497Q509 472 518 443Q527 414 527 385Q527 347 527 309Q527 271 527 233Q527 195 527 157Q527 109 531.5 76Q536 43 548 0ZM212 0Q204 -1 197 -2Q190 -3 183.5 -3Q177 -3 170 -3Q140 -3 120.5 3Q101 9 89 21Q77 33 72.5 49Q68 65 68 85Q68 135 68 181Q68 227 68 271Q68 315 68 356.5Q68 398 68 441Q68 467 63.5 494.5Q59 522 48 539Q56 541 63 542Q70 543 77.5 544Q85 545 91 545Q126 545 153.5 530Q181 515 196.5 478Q212 441 212 374Q212 310 212 243.5Q212 177 212 115Q212 53 212 0Z" transform="translate(623.61 375.82) scale(0.09900 -0.09900)"/><path d="M134 549Q183 549 215 541.5Q247 534 262.5 519Q278 504 278 483Q278 433 278 389Q278 345 278 301Q278 257 278 211Q278 165 278 112.5Q278 60 278 -2Q278 -38 264.5 -73Q251 -108 228.5 -136.5Q206 -165 175 -182.5Q144 -200 109 -200Q93 -200 80 -198Q67 -196 56.5 -190.5Q46 -185 36 -176Q23 -163 14.5 -134Q6 -105 6 -76Q6 -65 7 -56Q8 -47 10 -39L16 -39Q32 -45 44.5 -49Q57 -53 69.5 -54.5Q82 -56 98 -56Q107 -56 114 -54.5Q121 -53 128 -52Q131 -38 132.5 -22.5Q134 -7 134 10.5Q134 28 134 48Q134 100 134 143.5Q134 187 134 229Q134 271 134 315Q134 359 134 411L128 415Q121 411 114 408Q107 405 100 403Q93 401 87 400Q81 399 74 399Q52 399 41.5 422.5Q31 446 31 487Q31 503 32.5 518Q34 533 37 543Q49 545 61.5 546Q74 547 87.5 547.5Q101 548 112.5 548.5Q124 549 134 549ZM107 753Q116 756 127.5 759Q139 762 151 764.5Q163 767 176.5 768Q190 769 203 769Q249 769 278 753.5Q307 738 307 699L307 629Q298 625 288 622Q278 619 267 617Q256 615 245.5 614Q235 613 222 613Q172 613 139.5 636Q107 659 107 698Z" transform="translate(703.80 375.82) scale(0.09900 -0.09900)"/><path d="M324 555Q395 555 445 525.5Q495 496 522 445Q549 394 549 327L549 322Q549 282 544 262.5Q539 243 531 237.5Q523 232 514 232L300 232Q268 232 242.5 240.5Q217 249 202 263L181 253L185 316L404 316Q406 323 406.5 331Q407 339 407 344Q407 366 403 387Q399 408 387 424Q375 429 365.5 431Q356 433 336 433Q273 433 234.5 384Q196 335 196 234L196 230Q196 210 198 194Q200 178 203.5 163.5Q207 149 212 137Q235 126 265 121Q295 116 338 116Q371 116 402 120Q433 124 462.5 133.5Q492 143 519 158L526 158Q528 149 528.5 139.5Q529 130 529 121Q529 88 520.5 66Q512 44 495 28Q479 12 454 2.5Q429 -7 399.5 -11.5Q370 -16 337 -16Q274 -16 221.5 4Q169 24 131 60Q93 96 72.5 147Q52 198 52 261L52 264Q52 328 71.5 380.5Q91 433 128 472.5Q165 512 215 533.5Q265 555 324 555Z" transform="translate(734.00 375.82) scale(0.09900 -0.09900)"/><path d="M209 375L221 375Q236 435 255 475.5Q274 516 297 537.5Q320 559 349 559Q362 559 371.5 555.5Q381 552 389 544Q402 531 409 508.5Q416 486 416 444Q416 434 415.5 423.5Q415 413 414 403Q413 393 410.5 383.5Q408 374 405 366L399 366Q385 374 372.5 378.5Q360 383 342 383Q312 383 289.5 363.5Q267 344 247.5 301.5Q228 259 209 190ZM215 0Q206 -1 199.5 -2Q193 -3 186.5 -3.5Q180 -4 173 -4Q143 -4 123 2Q103 8 91.5 20Q80 32 75 48.5Q70 65 70 85Q70 125 70 162Q70 199 70 235.5Q70 272 70 305.5Q70 339 70 373Q70 407 70 441Q70 467 66 494.5Q62 522 51 539Q59 541 66.5 542Q74 543 81 544Q88 545 95 545Q129 545 156.5 530Q184 515 199.5 478Q215 441 215 374Q215 336 215 296Q215 256 215 217Q215 178 215 140.5Q215 103 215 67.5Q215 32 215 0Z" transform="translate(788.94 375.82) scale(0.09900 -0.09900)"/><path d="M129 64Q129 87 137 105.5Q145 124 161 139Q177 154 201 163L201 179L276 172Q267 158 264.5 143.5Q262 129 262 112Q262 97 271 87.5Q280 78 297 76L432 66Q469 64 498 49Q527 34 544 7.5Q561 -19 561 -57L561 -73Q561 -116 540 -148.5Q519 -181 478.5 -204Q438 -227 379 -238.5Q320 -250 244 -250L233 -250Q164 -250 116.5 -234Q69 -218 44.5 -189Q20 -160 20 -119L20 -106Q20 -77 35 -53.5Q50 -30 78.5 -15Q107 0 145 2L145 25L215 -14Q197 -24 185.5 -35.5Q174 -47 169 -60.5Q164 -74 164 -93L164 -104Q164 -124 172.5 -136Q181 -148 200.5 -152.5Q220 -157 250 -157L265 -157Q307 -157 343 -154.5Q379 -152 408 -145Q415 -136 417 -126Q419 -116 419 -106L419 -95Q419 -81 410.5 -72.5Q402 -64 387 -63L271 -54Q228 -50 196 -34Q164 -18 146.5 7.5Q129 33 129 64ZM328 441L427 436L427 411Q462 393 481 369.5Q500 346 500 313L500 302Q500 257 471.5 225Q443 193 394 176.5Q345 160 283 160Q215 159 161.5 180.5Q108 202 77.5 243.5Q47 285 47 342L47 352Q47 412 78 457Q109 502 169.5 527Q230 552 318 552Q383 552 434 550Q485 548 543 543Q546 536 548 522.5Q550 509 550 495Q550 459 538.5 436.5Q527 414 501 414Q482 414 458 417.5Q434 421 398 423.5Q362 426 308 426Q243 426 211 404Q179 382 179 337L179 328Q179 317 181.5 304.5Q184 292 191 280Q210 271 230.5 267.5Q251 264 283 264Q327 264 351.5 282Q376 300 376 332L376 343Q376 360 372 377Q368 394 358 410Q348 426 328 441Z" transform="translate(828.05 375.82) scale(0.09900 -0.09900)"/><path d="M513 353Q513 333 513 312Q513 291 513 270.5Q513 250 513 229.5Q513 209 513 187Q513 175 513 164Q513 153 513 141Q516 139 522 137.5Q528 136 533 136Q543 136 554 139.5Q565 143 575 152L581 152Q582 145 582.5 140.5Q583 136 583 128Q583 99 573 69.5Q563 40 547 24Q530 7 514.5 0.5Q499 -6 483 -6Q457 -6 434 8.5Q411 23 394.5 47Q378 71 368.5 98.5Q359 126 359 150Q359 170 359 191Q359 212 359 231Q359 252 361.5 276Q364 300 369 329Q374 358 381 392Q362 400 344 404.5Q326 409 306 410Q286 411 262 411Q232 411 206.5 409Q181 407 157 402.5Q133 398 107 391L102 391Q100 400 98.5 412.5Q97 425 97 437Q97 460 103.5 481Q110 502 124 516Q136 527 155.5 534.5Q175 542 209 545.5Q243 549 297 549Q348 549 388.5 531Q429 513 456.5 484.5Q484 456 498.5 422Q513 388 513 353ZM199 158Q199 132 209 123Q219 114 250 114Q270 114 290.5 120.5Q311 127 332.5 141Q354 155 372 178L379 96L364 96Q353 70 328 45.5Q303 21 270.5 5.5Q238 -10 201 -10Q151 -10 116.5 7.5Q82 25 64 60.5Q46 96 46 149L46 156Q46 183 60.5 210.5Q75 238 100 262Q125 286 156.5 300.5Q188 315 223 315Q266 315 303 310.5Q340 306 366.5 297.5Q393 289 406 277Q412 271 417 261.5Q422 252 425.5 239Q429 226 429 207Q401 214 373 217.5Q345 221 317.5 223.5Q290 226 267 226Q249 226 234.5 223.5Q220 221 206 216Q203 201 201 187.5Q199 174 199 159Z" transform="translate(881.01 375.82) scale(0.09900 -0.09900)"/><path d="M261 0Q250 -4 240 -6.5Q230 -9 219 -10Q208 -11 195 -11Q161 -11 137 -3.5Q113 4 101 26Q89 48 89 90L89 182Q102 188 115 192Q128 196 142.5 198Q157 200 173 200Q200 200 220 192Q240 184 250.5 164Q261 144 261 107Z" transform="translate(933.98 375.82) scale(0.09900 -0.09900)"/></g><rect x="88.02000000000001" y="395.62" width="158.4" height="11.879999999999999" fill="#F85239" /><g fill="#5F5650" aria-label="Cuatro preguntas, cuatro respuestas."><path d="M335 -20Q268 -20 216.5 -1.5Q165 17 131 51.5Q97 86 79.5 135.5Q62 185 62 249L62 457Q62 517 79.5 565Q97 613 131 648Q165 683 214.5 701.5Q264 720 328 720Q378 720 417 710.5Q456 701 484 686.5Q512 672 529 655Q531 653 532 650.5Q533 648 533.5 645.5Q534 643 534 640Q534 604 534 561Q534 518 534 479Q512 479 491 479Q470 479 449 479Q444 479 441 482Q438 485 438 490Q438 511 438 532Q438 553 438 577Q438 601 438 629L464 583Q434 606 401.5 615.5Q369 625 327 625Q278 625 242.5 606Q207 587 188 549Q169 511 169 453L169 257Q169 210 179.5 174Q190 138 214 114Q236 92 267 83Q298 74 335 74Q392 74 434.5 89Q477 104 521 136L537 136Q537 126 537 115.5Q537 105 537 95Q537 85 537 75Q537 65 537 55Q537 51 536 47.5Q535 44 532 42Q514 24 485 10Q456 -4 417.5 -12Q379 -20 335 -20Z" transform="translate(88.02 459.97) scale(0.04400 -0.04400)"/><path d="M179 533Q183 533 185 531.5Q187 530 188.5 528Q190 526 190 522Q190 477 190 430.5Q190 384 190 338Q190 292 190 247.5Q190 203 190 160Q190 125 208 107Q226 89 256 89Q279 89 301 95Q323 101 343.5 113Q364 125 385 143.5Q406 162 427 188L427 88L396 88Q375 58 350.5 35.5Q326 13 296.5 1Q267 -11 229 -11Q197 -11 171 -0.5Q145 10 127 30Q109 50 99 77Q89 104 89 137Q89 182 89 226.5Q89 271 89 316Q89 361 89 405Q89 438 89 470Q89 502 89 533Q112 533 134.5 533Q157 533 179 533ZM501 533Q505 533 507 531.5Q509 530 510.5 528Q512 526 512 522Q512 452 512 381.5Q512 311 512 240Q512 169 512 99Q512 78 512 60Q512 42 512 26.5Q512 11 512 0Q497 0 481.5 0Q466 0 451.5 0Q437 0 423 0Q420 0 417.5 1.5Q415 3 413.5 5Q412 7 412 11Q412 98 412 185Q412 272 412 359.5Q412 447 412 533Q428 533 442.5 533Q457 533 472 533Q487 533 501 533Z" transform="translate(113.98 459.97) scale(0.04400 -0.04400)"/><path d="M500 349Q500 322 500 295Q500 268 500 240Q500 212 500 184.5Q500 157 500 131Q500 118 502 110Q504 102 509 97Q514 92 520.5 90Q527 88 537 88Q539 88 541.5 88Q544 88 547 88L563 88Q563 69 563 50Q563 31 563 11Q563 6 560 3Q557 0 552 0Q547 0 534.5 0Q522 0 512 0Q487 0 467 7.5Q447 15 431.5 29.5Q416 44 407.5 65Q399 86 399 114Q399 148 399 184.5Q399 221 399 255Q399 271 399 287Q399 303 399 319Q399 335 399 351Q399 389 388 410.5Q377 432 351 440.5Q325 449 280 449Q251 449 224.5 446Q198 443 172.5 437Q147 431 121 422L105 422Q105 441 105 461Q105 481 105 500Q105 504 106 506Q107 508 108 509Q113 515 139 523Q165 531 202.5 537Q240 543 280 543Q338 543 379.5 532.5Q421 522 447.5 498.5Q474 475 487 438Q500 401 500 349ZM168 144Q168 113 186 96.5Q204 80 239 80Q272 80 301.5 88.5Q331 97 359.5 117Q388 137 418 172L418 85L388 85Q372 55 348 33.5Q324 12 291.5 1Q259 -10 219 -10Q172 -10 138 7.5Q104 25 85.5 57Q67 89 67 133L67 165Q67 198 78 224.5Q89 251 109.5 269.5Q130 288 159 298Q188 308 224 308Q259 308 291.5 308Q324 308 356 308Q388 308 420 308Q428 308 432 296Q436 284 437 268Q438 252 438 239Q402 239 370.5 239Q339 239 307.5 239Q276 239 239 239Q221 239 207.5 234.5Q194 230 184 220Q176 212 172 201Q168 190 168 175Z" transform="translate(139.94 459.97) scale(0.04400 -0.04400)"/><path d="M45 533L424 533Q429 533 432 530Q435 527 435 522Q435 507 435 494Q435 481 435 467.5Q435 454 435 439L56 439Q54 439 52 440Q50 441 48.5 442.5Q47 444 46 446Q45 448 45 450Q45 465 45 478.5Q45 492 45 505Q45 518 45 533ZM435 95Q435 74 435 53Q435 32 435 11Q435 6 432.5 3Q430 0 424 0Q415 0 405 0Q395 0 385.5 0Q376 0 366.5 0Q357 0 347 0Q298 0 260 12Q222 24 195.5 48.5Q169 73 155.5 112Q142 151 142 205Q142 253 142 302Q142 351 142 400Q142 449 142 498Q142 547 142 596Q142 623 142 648.5Q142 674 142 700Q165 700 187.5 700Q210 700 232 700Q235 700 237.5 698.5Q240 697 241.5 694.5Q243 692 243 689Q243 629 243 570Q243 511 243 451.5Q243 392 243 332.5Q243 273 243 214Q243 179 249.5 156Q256 133 271 118Q284 106 304 100.5Q324 95 351 95Q363 95 375 95Q387 95 398.5 95Q410 95 422 95Z" transform="translate(164.58 459.97) scale(0.04400 -0.04400)"/><path d="M178 439L213 439Q231 476 251.5 499Q272 522 296.5 532.5Q321 543 351 543Q368 543 380 540.5Q392 538 399 535Q403 532 404.5 529Q406 526 406 520Q406 509 406 498Q406 487 406 476.5Q406 466 406 455Q406 444 406 433L390 433Q380 436 367.5 438Q355 440 339 440Q307 440 280.5 428Q254 416 229.5 391.5Q205 367 178 327ZM195 0Q180 0 164 0Q148 0 132.5 0Q117 0 101 0Q98 0 96 0.5Q94 1 92.5 2.5Q91 4 90.5 6Q90 8 90 11Q90 35 90 72Q90 109 90 154.5Q90 200 90 248.5Q90 297 90 344.5Q90 392 90 434Q90 466 90 491.5Q90 517 90 533Q107 533 123.5 533Q140 533 155 533Q170 533 184 533Q188 533 190 531.5Q192 530 193.5 528Q195 526 195 522Q195 492 195 446.5Q195 401 195 346Q195 291 195 230.5Q195 170 195 111Q195 52 195 0Z" transform="translate(186.14 459.97) scale(0.04400 -0.04400)"/><path d="M300 544Q352 544 394.5 528Q437 512 467.5 482.5Q498 453 514.5 412.5Q531 372 531 323L531 214Q531 148 501 97Q471 46 419 17.5Q367 -11 300 -11Q248 -11 205.5 5.5Q163 22 132.5 51.5Q102 81 85.5 121Q69 161 69 210L69 319Q69 386 99 436.5Q129 487 181.5 515.5Q234 544 300 544ZM304 452Q261 452 231 434.5Q201 417 185 386Q169 355 169 315L169 217Q169 185 179 159.5Q189 134 206 116Q222 99 245 90Q268 81 296 81Q339 81 369.5 99Q400 117 415.5 148Q431 179 431 218L431 316Q431 350 422 376Q413 402 395 419Q379 435 356 443.5Q333 452 304 452Z" transform="translate(205.06 459.97) scale(0.04400 -0.04400)"/><path d="M90 533Q106 533 120.5 533Q135 533 149.5 533Q164 533 179 533Q183 533 185 531.5Q187 530 188.5 528Q190 526 190 522Q190 432 190 341.5Q190 251 190 161Q190 71 190 -19.5Q190 -110 190 -200Q175 -200 160.5 -200Q146 -200 131.5 -200Q117 -200 101 -200Q98 -200 95.5 -198.5Q93 -197 91.5 -194.5Q90 -192 90 -189Q90 -111 90 -33.5Q90 44 90 122Q90 200 90 277.5Q90 355 90 433Q90 459 90 484Q90 509 90 533ZM363 544Q414 544 453 521Q492 498 513.5 454Q535 410 535 349L535 190Q535 143 522.5 106Q510 69 487 43Q464 17 432 3.5Q400 -10 361 -10Q329 -10 300.5 -0.5Q272 9 248 27Q224 45 205 70L177 70L177 168Q207 126 247.5 106Q288 86 332 86Q364 86 387 100Q410 114 422.5 141Q435 168 435 206L435 333Q435 363 427.5 385Q420 407 406 421Q393 434 374.5 441Q356 448 332 448Q306 448 279 435.5Q252 423 226.5 398.5Q201 374 177 336L177 448L205 448Q223 479 247 500Q271 521 300 532.5Q329 544 363 544Z" transform="translate(243.78 459.97) scale(0.04400 -0.04400)"/><path d="M178 439L213 439Q231 476 251.5 499Q272 522 296.5 532.5Q321 543 351 543Q368 543 380 540.5Q392 538 399 535Q403 532 404.5 529Q406 526 406 520Q406 509 406 498Q406 487 406 476.5Q406 466 406 455Q406 444 406 433L390 433Q380 436 367.5 438Q355 440 339 440Q307 440 280.5 428Q254 416 229.5 391.5Q205 367 178 327ZM195 0Q180 0 164 0Q148 0 132.5 0Q117 0 101 0Q98 0 96 0.5Q94 1 92.5 2.5Q91 4 90.5 6Q90 8 90 11Q90 35 90 72Q90 109 90 154.5Q90 200 90 248.5Q90 297 90 344.5Q90 392 90 434Q90 466 90 491.5Q90 517 90 533Q107 533 123.5 533Q140 533 155 533Q170 533 184 533Q188 533 190 531.5Q192 530 193.5 528Q195 526 195 522Q195 492 195 446.5Q195 401 195 346Q195 291 195 230.5Q195 170 195 111Q195 52 195 0Z" transform="translate(269.74 459.97) scale(0.04400 -0.04400)"/><path d="M302 544Q364 544 413.5 519Q463 494 492 444.5Q521 395 521 320L521 244Q521 241 519.5 238.5Q518 236 516 235Q514 234 510 234L256 234Q240 234 223 234Q206 234 189 234L157 234L146 303L423 303Q423 308 423 312.5Q423 317 423 322Q423 359 414.5 385.5Q406 412 389 429Q374 444 352.5 451Q331 458 302 458Q241 458 208 425.5Q175 393 175 319L175 211Q175 190 179 172.5Q183 155 190 140.5Q197 126 207 116Q227 96 258 87Q289 78 331 78Q367 78 394.5 82Q422 86 447 94.5Q472 103 495 116L512 116Q512 96 512 76.5Q512 57 512 38Q512 36 511 34Q510 32 508 30Q497 19 469.5 9.5Q442 0 405.5 -5.5Q369 -11 330 -11Q267 -11 219 4Q171 19 139 47.5Q107 76 91 117Q75 158 75 211L75 317Q75 374 92 416.5Q109 459 140.5 487.5Q172 516 213.5 530Q255 544 302 544Z" transform="translate(288.22 459.97) scale(0.04400 -0.04400)"/><path d="M110 83Q110 104 117.5 122Q125 140 140 153.5Q155 167 177 176L177 203L233 182Q222 166 216.5 148.5Q211 131 211 110Q211 93 219.5 85.5Q228 78 244 78L387 78Q444 78 480.5 59Q517 40 535.5 6Q554 -28 554 -72L554 -102Q554 -134 542.5 -161Q531 -188 509 -208Q487 -228 455 -239Q423 -250 381 -250L189 -250Q137 -250 102.5 -235Q68 -220 50.5 -192.5Q33 -165 33 -128L33 -110Q33 -80 45 -56Q57 -32 80 -15.5Q103 1 134 6L134 39L201 -4Q175 -8 160 -20.5Q145 -33 138.5 -49.5Q132 -66 132 -85L132 -110Q132 -129 139.5 -143Q147 -157 164 -165Q181 -173 208 -173L378 -173Q398 -173 412.5 -167Q427 -161 436 -152Q446 -142 450 -129.5Q454 -117 454 -102L454 -78Q454 -46 437 -28Q420 -10 378 -10L204 -10Q179 -10 157.5 1.5Q136 13 123 34.5Q110 56 110 83ZM341 460L428 464L428 441Q462 428 477 402.5Q492 377 492 344L492 324Q492 278 467 244.5Q442 211 394 192.5Q346 174 277 174Q207 174 158 194.5Q109 215 83 253Q57 291 57 343L57 366Q57 420 83 459Q109 498 158 519.5Q207 541 277 541Q345 541 413 541Q481 541 549 541Q549 522 549 503Q549 484 549 465Q549 461 546 457.5Q543 454 538 454Q495 454 452.5 454Q410 454 367 454Q324 454 277 454Q220 454 187.5 431Q155 408 155 363L155 342Q155 324 161 310Q167 296 178 285Q193 270 218 262Q243 254 277 254Q334 254 364.5 277.5Q395 301 395 344L395 368Q395 386 390 402Q385 418 373.5 432Q362 446 341 460Z" transform="translate(314.18 459.97) scale(0.04400 -0.04400)"/><path d="M179 533Q183 533 185 531.5Q187 530 188.5 528Q190 526 190 522Q190 477 190 430.5Q190 384 190 338Q190 292 190 247.5Q190 203 190 160Q190 125 208 107Q226 89 256 89Q279 89 301 95Q323 101 343.5 113Q364 125 385 143.5Q406 162 427 188L427 88L396 88Q375 58 350.5 35.5Q326 13 296.5 1Q267 -11 229 -11Q197 -11 171 -0.5Q145 10 127 30Q109 50 99 77Q89 104 89 137Q89 182 89 226.5Q89 271 89 316Q89 361 89 405Q89 438 89 470Q89 502 89 533Q112 533 134.5 533Q157 533 179 533ZM501 533Q505 533 507 531.5Q509 530 510.5 528Q512 526 512 522Q512 452 512 381.5Q512 311 512 240Q512 169 512 99Q512 78 512 60Q512 42 512 26.5Q512 11 512 0Q497 0 481.5 0Q466 0 451.5 0Q437 0 423 0Q420 0 417.5 1.5Q415 3 413.5 5Q412 7 412 11Q412 98 412 185Q412 272 412 359.5Q412 447 412 533Q428 533 442.5 533Q457 533 472 533Q487 533 501 533Z" transform="translate(340.14 459.97) scale(0.04400 -0.04400)"/><path d="M518 0Q494 0 473 0Q452 0 428 0Q425 0 422.5 1.5Q420 3 418.5 5Q417 7 417 11Q417 71 417 131.5Q417 192 417 252.5Q417 313 417 373Q417 411 399 429.5Q381 448 347 448Q327 448 305.5 441.5Q284 435 262 422.5Q240 410 218.5 391Q197 372 175 345L175 445L206 445Q229 475 255 497Q281 519 311.5 531.5Q342 544 377 544Q411 544 437 533.5Q463 523 481 502.5Q499 482 508.5 454.5Q518 427 518 394Q518 346 518 297Q518 248 518 199.5Q518 151 518 102Q518 76 518 50.5Q518 25 518 0ZM190 0Q175 0 160.5 0Q146 0 131.5 0Q117 0 101 0Q98 0 96 0.5Q94 1 92.5 2.5Q91 4 90.5 6Q90 8 90 11Q90 64 90 117Q90 170 90 222.5Q90 275 90 328Q90 381 90 434Q90 466 90 491.5Q90 517 90 533Q107 533 122 533Q137 533 151 533Q165 533 179 533Q183 533 185 531.5Q187 530 188.5 528Q190 526 190 522Q190 436 190 348.5Q190 261 190 174Q190 87 190 0Z" transform="translate(366.10 459.97) scale(0.04400 -0.04400)"/><path d="M45 533L424 533Q429 533 432 530Q435 527 435 522Q435 507 435 494Q435 481 435 467.5Q435 454 435 439L56 439Q54 439 52 440Q50 441 48.5 442.5Q47 444 46 446Q45 448 45 450Q45 465 45 478.5Q45 492 45 505Q45 518 45 533ZM435 95Q435 74 435 53Q435 32 435 11Q435 6 432.5 3Q430 0 424 0Q415 0 405 0Q395 0 385.5 0Q376 0 366.5 0Q357 0 347 0Q298 0 260 12Q222 24 195.5 48.5Q169 73 155.5 112Q142 151 142 205Q142 253 142 302Q142 351 142 400Q142 449 142 498Q142 547 142 596Q142 623 142 648.5Q142 674 142 700Q165 700 187.5 700Q210 700 232 700Q235 700 237.5 698.5Q240 697 241.5 694.5Q243 692 243 689Q243 629 243 570Q243 511 243 451.5Q243 392 243 332.5Q243 273 243 214Q243 179 249.5 156Q256 133 271 118Q284 106 304 100.5Q324 95 351 95Q363 95 375 95Q387 95 398.5 95Q410 95 422 95Z" transform="translate(391.18 459.97) scale(0.04400 -0.04400)"/><path d="M500 349Q500 322 500 295Q500 268 500 240Q500 212 500 184.5Q500 157 500 131Q500 118 502 110Q504 102 509 97Q514 92 520.5 90Q527 88 537 88Q539 88 541.5 88Q544 88 547 88L563 88Q563 69 563 50Q563 31 563 11Q563 6 560 3Q557 0 552 0Q547 0 534.5 0Q522 0 512 0Q487 0 467 7.5Q447 15 431.5 29.5Q416 44 407.5 65Q399 86 399 114Q399 148 399 184.5Q399 221 399 255Q399 271 399 287Q399 303 399 319Q399 335 399 351Q399 389 388 410.5Q377 432 351 440.5Q325 449 280 449Q251 449 224.5 446Q198 443 172.5 437Q147 431 121 422L105 422Q105 441 105 461Q105 481 105 500Q105 504 106 506Q107 508 108 509Q113 515 139 523Q165 531 202.5 537Q240 543 280 543Q338 543 379.5 532.5Q421 522 447.5 498.5Q474 475 487 438Q500 401 500 349ZM168 144Q168 113 186 96.5Q204 80 239 80Q272 80 301.5 88.5Q331 97 359.5 117Q388 137 418 172L418 85L388 85Q372 55 348 33.5Q324 12 291.5 1Q259 -10 219 -10Q172 -10 138 7.5Q104 25 85.5 57Q67 89 67 133L67 165Q67 198 78 224.5Q89 251 109.5 269.5Q130 288 159 298Q188 308 224 308Q259 308 291.5 308Q324 308 356 308Q388 308 420 308Q428 308 432 296Q436 284 437 268Q438 252 438 239Q402 239 370.5 239Q339 239 307.5 239Q276 239 239 239Q221 239 207.5 234.5Q194 230 184 220Q176 212 172 201Q168 190 168 175Z" transform="translate(412.74 459.97) scale(0.04400 -0.04400)"/><path d="M267 87Q337 87 366 107Q395 127 395 156Q395 173 387.5 185.5Q380 198 362.5 207Q345 216 315 222L216 240Q166 250 135 268.5Q104 287 89 314.5Q74 342 74 379Q74 415 89 445Q104 475 133.5 497Q163 519 207 530.5Q251 542 308 542Q344 542 372 539Q400 536 421 530.5Q442 525 456 520Q462 518 464.5 515.5Q467 513 467.5 510Q468 507 468 501Q468 485 468 463Q468 441 468 421L452 421Q428 430 404 435.5Q380 441 354 443.5Q328 446 296 446Q252 446 225 437.5Q198 429 186 414.5Q174 400 174 382Q174 366 180.5 355.5Q187 345 204.5 337.5Q222 330 254 323L352 304Q397 296 428.5 276.5Q460 257 477 227.5Q494 198 494 157Q494 107 467.5 69.5Q441 32 390.5 11.5Q340 -9 268 -9Q232 -9 201 -6Q170 -3 144.5 3Q119 9 99 16.5Q79 24 65 33Q61 36 59.5 38Q58 40 58 46Q58 64 58 88Q58 112 58 134L74 134Q96 121 117 112Q138 103 161 97.5Q184 92 210.5 89.5Q237 87 267 87Z" transform="translate(438.70 459.97) scale(0.04400 -0.04400)"/><path d="M146 -200Q128 -200 104.5 -200Q81 -200 62 -200Q72 -157 81.5 -114.5Q91 -72 100.5 -30Q110 12 119.5 54.5Q129 97 139 140Q160 140 177 140Q194 140 212.5 140Q231 140 253 140Q257 140 259 138.5Q261 137 262 134Q263 131 261 126Q250 92 237 52.5Q224 13 210.5 -28Q197 -69 183.5 -110.5Q170 -152 157 -192Q155 -197 152.5 -198.5Q150 -200 146 -200Z" transform="translate(461.14 459.97) scale(0.04400 -0.04400)"/><path d="M306 544Q344 544 372.5 538.5Q401 533 419 525Q437 517 443 511Q446 508 446.5 506Q447 504 447 500Q447 480 447 459.5Q447 439 447 419L430 419Q407 431 376.5 440Q346 449 306 449Q262 449 231 433Q200 417 184 384.5Q168 352 168 302L168 224Q168 189 177 162Q186 135 205 118Q222 101 247.5 92.5Q273 84 306 84Q334 84 355.5 87.5Q377 91 395.5 97Q414 103 430 112L447 112Q447 91 447 70.5Q447 50 447 29Q447 27 446.5 25Q446 23 444 21Q437 15 419.5 7Q402 -1 374 -6Q346 -11 306 -11Q249 -11 204 4Q159 19 128 49Q97 79 81 122Q65 165 65 220L65 305Q65 381 96 434Q127 487 181.5 515.5Q236 544 306 544Z" transform="translate(488.86 459.97) scale(0.04400 -0.04400)"/><path d="M179 533Q183 533 185 531.5Q187 530 188.5 528Q190 526 190 522Q190 477 190 430.5Q190 384 190 338Q190 292 190 247.5Q190 203 190 160Q190 125 208 107Q226 89 256 89Q279 89 301 95Q323 101 343.5 113Q364 125 385 143.5Q406 162 427 188L427 88L396 88Q375 58 350.5 35.5Q326 13 296.5 1Q267 -11 229 -11Q197 -11 171 -0.5Q145 10 127 30Q109 50 99 77Q89 104 89 137Q89 182 89 226.5Q89 271 89 316Q89 361 89 405Q89 438 89 470Q89 502 89 533Q112 533 134.5 533Q157 533 179 533ZM501 533Q505 533 507 531.5Q509 530 510.5 528Q512 526 512 522Q512 452 512 381.5Q512 311 512 240Q512 169 512 99Q512 78 512 60Q512 42 512 26.5Q512 11 512 0Q497 0 481.5 0Q466 0 451.5 0Q437 0 423 0Q420 0 417.5 1.5Q415 3 413.5 5Q412 7 412 11Q412 98 412 185Q412 272 412 359.5Q412 447 412 533Q428 533 442.5 533Q457 533 472 533Q487 533 501 533Z" transform="translate(510.42 459.97) scale(0.04400 -0.04400)"/><path d="M500 349Q500 322 500 295Q500 268 500 240Q500 212 500 184.5Q500 157 500 131Q500 118 502 110Q504 102 509 97Q514 92 520.5 90Q527 88 537 88Q539 88 541.5 88Q544 88 547 88L563 88Q563 69 563 50Q563 31 563 11Q563 6 560 3Q557 0 552 0Q547 0 534.5 0Q522 0 512 0Q487 0 467 7.5Q447 15 431.5 29.5Q416 44 407.5 65Q399 86 399 114Q399 148 399 184.5Q399 221 399 255Q399 271 399 287Q399 303 399 319Q399 335 399 351Q399 389 388 410.5Q377 432 351 440.5Q325 449 280 449Q251 449 224.5 446Q198 443 172.5 437Q147 431 121 422L105 422Q105 441 105 461Q105 481 105 500Q105 504 106 506Q107 508 108 509Q113 515 139 523Q165 531 202.5 537Q240 543 280 543Q338 543 379.5 532.5Q421 522 447.5 498.5Q474 475 487 438Q500 401 500 349ZM168 144Q168 113 186 96.5Q204 80 239 80Q272 80 301.5 88.5Q331 97 359.5 117Q388 137 418 172L418 85L388 85Q372 55 348 33.5Q324 12 291.5 1Q259 -10 219 -10Q172 -10 138 7.5Q104 25 85.5 57Q67 89 67 133L67 165Q67 198 78 224.5Q89 251 109.5 269.5Q130 288 159 298Q188 308 224 308Q259 308 291.5 308Q324 308 356 308Q388 308 420 308Q428 308 432 296Q436 284 437 268Q438 252 438 239Q402 239 370.5 239Q339 239 307.5 239Q276 239 239 239Q221 239 207.5 234.5Q194 230 184 220Q176 212 172 201Q168 190 168 175Z" transform="translate(536.38 459.97) scale(0.04400 -0.04400)"/><path d="M45 533L424 533Q429 533 432 530Q435 527 435 522Q435 507 435 494Q435 481 435 467.5Q435 454 435 439L56 439Q54 439 52 440Q50 441 48.5 442.5Q47 444 46 446Q45 448 45 450Q45 465 45 478.5Q45 492 45 505Q45 518 45 533ZM435 95Q435 74 435 53Q435 32 435 11Q435 6 432.5 3Q430 0 424 0Q415 0 405 0Q395 0 385.5 0Q376 0 366.5 0Q357 0 347 0Q298 0 260 12Q222 24 195.5 48.5Q169 73 155.5 112Q142 151 142 205Q142 253 142 302Q142 351 142 400Q142 449 142 498Q142 547 142 596Q142 623 142 648.5Q142 674 142 700Q165 700 187.5 700Q210 700 232 700Q235 700 237.5 698.5Q240 697 241.5 694.5Q243 692 243 689Q243 629 243 570Q243 511 243 451.5Q243 392 243 332.5Q243 273 243 214Q243 179 249.5 156Q256 133 271 118Q284 106 304 100.5Q324 95 351 95Q363 95 375 95Q387 95 398.5 95Q410 95 422 95Z" transform="translate(561.02 459.97) scale(0.04400 -0.04400)"/><path d="M178 439L213 439Q231 476 251.5 499Q272 522 296.5 532.5Q321 543 351 543Q368 543 380 540.5Q392 538 399 535Q403 532 404.5 529Q406 526 406 520Q406 509 406 498Q406 487 406 476.5Q406 466 406 455Q406 444 406 433L390 433Q380 436 367.5 438Q355 440 339 440Q307 440 280.5 428Q254 416 229.5 391.5Q205 367 178 327ZM195 0Q180 0 164 0Q148 0 132.5 0Q117 0 101 0Q98 0 96 0.5Q94 1 92.5 2.5Q91 4 90.5 6Q90 8 90 11Q90 35 90 72Q90 109 90 154.5Q90 200 90 248.5Q90 297 90 344.5Q90 392 90 434Q90 466 90 491.5Q90 517 90 533Q107 533 123.5 533Q140 533 155 533Q170 533 184 533Q188 533 190 531.5Q192 530 193.5 528Q195 526 195 522Q195 492 195 446.5Q195 401 195 346Q195 291 195 230.5Q195 170 195 111Q195 52 195 0Z" transform="translate(582.58 459.97) scale(0.04400 -0.04400)"/><path d="M300 544Q352 544 394.5 528Q437 512 467.5 482.5Q498 453 514.5 412.5Q531 372 531 323L531 214Q531 148 501 97Q471 46 419 17.5Q367 -11 300 -11Q248 -11 205.5 5.5Q163 22 132.5 51.5Q102 81 85.5 121Q69 161 69 210L69 319Q69 386 99 436.5Q129 487 181.5 515.5Q234 544 300 544ZM304 452Q261 452 231 434.5Q201 417 185 386Q169 355 169 315L169 217Q169 185 179 159.5Q189 134 206 116Q222 99 245 90Q268 81 296 81Q339 81 369.5 99Q400 117 415.5 148Q431 179 431 218L431 316Q431 350 422 376Q413 402 395 419Q379 435 356 443.5Q333 452 304 452Z" transform="translate(601.50 459.97) scale(0.04400 -0.04400)"/><path d="M178 439L213 439Q231 476 251.5 499Q272 522 296.5 532.5Q321 543 351 543Q368 543 380 540.5Q392 538 399 535Q403 532 404.5 529Q406 526 406 520Q406 509 406 498Q406 487 406 476.5Q406 466 406 455Q406 444 406 433L390 433Q380 436 367.5 438Q355 440 339 440Q307 440 280.5 428Q254 416 229.5 391.5Q205 367 178 327ZM195 0Q180 0 164 0Q148 0 132.5 0Q117 0 101 0Q98 0 96 0.5Q94 1 92.5 2.5Q91 4 90.5 6Q90 8 90 11Q90 35 90 72Q90 109 90 154.5Q90 200 90 248.5Q90 297 90 344.5Q90 392 90 434Q90 466 90 491.5Q90 517 90 533Q107 533 123.5 533Q140 533 155 533Q170 533 184 533Q188 533 190 531.5Q192 530 193.5 528Q195 526 195 522Q195 492 195 446.5Q195 401 195 346Q195 291 195 230.5Q195 170 195 111Q195 52 195 0Z" transform="translate(640.22 459.97) scale(0.04400 -0.04400)"/><path d="M302 544Q364 544 413.5 519Q463 494 492 444.5Q521 395 521 320L521 244Q521 241 519.5 238.5Q518 236 516 235Q514 234 510 234L256 234Q240 234 223 234Q206 234 189 234L157 234L146 303L423 303Q423 308 423 312.5Q423 317 423 322Q423 359 414.5 385.5Q406 412 389 429Q374 444 352.5 451Q331 458 302 458Q241 458 208 425.5Q175 393 175 319L175 211Q175 190 179 172.5Q183 155 190 140.5Q197 126 207 116Q227 96 258 87Q289 78 331 78Q367 78 394.5 82Q422 86 447 94.5Q472 103 495 116L512 116Q512 96 512 76.5Q512 57 512 38Q512 36 511 34Q510 32 508 30Q497 19 469.5 9.5Q442 0 405.5 -5.5Q369 -11 330 -11Q267 -11 219 4Q171 19 139 47.5Q107 76 91 117Q75 158 75 211L75 317Q75 374 92 416.5Q109 459 140.5 487.5Q172 516 213.5 530Q255 544 302 544Z" transform="translate(658.70 459.97) scale(0.04400 -0.04400)"/><path d="M267 87Q337 87 366 107Q395 127 395 156Q395 173 387.5 185.5Q380 198 362.5 207Q345 216 315 222L216 240Q166 250 135 268.5Q104 287 89 314.5Q74 342 74 379Q74 415 89 445Q104 475 133.5 497Q163 519 207 530.5Q251 542 308 542Q344 542 372 539Q400 536 421 530.5Q442 525 456 520Q462 518 464.5 515.5Q467 513 467.5 510Q468 507 468 501Q468 485 468 463Q468 441 468 421L452 421Q428 430 404 435.5Q380 441 354 443.5Q328 446 296 446Q252 446 225 437.5Q198 429 186 414.5Q174 400 174 382Q174 366 180.5 355.5Q187 345 204.5 337.5Q222 330 254 323L352 304Q397 296 428.5 276.5Q460 257 477 227.5Q494 198 494 157Q494 107 467.5 69.5Q441 32 390.5 11.5Q340 -9 268 -9Q232 -9 201 -6Q170 -3 144.5 3Q119 9 99 16.5Q79 24 65 33Q61 36 59.5 38Q58 40 58 46Q58 64 58 88Q58 112 58 134L74 134Q96 121 117 112Q138 103 161 97.5Q184 92 210.5 89.5Q237 87 267 87Z" transform="translate(684.66 459.97) scale(0.04400 -0.04400)"/><path d="M90 533Q106 533 120.5 533Q135 533 149.5 533Q164 533 179 533Q183 533 185 531.5Q187 530 188.5 528Q190 526 190 522Q190 432 190 341.5Q190 251 190 161Q190 71 190 -19.5Q190 -110 190 -200Q175 -200 160.5 -200Q146 -200 131.5 -200Q117 -200 101 -200Q98 -200 95.5 -198.5Q93 -197 91.5 -194.5Q90 -192 90 -189Q90 -111 90 -33.5Q90 44 90 122Q90 200 90 277.5Q90 355 90 433Q90 459 90 484Q90 509 90 533ZM363 544Q414 544 453 521Q492 498 513.5 454Q535 410 535 349L535 190Q535 143 522.5 106Q510 69 487 43Q464 17 432 3.5Q400 -10 361 -10Q329 -10 300.5 -0.5Q272 9 248 27Q224 45 205 70L177 70L177 168Q207 126 247.5 106Q288 86 332 86Q364 86 387 100Q410 114 422.5 141Q435 168 435 206L435 333Q435 363 427.5 385Q420 407 406 421Q393 434 374.5 441Q356 448 332 448Q306 448 279 435.5Q252 423 226.5 398.5Q201 374 177 336L177 448L205 448Q223 479 247 500Q271 521 300 532.5Q329 544 363 544Z" transform="translate(708.42 459.97) scale(0.04400 -0.04400)"/><path d="M179 533Q183 533 185 531.5Q187 530 188.5 528Q190 526 190 522Q190 477 190 430.5Q190 384 190 338Q190 292 190 247.5Q190 203 190 160Q190 125 208 107Q226 89 256 89Q279 89 301 95Q323 101 343.5 113Q364 125 385 143.5Q406 162 427 188L427 88L396 88Q375 58 350.5 35.5Q326 13 296.5 1Q267 -11 229 -11Q197 -11 171 -0.5Q145 10 127 30Q109 50 99 77Q89 104 89 137Q89 182 89 226.5Q89 271 89 316Q89 361 89 405Q89 438 89 470Q89 502 89 533Q112 533 134.5 533Q157 533 179 533ZM501 533Q505 533 507 531.5Q509 530 510.5 528Q512 526 512 522Q512 452 512 381.5Q512 311 512 240Q512 169 512 99Q512 78 512 60Q512 42 512 26.5Q512 11 512 0Q497 0 481.5 0Q466 0 451.5 0Q437 0 423 0Q420 0 417.5 1.5Q415 3 413.5 5Q412 7 412 11Q412 98 412 185Q412 272 412 359.5Q412 447 412 533Q428 533 442.5 533Q457 533 472 533Q487 533 501 533Z" transform="translate(734.38 459.97) scale(0.04400 -0.04400)"/><path d="M302 544Q364 544 413.5 519Q463 494 492 444.5Q521 395 521 320L521 244Q521 241 519.5 238.5Q518 236 516 235Q514 234 510 234L256 234Q240 234 223 234Q206 234 189 234L157 234L146 303L423 303Q423 308 423 312.5Q423 317 423 322Q423 359 414.5 385.5Q406 412 389 429Q374 444 352.5 451Q331 458 302 458Q241 458 208 425.5Q175 393 175 319L175 211Q175 190 179 172.5Q183 155 190 140.5Q197 126 207 116Q227 96 258 87Q289 78 331 78Q367 78 394.5 82Q422 86 447 94.5Q472 103 495 116L512 116Q512 96 512 76.5Q512 57 512 38Q512 36 511 34Q510 32 508 30Q497 19 469.5 9.5Q442 0 405.5 -5.5Q369 -11 330 -11Q267 -11 219 4Q171 19 139 47.5Q107 76 91 117Q75 158 75 211L75 317Q75 374 92 416.5Q109 459 140.5 487.5Q172 516 213.5 530Q255 544 302 544Z" transform="translate(760.34 459.97) scale(0.04400 -0.04400)"/><path d="M267 87Q337 87 366 107Q395 127 395 156Q395 173 387.5 185.5Q380 198 362.5 207Q345 216 315 222L216 240Q166 250 135 268.5Q104 287 89 314.5Q74 342 74 379Q74 415 89 445Q104 475 133.5 497Q163 519 207 530.5Q251 542 308 542Q344 542 372 539Q400 536 421 530.5Q442 525 456 520Q462 518 464.5 515.5Q467 513 467.5 510Q468 507 468 501Q468 485 468 463Q468 441 468 421L452 421Q428 430 404 435.5Q380 441 354 443.5Q328 446 296 446Q252 446 225 437.5Q198 429 186 414.5Q174 400 174 382Q174 366 180.5 355.5Q187 345 204.5 337.5Q222 330 254 323L352 304Q397 296 428.5 276.5Q460 257 477 227.5Q494 198 494 157Q494 107 467.5 69.5Q441 32 390.5 11.5Q340 -9 268 -9Q232 -9 201 -6Q170 -3 144.5 3Q119 9 99 16.5Q79 24 65 33Q61 36 59.5 38Q58 40 58 46Q58 64 58 88Q58 112 58 134L74 134Q96 121 117 112Q138 103 161 97.5Q184 92 210.5 89.5Q237 87 267 87Z" transform="translate(786.30 459.97) scale(0.04400 -0.04400)"/><path d="M45 533L424 533Q429 533 432 530Q435 527 435 522Q435 507 435 494Q435 481 435 467.5Q435 454 435 439L56 439Q54 439 52 440Q50 441 48.5 442.5Q47 444 46 446Q45 448 45 450Q45 465 45 478.5Q45 492 45 505Q45 518 45 533ZM435 95Q435 74 435 53Q435 32 435 11Q435 6 432.5 3Q430 0 424 0Q415 0 405 0Q395 0 385.5 0Q376 0 366.5 0Q357 0 347 0Q298 0 260 12Q222 24 195.5 48.5Q169 73 155.5 112Q142 151 142 205Q142 253 142 302Q142 351 142 400Q142 449 142 498Q142 547 142 596Q142 623 142 648.5Q142 674 142 700Q165 700 187.5 700Q210 700 232 700Q235 700 237.5 698.5Q240 697 241.5 694.5Q243 692 243 689Q243 629 243 570Q243 511 243 451.5Q243 392 243 332.5Q243 273 243 214Q243 179 249.5 156Q256 133 271 118Q284 106 304 100.5Q324 95 351 95Q363 95 375 95Q387 95 398.5 95Q410 95 422 95Z" transform="translate(809.18 459.97) scale(0.04400 -0.04400)"/><path d="M500 349Q500 322 500 295Q500 268 500 240Q500 212 500 184.5Q500 157 500 131Q500 118 502 110Q504 102 509 97Q514 92 520.5 90Q527 88 537 88Q539 88 541.5 88Q544 88 547 88L563 88Q563 69 563 50Q563 31 563 11Q563 6 560 3Q557 0 552 0Q547 0 534.5 0Q522 0 512 0Q487 0 467 7.5Q447 15 431.5 29.5Q416 44 407.5 65Q399 86 399 114Q399 148 399 184.5Q399 221 399 255Q399 271 399 287Q399 303 399 319Q399 335 399 351Q399 389 388 410.5Q377 432 351 440.5Q325 449 280 449Q251 449 224.5 446Q198 443 172.5 437Q147 431 121 422L105 422Q105 441 105 461Q105 481 105 500Q105 504 106 506Q107 508 108 509Q113 515 139 523Q165 531 202.5 537Q240 543 280 543Q338 543 379.5 532.5Q421 522 447.5 498.5Q474 475 487 438Q500 401 500 349ZM168 144Q168 113 186 96.5Q204 80 239 80Q272 80 301.5 88.5Q331 97 359.5 117Q388 137 418 172L418 85L388 85Q372 55 348 33.5Q324 12 291.5 1Q259 -10 219 -10Q172 -10 138 7.5Q104 25 85.5 57Q67 89 67 133L67 165Q67 198 78 224.5Q89 251 109.5 269.5Q130 288 159 298Q188 308 224 308Q259 308 291.5 308Q324 308 356 308Q388 308 420 308Q428 308 432 296Q436 284 437 268Q438 252 438 239Q402 239 370.5 239Q339 239 307.5 239Q276 239 239 239Q221 239 207.5 234.5Q194 230 184 220Q176 212 172 201Q168 190 168 175Z" transform="translate(830.74 459.97) scale(0.04400 -0.04400)"/><path d="M267 87Q337 87 366 107Q395 127 395 156Q395 173 387.5 185.5Q380 198 362.5 207Q345 216 315 222L216 240Q166 250 135 268.5Q104 287 89 314.5Q74 342 74 379Q74 415 89 445Q104 475 133.5 497Q163 519 207 530.5Q251 542 308 542Q344 542 372 539Q400 536 421 530.5Q442 525 456 520Q462 518 464.5 515.5Q467 513 467.5 510Q468 507 468 501Q468 485 468 463Q468 441 468 421L452 421Q428 430 404 435.5Q380 441 354 443.5Q328 446 296 446Q252 446 225 437.5Q198 429 186 414.5Q174 400 174 382Q174 366 180.5 355.5Q187 345 204.5 337.5Q222 330 254 323L352 304Q397 296 428.5 276.5Q460 257 477 227.5Q494 198 494 157Q494 107 467.5 69.5Q441 32 390.5 11.5Q340 -9 268 -9Q232 -9 201 -6Q170 -3 144.5 3Q119 9 99 16.5Q79 24 65 33Q61 36 59.5 38Q58 40 58 46Q58 64 58 88Q58 112 58 134L74 134Q96 121 117 112Q138 103 161 97.5Q184 92 210.5 89.5Q237 87 267 87Z" transform="translate(856.70 459.97) scale(0.04400 -0.04400)"/><path d="M246 -8Q223 -8 202 -8Q181 -8 159.5 -8Q138 -8 115 -8Q112 -8 109.5 -6.5Q107 -5 105.5 -2.5Q104 0 104 3L104 138Q127 138 148.5 138Q170 138 191 138Q212 138 235 138Q239 138 241 136.5Q243 135 244.5 133Q246 131 246 127Z" transform="translate(879.14 459.97) scale(0.04400 -0.04400)"/></g></g><rect x="88.02000000000001" y="1137.98" width="4.97999999999999" height="4" fill="#0B0B0F" /><rect x="98" y="1137.98" width="9" height="4" fill="#0B0B0F" /><rect x="112" y="1137.98" width="9" height="4" fill="#0B0B0F" /><rect x="126" y="1137.98" width="9" height="4" fill="#0B0B0F" /><rect x="140" y="1137.98" width="9" height="4" fill="#0B0B0F" /><rect x="154" y="1137.98" width="9" height="4" fill="#0B0B0F" /><rect x="168" y="1137.98" width="9" height="4" fill="#0B0B0F" /><rect x="182" y="1137.98" width="9" height="4" fill="#0B0B0F" /><rect x="196" y="1137.98" width="9" height="4" fill="#0B0B0F" /><rect x="210" y="1137.98" width="9" height="4" fill="#0B0B0F" /><rect x="224" y="1137.98" width="9" height="4" fill="#0B0B0F" /><rect x="238" y="1137.98" width="9" height="4" fill="#0B0B0F" /><rect x="252" y="1137.98" width="9" height="4" fill="#0B0B0F" /><rect x="266" y="1137.98" width="9" height="4" fill="#0B0B0F" /><rect x="280" y="1137.98" width="9" height="4" fill="#0B0B0F" /><rect x="294" y="1137.98" width="9" height="4" fill="#0B0B0F" /><rect x="308" y="1137.98" width="9" height="4" fill="#0B0B0F" /><rect x="322" y="1137.98" width="9" height="4" fill="#0B0B0F" /><rect x="336" y="1137.98" width="9" height="4" fill="#0B0B0F" /><rect x="350" y="1137.98" width="9" height="4" fill="#0B0B0F" /><rect x="364" y="1137.98" width="9" height="4" fill="#0B0B0F" /><rect x="378" y="1137.98" width="9" height="4" fill="#0B0B0F" /><rect x="392" y="1137.98" width="9" height="4" fill="#0B0B0F" /><rect x="406" y="1137.98" width="9" height="4" fill="#0B0B0F" /><rect x="420" y="1137.98" width="9" height="4" fill="#0B0B0F" /><rect x="434" y="1137.98" width="9" height="4" fill="#0B0B0F" /><rect x="448" y="1137.98" width="9" height="4" fill="#0B0B0F" /><rect x="462" y="1137.98" width="9" height="4" fill="#0B0B0F" /><rect x="476" y="1137.98" width="9" height="4" fill="#0B0B0F" /><rect x="490" y="1137.98" width="9" height="4" fill="#0B0B0F" /><rect x="504" y="1137.98" width="9" height="4" fill="#0B0B0F" /><rect x="518" y="1137.98" width="9" height="4" fill="#0B0B0F" /><rect x="532" y="1137.98" width="9" height="4" fill="#0B0B0F" /><rect x="546" y="1137.98" width="9" height="4" fill="#0B0B0F" /><rect x="560" y="1137.98" width="9" height="4" fill="#0B0B0F" /><rect x="574" y="1137.98" width="9" height="4" fill="#0B0B0F" /><rect x="588" y="1137.98" width="9" height="4" fill="#0B0B0F" /><rect x="602" y="1137.98" width="9" height="4" fill="#0B0B0F" /><rect x="616" y="1137.98" width="9" height="4" fill="#0B0B0F" /><rect x="630" y="1137.98" width="9" height="4" fill="#0B0B0F" /><rect x="644" y="1137.98" width="9" height="4" fill="#0B0B0F" /><rect x="658" y="1137.98" width="9" height="4" fill="#0B0B0F" /><rect x="672" y="1137.98" width="9" height="4" fill="#0B0B0F" /><rect x="686" y="1137.98" width="9" height="4" fill="#0B0B0F" /><rect x="700" y="1137.98" width="9" height="4" fill="#0B0B0F" /><rect x="714" y="1137.98" width="9" height="4" fill="#0B0B0F" /><rect x="728" y="1137.98" width="9" height="4" fill="#0B0B0F" /><rect x="742" y="1137.98" width="9" height="4" fill="#0B0B0F" /><rect x="756" y="1137.98" width="9" height="4" fill="#0B0B0F" /><rect x="770" y="1137.98" width="9" height="4" fill="#0B0B0F" /><rect x="784" y="1137.98" width="9" height="4" fill="#0B0B0F" /><rect x="798" y="1137.98" width="9" height="4" fill="#0B0B0F" /><rect x="812" y="1137.98" width="9" height="4" fill="#0B0B0F" /><rect x="826" y="1137.98" width="9" height="4" fill="#0B0B0F" /><rect x="840" y="1137.98" width="9" height="4" fill="#0B0B0F" /><rect x="854" y="1137.98" width="9" height="4" fill="#0B0B0F" /><rect x="868" y="1137.98" width="9" height="4" fill="#0B0B0F" /><rect x="882" y="1137.98" width="9" height="4" fill="#0B0B0F" /><rect x="896" y="1137.98" width="9" height="4" fill="#0B0B0F" /><rect x="910" y="1137.98" width="9" height="4" fill="#0B0B0F" /><rect x="924" y="1137.98" width="9" height="4" fill="#0B0B0F" /><rect x="938" y="1137.98" width="9" height="4" fill="#0B0B0F" /><rect x="952" y="1137.98" width="9" height="4" fill="#0B0B0F" /><rect x="966" y="1137.98" width="9" height="4" fill="#0B0B0F" /><rect x="980" y="1137.98" width="9" height="4" fill="#0B0B0F" /><rect x="994" y="1137.98" width="9" height="4" fill="#0B0B0F" /><rect x="1008" y="1137.98" width="9" height="4" fill="#0B0B0F" /><rect x="1022" y="1137.98" width="9" height="4" fill="#0B0B0F" /><rect x="1036" y="1137.98" width="9" height="4" fill="#0B0B0F" /><rect x="1050" y="1137.98" width="9" height="4" fill="#0B0B0F" /><rect x="1064" y="1137.98" width="9" height="4" fill="#0B0B0F" /><rect x="1078" y="1137.98" width="2" height="4" fill="#0B0B0F" /><rect x="80.02000000000001" y="1131.98" width="16" height="16" fill="#0B0B0F" /><rect x="78" y="1129.98" width="32" height="32" fill="#9F292E" /><rect x="72" y="1123.98" width="32" height="32" fill="#F85239" /><g fill="#5F5650" aria-label="DESLIZA"><path d="M539 240Q539 184 522.5 139.5Q506 95 474 64Q442 33 397 16.5Q352 0 296 0Q275 0 251 0Q227 0 203 0Q179 0 156.5 0Q134 0 117 0Q100 0 93 0Q88 0 85 3Q82 6 82 11Q82 89 82 167.5Q82 246 82 324Q82 402 82 480.5Q82 559 82 637L218 637L209 616Q209 589 209 562Q209 535 209 508Q209 458 209 408.5Q209 359 209 309Q209 259 209 209.5Q209 160 209 110Q223 110 236.5 110Q250 110 263 110Q276 110 289 110Q334 110 360 124Q386 138 398.5 166.5Q411 195 411 241L411 459Q411 484 407.5 502.5Q404 521 397.5 536Q391 551 381 561Q371 571 358 577.5Q345 584 328 587Q311 590 289 590Q258 590 227.5 590Q197 590 165 590Q133 590 102 590Q71 590 41 590Q38 590 35.5 591.5Q33 593 31.5 595.5Q30 598 30 601Q30 625 30 650.5Q30 676 30 700Q61 700 93 700Q125 700 158.5 700Q192 700 226 700Q260 700 295 700Q352 700 397 683.5Q442 667 473.5 636Q505 605 522 560.5Q539 516 539 461Z" transform="translate(810.30 1087.98) scale(0.02200 -0.02200)"/><path d="M30 700L526 700Q531 700 532.5 698.5Q534 697 535.5 695Q537 693 537 689Q537 661 537 639Q537 617 537 588L41 588Q38 588 35.5 589.5Q33 591 31.5 593.5Q30 596 30 599Q30 627 30 649.5Q30 672 30 700ZM162 407L469 407Q473 407 475 405Q477 403 478.5 401Q480 399 480 396Q480 377 480 361Q480 345 480 330Q480 315 480 298L162 298ZM93 0Q90 0 88 0.5Q86 1 84.5 2.5Q83 4 82.5 6Q82 8 82 11Q82 44 82 97.5Q82 151 82 218Q82 285 82 357.5Q82 430 82 501.5Q82 573 82 635L220 635L213 615Q213 594 213 570Q213 546 213 522Q213 474 213 422.5Q213 371 213 318.5Q213 266 213 214Q213 162 213 112L526 112Q531 112 534 109Q537 106 537 101Q537 74 537 50.5Q537 27 537 0Z" transform="translate(824.38 1087.98) scale(0.02200 -0.02200)"/><path d="M321 719Q390 719 440 702.5Q490 686 513 662Q518 658 519 654.5Q520 651 520 645Q520 626 520 602.5Q520 579 520 555.5Q520 532 520 509Q494 509 466.5 509Q439 509 413 509Q408 509 405 512Q402 515 402 520Q402 531 402 542Q402 553 402 565Q402 577 402 590.5Q402 604 402 620L430 582Q406 594 377 600.5Q348 607 314 607Q286 607 264.5 602Q243 597 226.5 586.5Q210 576 202.5 560Q195 544 195 523L195 502Q195 481 201.5 466Q208 451 227 439.5Q246 428 283 417L378 388Q425 375 456.5 358.5Q488 342 506.5 321.5Q525 301 533 274Q541 247 541 213L541 169Q541 111 510.5 68.5Q480 26 422.5 3.5Q365 -19 284 -19Q236 -19 193.5 -12.5Q151 -6 119.5 6.5Q88 19 70 36Q67 39 65.5 42.5Q64 46 64 54Q64 70 64 86Q64 102 64 119Q64 136 64 155L82 155Q127 123 176 108.5Q225 94 292 94Q357 94 388 116Q419 138 419 171L419 204Q419 222 412.5 235Q406 248 387.5 259Q369 270 331 281L236 310Q187 325 155.5 344Q124 363 106 385Q88 407 80.5 432.5Q73 458 73 487L73 532Q73 573 90.5 607Q108 641 140.5 666.5Q173 692 218.5 705.5Q264 719 321 719Z" transform="translate(838.46 1087.98) scale(0.02200 -0.02200)"/><path d="M87 0Q84 0 82 0.5Q80 1 78.5 2.5Q77 4 76.5 6Q76 8 76 11Q76 89 76 168.5Q76 248 76 326Q76 404 76 476.5Q76 549 76 615Q76 636 76 657.5Q76 679 76 700Q107 700 136.5 700Q166 700 196 700Q201 700 202.5 698.5Q204 697 205.5 695Q207 693 207 689Q207 618 207 545.5Q207 473 207 400.5Q207 328 207 255.5Q207 183 207 112L438 112Q462 112 478.5 105.5Q495 99 506 85.5Q517 72 524 51Q531 30 535 0ZM419 218Q438 218 455 218Q472 218 489 218Q506 218 524 218Q528 218 530 216.5Q532 215 533.5 213Q535 211 535 207Q535 188 535 161Q535 134 535 104Q535 74 535 46.5Q535 19 535 0Q491 4 465.5 16.5Q440 29 429.5 49.5Q419 70 419 97Q419 112 419 135.5Q419 159 419 182Q419 205 419 218Z" transform="translate(852.54 1087.98) scale(0.02200 -0.02200)"/><path d="M365 68L232 68L235 105Q235 122 235 143Q235 164 235 181Q235 237 235 293.5Q235 350 235 406Q235 462 235 518.5Q235 575 235 632L369 632L365 595Q365 579 365 559.5Q365 540 365 523Q365 466 365 409Q365 352 365 295Q365 238 365 181.5Q365 125 365 68ZM524 0L86 0Q83 0 81 0.5Q79 1 77.5 2.5Q76 4 76 6Q76 8 76 11Q76 29 76 45Q76 61 76 77.5Q76 94 76 112L513 112Q517 112 519 110.5Q521 109 522.5 107Q524 105 524 101Q524 83 524 66.5Q524 50 524 34Q524 18 524 0ZM76 700L513 700Q518 700 521 697Q524 694 524 689Q524 675 524 663Q524 651 524 638.5Q524 626 524 614Q524 602 524 588L87 588Q81 588 78.5 591Q76 594 76 599Q76 613 76 625Q76 637 76 649.5Q76 662 76 674.5Q76 687 76 700Z" transform="translate(866.62 1087.98) scale(0.02200 -0.02200)"/><path d="M551 0L64 0Q59 0 56 3Q53 6 53 11L53 134Q94 185 134.5 236.5Q175 288 217.5 340.5Q260 393 303 448Q319 469 333 485Q347 501 360.5 513.5Q374 526 387 537Q400 548 415.5 559Q431 570 449 583L422 541L422 608L439 583Q379 583 336 583Q293 583 260.5 583Q228 583 196 583L163 583Q137 583 117.5 590.5Q98 598 85 612.5Q72 627 65 649Q58 671 58 700L536 700Q540 700 542 698.5Q544 697 545.5 695Q547 693 547 689L547 566Q517 529 479.5 482.5Q442 436 399.5 383.5Q357 331 311 271Q293 246 277 227.5Q261 209 247 195Q233 181 219 169Q205 157 189.5 145.5Q174 134 155 120L179 158L179 90L163 117Q223 117 275 117Q327 117 372.5 117Q418 117 456 117L540 117Q545 117 548 114Q551 111 551 106Q551 79 551 53Q551 27 551 0ZM174 521Q147 521 122 521Q97 521 69 521Q66 521 63.5 522.5Q61 524 59.5 526.5Q58 529 58 532Q58 549 58 570.5Q58 592 58 615.5Q58 639 58 661Q58 683 58 700Q104 700 129.5 690.5Q155 681 164.5 659.5Q174 638 174 603Q174 591 174 576Q174 561 174 546.5Q174 532 174 521Z" transform="translate(880.70 1087.98) scale(0.02200 -0.02200)"/><path d="M145 279L328 279Q343 279 357 279Q371 279 385 279L418 288L430 230L444 171L155 171Q152 171 149.5 172.5Q147 174 145.5 176.5Q144 179 144 182ZM149 0Q122 0 92.5 0Q63 0 35 0Q31 0 29 1.5Q27 3 26 6Q25 9 26 13Q33 40 44 83Q55 126 68 179.5Q81 233 96 292.5Q111 352 125.5 412Q140 472 154.5 527.5Q169 583 180 628.5Q191 674 199 703Q251 703 299 703Q347 703 390 703Q394 703 397 701.5Q400 700 401 697.5Q402 695 402 692Q418 632 435 566Q452 500 470 429.5Q488 359 507 284Q526 209 546 129Q554 97 562 65Q570 33 578 0Q548 0 520 0Q492 0 466 0Q461 0 456.5 2Q452 4 449 10.5Q446 17 443 31Q423 112 406 182.5Q389 253 373.5 313.5Q358 374 346 426.5Q334 479 324.5 525.5Q315 572 308 612L336 591L265 591L293 612Q285 572 276 527Q267 482 254 429.5Q241 377 225.5 313.5Q210 250 190.5 172.5Q171 95 149 0Z" transform="translate(894.78 1087.98) scale(0.02200 -0.02200)"/></g><rect x="931.98" y="1073.98" width="60" height="12" fill="#F85239" /><rect x="967.98" y="1061.98" width="12" height="12" fill="#F85239" /><rect x="967.98" y="1085.98" width="12" height="12" fill="#F85239" /><rect x="955.98" y="1049.98" width="12" height="12" fill="#F85239" /><rect x="955.98" y="1097.98" width="12" height="12" fill="#F85239" /><g transform="translate(88.02000000000001 1215.98) scale(2)" shape-rendering="crispEdges">
  <path fill="#0B0B0F" d="M3 0h4v1h-4zM23 0h4v1h-4zM2 1h1v1h-1zM7 1h2v1h-2zM21 1h2v1h-2zM27 1h1v1h-1zM2 2h1v1h-1zM9 2h1v1h-1zM20 2h1v1h-1zM27 2h1v1h-1zM2 3h1v1h-1zM10 3h1v1h-1zM19 3h1v1h-1zM27 3h1v1h-1zM2 4h1v1h-1zM11 4h8v1h-8zM27 4h1v1h-1zM2 5h1v1h-1zM27 5h1v1h-1zM2 6h1v1h-1zM27 6h1v1h-1zM2 7h1v1h-1zM27 7h1v1h-1zM2 8h1v1h-1zM27 8h1v1h-1zM3 9h1v1h-1zM26 9h1v1h-1zM3 10h1v1h-1zM26 10h1v1h-1zM2 11h1v1h-1zM27 11h1v1h-1zM2 12h1v1h-1zM8 12h2v1h-2zM20 12h2v1h-2zM27 12h1v1h-1zM2 13h1v1h-1zM8 13h2v1h-2zM20 13h2v1h-2zM27 13h1v1h-1zM0 14h5v1h-5zM8 14h2v1h-2zM20 14h2v1h-2zM25 14h5v1h-5zM2 15h1v1h-1zM27 15h1v1h-1zM2 16h3v1h-3zM25 16h3v1h-3zM1 17h3v1h-3zM11 17h1v1h-1zM14 17h2v1h-2zM18 17h1v1h-1zM26 17h3v1h-3zM4 18h1v1h-1zM12 18h2v1h-2zM16 18h2v1h-2zM25 18h1v1h-1zM5 19h1v1h-1zM24 19h1v1h-1zM6 20h1v1h-1zM23 20h1v1h-1zM7 21h2v1h-2zM21 21h2v1h-2zM9 22h12v1h-12z"/>
  <path fill="#F85239" d="M3 1h4v1h-4zM23 1h4v1h-4zM3 2h1v1h-1zM5 2h4v1h-4zM21 2h4v1h-4zM26 2h1v1h-1zM3 3h1v1h-1zM6 3h4v1h-4zM20 3h4v1h-4zM26 3h1v1h-1zM3 4h1v1h-1zM7 4h4v1h-4zM19 4h4v1h-4zM26 4h1v1h-1zM3 5h1v1h-1zM8 5h3v1h-3zM13 5h1v1h-1zM16 5h1v1h-1zM19 5h3v1h-3zM26 5h1v1h-1zM3 6h1v1h-1zM7 6h5v1h-5zM13 6h1v1h-1zM16 6h1v1h-1zM18 6h5v1h-5zM26 6h1v1h-1zM3 7h1v1h-1zM6 7h6v1h-6zM13 7h1v1h-1zM16 7h1v1h-1zM18 7h6v1h-6zM26 7h1v1h-1zM3 8h1v1h-1zM5 8h9v1h-9zM16 8h9v1h-9zM26 8h1v1h-1zM4 9h22v1h-22zM4 10h22v1h-22zM3 11h24v1h-24zM3 12h5v1h-5zM10 12h10v1h-10zM22 12h5v1h-5zM3 13h5v1h-5zM10 13h10v1h-10zM22 13h5v1h-5zM5 14h3v1h-3zM10 14h10v1h-10zM22 14h3v1h-3zM3 15h10v1h-10zM17 15h10v1h-10zM5 16h9v1h-9zM16 16h9v1h-9zM4 17h7v1h-7zM12 17h2v1h-2zM16 17h2v1h-2zM19 17h7v1h-7zM6 18h6v1h-6zM14 18h2v1h-2zM18 18h6v1h-6zM7 19h16v1h-16zM8 20h14v1h-14zM10 21h10v1h-10z"/>
  <path fill="#CF3433" d="M4 2h1v1h-1zM25 2h1v1h-1zM4 3h2v1h-2zM24 3h2v1h-2zM4 4h3v1h-3zM23 4h3v1h-3zM4 5h4v1h-4zM11 5h2v1h-2zM14 5h2v1h-2zM17 5h2v1h-2zM22 5h4v1h-4zM4 6h3v1h-3zM12 6h1v1h-1zM14 6h2v1h-2zM17 6h1v1h-1zM23 6h3v1h-3zM4 7h2v1h-2zM12 7h1v1h-1zM14 7h2v1h-2zM17 7h1v1h-1zM24 7h2v1h-2zM4 8h1v1h-1zM14 8h2v1h-2zM25 8h1v1h-1zM13 15h4v1h-4zM14 16h2v1h-2zM5 18h1v1h-1zM24 18h1v1h-1zM6 19h1v1h-1zM23 19h1v1h-1zM7 20h1v1h-1zM22 20h1v1h-1zM9 21h1v1h-1zM20 21h1v1h-1z"/>
</g><g fill="#0B0B0F" aria-label="GatoPago"><path d="M359 352L549 352Q574 352 588.5 341Q603 330 608.5 305.5Q614 281 614 236L614 227L504 227Q463 227 434.5 233Q406 239 388.5 251Q371 263 363.5 281.5Q356 300 356 326Q356 333 357 340.5Q358 348 359 352ZM377 720Q398 720 416.5 717.5Q435 715 451 709.5Q467 704 481 695Q495 686 508 674Q536 645 550 613Q564 581 564 534Q564 522 564 509Q564 496 564 483.5Q564 471 564 460Q554 456 538 453.5Q522 451 502 451Q462 451 440.5 464Q419 477 419 507Q419 525 420.5 540Q422 555 425.5 573Q429 591 437 613L437 578Q428 584 417 585.5Q406 587 395 587Q350 587 314 563.5Q278 540 251 499.5Q224 459 210 406.5Q196 354 196 293L196 276Q196 259 196.5 240Q197 221 198 207Q218 163 255.5 144Q293 125 358 125Q398 125 425.5 135.5Q453 146 468 165.5Q483 185 482 212Q482 220 481.5 225.5Q481 231 480.5 236.5Q480 242 478 247L567 247L556 222Q572 210 578 192.5Q584 175 584 146Q584 111 570.5 85.5Q557 60 536 41Q519 24 490.5 10.5Q462 -3 426 -11.5Q390 -20 349 -20Q277 -20 222 1Q167 22 129 61Q91 100 71.5 154Q52 208 52 274L52 292Q52 382 75.5 460Q99 538 142.5 596.5Q186 655 246 687.5Q306 720 377 720Z" transform="translate(166.02 1251.86) scale(0.03588 -0.03588)"/><path d="M513 353Q513 333 513 312Q513 291 513 270.5Q513 250 513 229.5Q513 209 513 187Q513 175 513 164Q513 153 513 141Q516 139 522 137.5Q528 136 533 136Q543 136 554 139.5Q565 143 575 152L581 152Q582 145 582.5 140.5Q583 136 583 128Q583 99 573 69.5Q563 40 547 24Q530 7 514.5 0.5Q499 -6 483 -6Q457 -6 434 8.5Q411 23 394.5 47Q378 71 368.5 98.5Q359 126 359 150Q359 170 359 191Q359 212 359 231Q359 252 361.5 276Q364 300 369 329Q374 358 381 392Q362 400 344 404.5Q326 409 306 410Q286 411 262 411Q232 411 206.5 409Q181 407 157 402.5Q133 398 107 391L102 391Q100 400 98.5 412.5Q97 425 97 437Q97 460 103.5 481Q110 502 124 516Q136 527 155.5 534.5Q175 542 209 545.5Q243 549 297 549Q348 549 388.5 531Q429 513 456.5 484.5Q484 456 498.5 422Q513 388 513 353ZM199 158Q199 132 209 123Q219 114 250 114Q270 114 290.5 120.5Q311 127 332.5 141Q354 155 372 178L379 96L364 96Q353 70 328 45.5Q303 21 270.5 5.5Q238 -10 201 -10Q151 -10 116.5 7.5Q82 25 64 60.5Q46 96 46 149L46 156Q46 183 60.5 210.5Q75 238 100 262Q125 286 156.5 300.5Q188 315 223 315Q266 315 303 310.5Q340 306 366.5 297.5Q393 289 406 277Q412 271 417 261.5Q422 252 425.5 239Q429 226 429 207Q401 214 373 217.5Q345 221 317.5 223.5Q290 226 267 226Q249 226 234.5 223.5Q220 221 206 216Q203 201 201 187.5Q199 174 199 159Z" transform="translate(187.73 1251.86) scale(0.03588 -0.03588)"/><path d="M26 539L380 539Q420 539 435 521Q450 503 450 455Q450 444 449 433.5Q448 423 446.5 413.5Q445 404 443 395L190 395Q141 395 108.5 402Q76 409 57 423.5Q38 438 30.5 460Q23 482 23 514Q23 518 23.5 523Q24 528 24.5 532Q25 536 26 539ZM444 161Q446 152 447 143Q448 134 448 125Q448 89 441 63.5Q434 38 421 22Q414 13 404 6.5Q394 0 380 -4Q366 -8 348 -10Q330 -12 307 -12Q270 -12 236.5 0.5Q203 13 178.5 36Q154 59 140 91Q126 123 126 162Q126 218 126 273.5Q126 329 126 384.5Q126 440 126 495.5Q126 551 126 606Q126 629 124 653Q122 677 114 700Q132 705 148.5 707.5Q165 710 181 710Q206 710 226 699.5Q246 689 258 667.5Q270 646 270 612Q270 557 270 502.5Q270 448 270 393.5Q270 339 270 284.5Q270 230 270 175Q270 166 271 157Q272 148 275 140Q286 135 296.5 133Q307 131 323 131Q343 131 363 134.5Q383 138 402 144.5Q421 151 439 161Z" transform="translate(206.56 1251.86) scale(0.03588 -0.03588)"/><path d="M304 551Q354 551 398.5 533Q443 515 477.5 478.5Q512 442 532.5 386.5Q553 331 553 255L553 241Q553 166 520.5 109Q488 52 430 20Q372 -12 295 -12Q244 -12 199.5 3.5Q155 19 121 50Q87 81 67 129Q47 177 47 243L47 256Q47 345 79.5 411Q112 477 170 514Q228 551 304 551ZM322 416Q276 416 246 398.5Q216 381 201 343Q186 305 186 245L186 239Q186 206 190 179Q194 152 201 129Q217 125 233.5 124Q250 123 273 123Q321 123 352 136Q383 149 398.5 178Q414 207 414 253L414 260Q414 304 408.5 340.5Q403 377 393 408Q379 413 362.5 414.5Q346 416 322 416Z" transform="translate(222.89 1251.86) scale(0.03588 -0.03588)"/><path d="M241 0Q229 -3 217.5 -4.5Q206 -6 189 -6Q131 -6 103.5 19Q76 44 76 100Q76 162 76 224Q76 286 76 348Q76 410 76 472Q76 534 76 597L204 597L193 567Q213 554 221.5 532.5Q230 511 230 480Q230 415 230 351.5Q230 288 230 224.5Q230 161 230 96Q230 73 232 48Q234 23 241 0ZM23 700Q87 711 157.5 715.5Q228 720 294 720Q338 720 377.5 709Q417 698 448 677.5Q479 657 502 629Q525 601 536.5 568Q548 535 548 499L548 492Q548 408 529.5 345.5Q511 283 479.5 241.5Q448 200 407.5 180Q367 160 321 160Q295 160 273.5 174.5Q252 189 236 215L206 214L206 308Q224 303 242.5 300Q261 297 283 297Q309 297 329.5 307.5Q350 318 365 341Q380 364 388.5 400.5Q397 437 397 488L397 503Q397 517 395.5 529.5Q394 542 392 554Q371 565 345 570.5Q319 576 282 576Q226 576 179.5 571Q133 566 102 561Q71 556 60 556Q38 556 27.5 577.5Q17 599 17 646Q17 662 18.5 674.5Q20 687 23 700Z" transform="translate(242.80 1251.86) scale(0.03588 -0.03588)"/><path d="M513 353Q513 333 513 312Q513 291 513 270.5Q513 250 513 229.5Q513 209 513 187Q513 175 513 164Q513 153 513 141Q516 139 522 137.5Q528 136 533 136Q543 136 554 139.5Q565 143 575 152L581 152Q582 145 582.5 140.5Q583 136 583 128Q583 99 573 69.5Q563 40 547 24Q530 7 514.5 0.5Q499 -6 483 -6Q457 -6 434 8.5Q411 23 394.5 47Q378 71 368.5 98.5Q359 126 359 150Q359 170 359 191Q359 212 359 231Q359 252 361.5 276Q364 300 369 329Q374 358 381 392Q362 400 344 404.5Q326 409 306 410Q286 411 262 411Q232 411 206.5 409Q181 407 157 402.5Q133 398 107 391L102 391Q100 400 98.5 412.5Q97 425 97 437Q97 460 103.5 481Q110 502 124 516Q136 527 155.5 534.5Q175 542 209 545.5Q243 549 297 549Q348 549 388.5 531Q429 513 456.5 484.5Q484 456 498.5 422Q513 388 513 353ZM199 158Q199 132 209 123Q219 114 250 114Q270 114 290.5 120.5Q311 127 332.5 141Q354 155 372 178L379 96L364 96Q353 70 328 45.5Q303 21 270.5 5.5Q238 -10 201 -10Q151 -10 116.5 7.5Q82 25 64 60.5Q46 96 46 149L46 156Q46 183 60.5 210.5Q75 238 100 262Q125 286 156.5 300.5Q188 315 223 315Q266 315 303 310.5Q340 306 366.5 297.5Q393 289 406 277Q412 271 417 261.5Q422 252 425.5 239Q429 226 429 207Q401 214 373 217.5Q345 221 317.5 223.5Q290 226 267 226Q249 226 234.5 223.5Q220 221 206 216Q203 201 201 187.5Q199 174 199 159Z" transform="translate(261.28 1251.86) scale(0.03588 -0.03588)"/><path d="M129 64Q129 87 137 105.5Q145 124 161 139Q177 154 201 163L201 179L276 172Q267 158 264.5 143.5Q262 129 262 112Q262 97 271 87.5Q280 78 297 76L432 66Q469 64 498 49Q527 34 544 7.5Q561 -19 561 -57L561 -73Q561 -116 540 -148.5Q519 -181 478.5 -204Q438 -227 379 -238.5Q320 -250 244 -250L233 -250Q164 -250 116.5 -234Q69 -218 44.5 -189Q20 -160 20 -119L20 -106Q20 -77 35 -53.5Q50 -30 78.5 -15Q107 0 145 2L145 25L215 -14Q197 -24 185.5 -35.5Q174 -47 169 -60.5Q164 -74 164 -93L164 -104Q164 -124 172.5 -136Q181 -148 200.5 -152.5Q220 -157 250 -157L265 -157Q307 -157 343 -154.5Q379 -152 408 -145Q415 -136 417 -126Q419 -116 419 -106L419 -95Q419 -81 410.5 -72.5Q402 -64 387 -63L271 -54Q228 -50 196 -34Q164 -18 146.5 7.5Q129 33 129 64ZM328 441L427 436L427 411Q462 393 481 369.5Q500 346 500 313L500 302Q500 257 471.5 225Q443 193 394 176.5Q345 160 283 160Q215 159 161.5 180.5Q108 202 77.5 243.5Q47 285 47 342L47 352Q47 412 78 457Q109 502 169.5 527Q230 552 318 552Q383 552 434 550Q485 548 543 543Q546 536 548 522.5Q550 509 550 495Q550 459 538.5 436.5Q527 414 501 414Q482 414 458 417.5Q434 421 398 423.5Q362 426 308 426Q243 426 211 404Q179 382 179 337L179 328Q179 317 181.5 304.5Q184 292 191 280Q210 271 230.5 267.5Q251 264 283 264Q327 264 351.5 282Q376 300 376 332L376 343Q376 360 372 377Q368 394 358 410Q348 426 328 441Z" transform="translate(280.84 1251.86) scale(0.03588 -0.03588)"/><path d="M304 551Q354 551 398.5 533Q443 515 477.5 478.5Q512 442 532.5 386.5Q553 331 553 255L553 241Q553 166 520.5 109Q488 52 430 20Q372 -12 295 -12Q244 -12 199.5 3.5Q155 19 121 50Q87 81 67 129Q47 177 47 243L47 256Q47 345 79.5 411Q112 477 170 514Q228 551 304 551ZM322 416Q276 416 246 398.5Q216 381 201 343Q186 305 186 245L186 239Q186 206 190 179Q194 152 201 129Q217 125 233.5 124Q250 123 273 123Q321 123 352 136Q383 149 398.5 178Q414 207 414 253L414 260Q414 304 408.5 340.5Q403 377 393 408Q379 413 362.5 414.5Q346 416 322 416Z" transform="translate(299.67 1251.86) scale(0.03588 -0.03588)"/></g><g fill="#5F5650" aria-label="gatopago.com"><path d="M103 79Q103 101 111 119.5Q119 138 136 152Q153 166 178 174L178 204L238 182Q233 166 230 150Q227 134 227 116Q227 102 233 96.5Q239 91 252 91L386 91Q444 91 481.5 71Q519 51 538 16Q557 -19 557 -64L557 -99Q557 -132 546 -160Q535 -188 513 -208Q491 -228 458.5 -239Q426 -250 383 -250L183 -250Q131 -250 96.5 -236Q62 -222 44.5 -196Q27 -170 27 -132L27 -114Q27 -84 39.5 -60.5Q52 -37 75 -21.5Q98 -6 129 -1L129 35L200 -10Q181 -14 170 -24Q159 -34 154 -47.5Q149 -61 149 -77L149 -106Q149 -124 155 -136Q161 -148 174.5 -154Q188 -160 210 -160L373 -160Q389 -160 401 -155.5Q413 -151 420 -144Q428 -136 431 -124Q434 -112 434 -98L434 -72Q434 -43 420.5 -29Q407 -15 373 -15L195 -15Q171 -15 150 -2.5Q129 10 116 31.5Q103 53 103 79ZM340 446L431 452L431 426Q466 414 482 391.5Q498 369 498 335L498 318Q498 274 473 242Q448 210 399 192.5Q350 175 277 175Q205 175 154.5 195.5Q104 216 78 254.5Q52 293 52 346L52 368Q52 423 78 462.5Q104 502 154.5 523.5Q205 545 277 545Q345 545 413.5 545Q482 545 550 545Q550 522 550 498.5Q550 475 550 452Q550 448 547 444.5Q544 441 539 441Q496 441 454 441Q412 441 369 441Q326 441 277 441Q227 441 199.5 421.5Q172 402 172 364L172 345Q172 330 176.5 318Q181 306 191 297Q204 284 225.5 277Q247 270 277 270Q328 270 353 290Q378 310 378 348L378 370Q378 386 374.5 398.5Q371 411 363 422.5Q355 434 340 446Z" transform="translate(823.90 1248.18) scale(0.02200 -0.02200)"/><path d="M506 343Q506 318 506 293Q506 268 506 242.5Q506 217 506 191.5Q506 166 506 142Q506 133 508 126Q510 119 514 115Q518 111 523.5 109.5Q529 108 538 108Q540 108 542.5 108Q545 108 548 108L566 108Q566 83 566 59Q566 35 566 11Q566 6 563 3Q560 0 555 0Q550 0 533 0Q516 0 503 0Q476 0 454.5 8.5Q433 17 416.5 32.5Q400 48 391.5 71Q383 94 383 122Q383 154 383 187.5Q383 221 383 253Q383 270 383 285.5Q383 301 383 317Q383 333 383 349Q383 381 372.5 399Q362 417 338 424.5Q314 432 274 432Q246 432 219 429.5Q192 427 167 421.5Q142 416 116 407L98 407Q98 431 98 456Q98 481 98 504Q98 508 99 510Q100 512 101 513Q107 519 134 527Q161 535 198.5 540.5Q236 546 274 546Q335 546 379 535Q423 524 451 499.5Q479 475 492.5 436.5Q506 398 506 343ZM183 149Q183 125 196.5 112.5Q210 100 238 100Q267 100 294 107Q321 114 347.5 130Q374 146 401 172L401 86L372 86Q357 55 333.5 33.5Q310 12 278.5 1Q247 -10 209 -10Q163 -10 129.5 8Q96 26 77.5 58Q59 90 59 133L59 168Q59 200 70 226.5Q81 253 101.5 272Q122 291 151 301Q180 311 216 311Q251 311 284 311Q317 311 348 311Q379 311 408 311Q417 311 421 296.5Q425 282 426 264Q427 246 427 232Q394 232 363.5 232Q333 232 302 232Q271 232 238 232Q224 232 213.5 228.5Q203 225 196 218Q190 212 186.5 203Q183 194 183 183Z" transform="translate(837.98 1248.18) scale(0.02200 -0.02200)"/><path d="M66 536L489 536Q494 536 497 533Q500 530 500 525Q500 508 500 492.5Q500 477 500 461.5Q500 446 500 429L77 429Q74 429 72 429.5Q70 430 68.5 431.5Q67 433 66.5 435Q66 437 66 440Q66 457 66 472.5Q66 488 66 503.5Q66 519 66 536ZM500 110Q500 85 500 60.5Q500 36 500 11Q500 6 497.5 3Q495 0 489 0Q486 0 476.5 0Q467 0 454 0Q441 0 427.5 0Q414 0 403 0Q354 0 313.5 11.5Q273 23 244.5 48Q216 73 201 113Q186 153 186 211Q186 260 186 309Q186 358 186 406Q186 454 186 502.5Q186 551 186 600Q186 625 186 650Q186 675 186 700Q215 700 243 700Q271 700 299 700Q303 700 305 698.5Q307 697 308.5 695Q310 693 310 689Q310 630 310 570.5Q310 511 310 452Q310 393 310 333.5Q310 274 310 214Q310 184 315.5 163.5Q321 143 334 131Q345 120 363.5 115Q382 110 408 110Q421 110 433 110Q445 110 457.5 110Q470 110 482 110Z" transform="translate(852.06 1248.18) scale(0.02200 -0.02200)"/><path d="M300 548Q353 548 397 531.5Q441 515 472.5 484.5Q504 454 521.5 413Q539 372 539 321L539 217Q539 150 508.5 98Q478 46 424 17.5Q370 -11 300 -11Q247 -11 203 5.5Q159 22 127.5 52Q96 82 78.5 123.5Q61 165 61 215L61 319Q61 387 91.5 438.5Q122 490 176.5 519Q231 548 300 548ZM302 436Q265 436 239 421Q213 406 199 378.5Q185 351 185 314L185 222Q185 193 193.5 170Q202 147 217 131Q231 117 252 109Q273 101 298 101Q335 101 361.5 116Q388 131 401.5 158.5Q415 186 415 222L415 314Q415 346 407.5 369Q400 392 384 407Q370 422 349.5 429Q329 436 302 436Z" transform="translate(866.14 1248.18) scale(0.02200 -0.02200)"/><path d="M81 536Q100 536 118.5 536Q137 536 155.5 536Q174 536 193 536Q197 536 199 534.5Q201 533 202.5 531Q204 529 204 525Q204 435 204 344Q204 253 204 162.5Q204 72 204 -19Q204 -110 204 -200Q185 -200 166.5 -200Q148 -200 129.5 -200Q111 -200 92 -200Q89 -200 86.5 -198.5Q84 -197 82.5 -194.5Q81 -192 81 -189Q81 -111 81 -33Q81 45 81 123.5Q81 202 81 280Q81 358 81 436Q81 463 81 488Q81 513 81 536ZM372 548Q423 548 460.5 525Q498 502 519 458Q540 414 540 353L540 187Q540 141 528 104.5Q516 68 494 42.5Q472 17 440.5 3.5Q409 -10 371 -10Q341 -10 313 0Q285 10 262 28.5Q239 47 221 71L191 71L191 176Q220 142 257 125.5Q294 109 331 109Q359 109 377.5 120.5Q396 132 406 154Q416 176 416 207L416 333Q416 359 410 377.5Q404 396 393 407Q382 418 366.5 423.5Q351 429 332 429Q309 429 284 418Q259 407 236 386Q213 365 192 334L192 454L221 454Q237 484 260.5 504.5Q284 525 312 536.5Q340 548 372 548Z" transform="translate(880.22 1248.18) scale(0.02200 -0.02200)"/><path d="M506 343Q506 318 506 293Q506 268 506 242.5Q506 217 506 191.5Q506 166 506 142Q506 133 508 126Q510 119 514 115Q518 111 523.5 109.5Q529 108 538 108Q540 108 542.5 108Q545 108 548 108L566 108Q566 83 566 59Q566 35 566 11Q566 6 563 3Q560 0 555 0Q550 0 533 0Q516 0 503 0Q476 0 454.5 8.5Q433 17 416.5 32.5Q400 48 391.5 71Q383 94 383 122Q383 154 383 187.5Q383 221 383 253Q383 270 383 285.5Q383 301 383 317Q383 333 383 349Q383 381 372.5 399Q362 417 338 424.5Q314 432 274 432Q246 432 219 429.5Q192 427 167 421.5Q142 416 116 407L98 407Q98 431 98 456Q98 481 98 504Q98 508 99 510Q100 512 101 513Q107 519 134 527Q161 535 198.5 540.5Q236 546 274 546Q335 546 379 535Q423 524 451 499.5Q479 475 492.5 436.5Q506 398 506 343ZM183 149Q183 125 196.5 112.5Q210 100 238 100Q267 100 294 107Q321 114 347.5 130Q374 146 401 172L401 86L372 86Q357 55 333.5 33.5Q310 12 278.5 1Q247 -10 209 -10Q163 -10 129.5 8Q96 26 77.5 58Q59 90 59 133L59 168Q59 200 70 226.5Q81 253 101.5 272Q122 291 151 301Q180 311 216 311Q251 311 284 311Q317 311 348 311Q379 311 408 311Q417 311 421 296.5Q425 282 426 264Q427 246 427 232Q394 232 363.5 232Q333 232 302 232Q271 232 238 232Q224 232 213.5 228.5Q203 225 196 218Q190 212 186.5 203Q183 194 183 183Z" transform="translate(894.30 1248.18) scale(0.02200 -0.02200)"/><path d="M103 79Q103 101 111 119.5Q119 138 136 152Q153 166 178 174L178 204L238 182Q233 166 230 150Q227 134 227 116Q227 102 233 96.5Q239 91 252 91L386 91Q444 91 481.5 71Q519 51 538 16Q557 -19 557 -64L557 -99Q557 -132 546 -160Q535 -188 513 -208Q491 -228 458.5 -239Q426 -250 383 -250L183 -250Q131 -250 96.5 -236Q62 -222 44.5 -196Q27 -170 27 -132L27 -114Q27 -84 39.5 -60.5Q52 -37 75 -21.5Q98 -6 129 -1L129 35L200 -10Q181 -14 170 -24Q159 -34 154 -47.5Q149 -61 149 -77L149 -106Q149 -124 155 -136Q161 -148 174.5 -154Q188 -160 210 -160L373 -160Q389 -160 401 -155.5Q413 -151 420 -144Q428 -136 431 -124Q434 -112 434 -98L434 -72Q434 -43 420.5 -29Q407 -15 373 -15L195 -15Q171 -15 150 -2.5Q129 10 116 31.5Q103 53 103 79ZM340 446L431 452L431 426Q466 414 482 391.5Q498 369 498 335L498 318Q498 274 473 242Q448 210 399 192.5Q350 175 277 175Q205 175 154.5 195.5Q104 216 78 254.5Q52 293 52 346L52 368Q52 423 78 462.5Q104 502 154.5 523.5Q205 545 277 545Q345 545 413.5 545Q482 545 550 545Q550 522 550 498.5Q550 475 550 452Q550 448 547 444.5Q544 441 539 441Q496 441 454 441Q412 441 369 441Q326 441 277 441Q227 441 199.5 421.5Q172 402 172 364L172 345Q172 330 176.5 318Q181 306 191 297Q204 284 225.5 277Q247 270 277 270Q328 270 353 290Q378 310 378 348L378 370Q378 386 374.5 398.5Q371 411 363 422.5Q355 434 340 446Z" transform="translate(908.38 1248.18) scale(0.02200 -0.02200)"/><path d="M300 548Q353 548 397 531.5Q441 515 472.5 484.5Q504 454 521.5 413Q539 372 539 321L539 217Q539 150 508.5 98Q478 46 424 17.5Q370 -11 300 -11Q247 -11 203 5.5Q159 22 127.5 52Q96 82 78.5 123.5Q61 165 61 215L61 319Q61 387 91.5 438.5Q122 490 176.5 519Q231 548 300 548ZM302 436Q265 436 239 421Q213 406 199 378.5Q185 351 185 314L185 222Q185 193 193.5 170Q202 147 217 131Q231 117 252 109Q273 101 298 101Q335 101 361.5 116Q388 131 401.5 158.5Q415 186 415 222L415 314Q415 346 407.5 369Q400 392 384 407Q370 422 349.5 429Q329 436 302 436Z" transform="translate(922.46 1248.18) scale(0.02200 -0.02200)"/><path d="M390 -9Q364 -9 335 -9Q306 -9 277 -9Q248 -9 221 -9Q218 -9 215.5 -7.5Q213 -6 211.5 -3.5Q210 -1 210 2L210 171Q237 171 266 171Q295 171 324 171Q353 171 379 171Q383 171 385 169.5Q387 168 388.5 166Q390 164 390 160Z" transform="translate(936.54 1248.18) scale(0.02200 -0.02200)"/><path d="M334 548Q379 548 416.5 540.5Q454 533 478.5 523.5Q503 514 511 506Q513 505 513.5 502Q514 499 514 497Q514 471 514 446Q514 421 514 396L496 396Q459 413 422 422.5Q385 432 341 432Q295 432 264 419.5Q233 407 217.5 378Q202 349 202 304L202 230Q202 200 209.5 177Q217 154 233 137Q250 122 276 113.5Q302 105 340 105Q370 105 396 109Q422 113 446.5 121Q471 129 496 141L514 141Q514 115 514 89.5Q514 64 514 39Q514 37 513.5 35Q513 33 511 31Q502 22 477 12Q452 2 414 -4.5Q376 -11 330 -11Q269 -11 222.5 6Q176 23 142.5 54Q109 85 91.5 127.5Q74 170 74 222L74 312Q74 384 105.5 436.5Q137 489 195 518.5Q253 548 334 548Z" transform="translate(950.62 1248.18) scale(0.02200 -0.02200)"/><path d="M300 548Q353 548 397 531.5Q441 515 472.5 484.5Q504 454 521.5 413Q539 372 539 321L539 217Q539 150 508.5 98Q478 46 424 17.5Q370 -11 300 -11Q247 -11 203 5.5Q159 22 127.5 52Q96 82 78.5 123.5Q61 165 61 215L61 319Q61 387 91.5 438.5Q122 490 176.5 519Q231 548 300 548ZM302 436Q265 436 239 421Q213 406 199 378.5Q185 351 185 314L185 222Q185 193 193.5 170Q202 147 217 131Q231 117 252 109Q273 101 298 101Q335 101 361.5 116Q388 131 401.5 158.5Q415 186 415 222L415 314Q415 346 407.5 369Q400 392 384 407Q370 422 349.5 429Q329 436 302 436Z" transform="translate(964.70 1248.18) scale(0.02200 -0.02200)"/><path d="M562 0Q546 0 528.5 0Q511 0 494.5 0Q478 0 462 0Q459 0 456.5 1.5Q454 3 452.5 5Q451 7 451 11Q451 49 451 86.5Q451 124 451 162Q451 200 451 238Q451 276 451 314Q451 352 451 390Q451 410 442.5 418Q434 426 420 426Q407 426 393.5 420Q380 414 366.5 402Q353 390 337 369L319 461L367 461Q380 489 395 508Q410 527 429 537.5Q448 548 473 548Q493 548 509.5 541Q526 534 537.5 522Q549 510 555.5 491.5Q562 473 562 450Q562 406 562 362Q562 318 562 274.5Q562 231 562 187Q562 143 562 100Q562 75 562 50Q562 25 562 0ZM349 0Q334 0 319 0Q304 0 289.5 0Q275 0 262 0Q259 0 256.5 1.5Q254 3 252.5 5Q251 7 251 11Q251 49 251 87Q251 125 251 162.5Q251 200 251 238.5Q251 277 251 314.5Q251 352 251 390Q251 405 247.5 412Q244 419 237.5 422.5Q231 426 219 426Q208 426 194 420Q180 414 166 401.5Q152 389 135 368L113 461L155 461Q167 490 182 509.5Q197 529 217.5 538.5Q238 548 263 548Q282 548 297.5 541.5Q313 535 325 522Q337 509 343 491Q349 473 349 450Q349 415 349 370Q349 325 349 270Q349 215 349 148Q349 81 349 0ZM149 0Q136 0 123.5 0Q111 0 98.5 0Q86 0 73.5 0Q61 0 49 0Q46 0 44 0.5Q42 1 40.5 2.5Q39 4 38.5 6Q38 8 38 11Q38 82 38 153Q38 224 38 295Q38 366 38 436Q38 464 38 489.5Q38 515 38 536Q48 536 57.5 536Q67 536 77 536Q87 536 97 536Q107 536 117 536Q117 536 122 519.5Q127 503 133 481.5Q139 460 144 443Q149 426 149 426Q149 361 149 290.5Q149 220 149 147Q149 74 149 0Z" transform="translate(978.78 1248.18) scale(0.02200 -0.02200)"/></g></svg>
