<svg xmlns="http://www.w3.org/2000/svg" width="1080" height="1920" viewBox="0 0 1080 1920" role="img" aria-label="Fondo para historia"><rect x="0" y="0" width="1080" height="1920" fill="#0B0B0F" /><rect x="931.98" y="0" width="60" height="12" fill="#F85239" /><rect x="913.98" y="0" width="18" height="12" fill="#9F292E" /><rect x="88.02000000000001" y="220" width="903.96" height="14" fill="#F85239" /><rect x="88.02000000000001" y="1504" width="903.96" height="14" fill="#F85239" /><rect x="78.02000000000001" y="1614" width="80" height="66" fill="#FFF8F0" /><g transform="translate(88.02000000000001 1624) scale(2)" shape-rendering="crispEdges">
  <path fill="#0B0B0F" d="M3 0h4v1h-4zM23 0h4v1h-4zM2 1h1v1h-1zM7 1h2v1h-2zM21 1h2v1h-2zM27 1h1v1h-1zM2 2h1v1h-1zM9 2h1v1h-1zM20 2h1v1h-1zM27 2h1v1h-1zM2 3h1v1h-1zM10 3h1v1h-1zM19 3h1v1h-1zM27 3h1v1h-1zM2 4h1v1h-1zM11 4h8v1h-8zM27 4h1v1h-1zM2 5h1v1h-1zM27 5h1v1h-1zM2 6h1v1h-1zM27 6h1v1h-1zM2 7h1v1h-1zM27 7h1v1h-1zM2 8h1v1h-1zM27 8h1v1h-1zM3 9h1v1h-1zM26 9h1v1h-1zM3 10h1v1h-1zM26 10h1v1h-1zM2 11h1v1h-1zM27 11h1v1h-1zM2 12h1v1h-1zM8 12h2v1h-2zM20 12h2v1h-2zM27 12h1v1h-1zM2 13h1v1h-1zM8 13h2v1h-2zM20 13h2v1h-2zM27 13h1v1h-1zM0 14h5v1h-5zM8 14h2v1h-2zM20 14h2v1h-2zM25 14h5v1h-5zM2 15h1v1h-1zM27 15h1v1h-1zM2 16h3v1h-3zM25 16h3v1h-3zM1 17h3v1h-3zM11 17h1v1h-1zM14 17h2v1h-2zM18 17h1v1h-1zM26 17h3v1h-3zM4 18h1v1h-1zM12 18h2v1h-2zM16 18h2v1h-2zM25 18h1v1h-1zM5 19h1v1h-1zM24 19h1v1h-1zM6 20h1v1h-1zM23 20h1v1h-1zM7 21h2v1h-2zM21 21h2v1h-2zM9 22h12v1h-12z"/>
  <path fill="#F85239" d="M3 1h4v1h-4zM23 1h4v1h-4zM3 2h1v1h-1zM5 2h4v1h-4zM21 2h4v1h-4zM26 2h1v1h-1zM3 3h1v1h-1zM6 3h4v1h-4zM20 3h4v1h-4zM26 3h1v1h-1zM3 4h1v1h-1zM7 4h4v1h-4zM19 4h4v1h-4zM26 4h1v1h-1zM3 5h1v1h-1zM8 5h3v1h-3zM13 5h1v1h-1zM16 5h1v1h-1zM19 5h3v1h-3zM26 5h1v1h-1zM3 6h1v1h-1zM7 6h5v1h-5zM13 6h1v1h-1zM16 6h1v1h-1zM18 6h5v1h-5zM26 6h1v1h-1zM3 7h1v1h-1zM6 7h6v1h-6zM13 7h1v1h-1zM16 7h1v1h-1zM18 7h6v1h-6zM26 7h1v1h-1zM3 8h1v1h-1zM5 8h9v1h-9zM16 8h9v1h-9zM26 8h1v1h-1zM4 9h22v1h-22zM4 10h22v1h-22zM3 11h24v1h-24zM3 12h5v1h-5zM10 12h10v1h-10zM22 12h5v1h-5zM3 13h5v1h-5zM10 13h10v1h-10zM22 13h5v1h-5zM5 14h3v1h-3zM10 14h10v1h-10zM22 14h3v1h-3zM3 15h10v1h-10zM17 15h10v1h-10zM5 16h9v1h-9zM16 16h9v1h-9zM4 17h7v1h-7zM12 17h2v1h-2zM16 17h2v1h-2zM19 17h7v1h-7zM6 18h6v1h-6zM14 18h2v1h-2zM18 18h6v1h-6zM7 19h16v1h-16zM8 20h14v1h-14zM10 21h10v1h-10z"/>
  <path fill="#CF3433" d="M4 2h1v1h-1zM25 2h1v1h-1zM4 3h2v1h-2zM24 3h2v1h-2zM4 4h3v1h-3zM23 4h3v1h-3zM4 5h4v1h-4zM11 5h2v1h-2zM14 5h2v1h-2zM17 5h2v1h-2zM22 5h4v1h-4zM4 6h3v1h-3zM12 6h1v1h-1zM14 6h2v1h-2zM17 6h1v1h-1zM23 6h3v1h-3zM4 7h2v1h-2zM12 7h1v1h-1zM14 7h2v1h-2zM17 7h1v1h-1zM24 7h2v1h-2zM4 8h1v1h-1zM14 8h2v1h-2zM25 8h1v1h-1zM13 15h4v1h-4zM14 16h2v1h-2zM5 18h1v1h-1zM24 18h1v1h-1zM6 19h1v1h-1zM23 19h1v1h-1zM7 20h1v1h-1zM22 20h1v1h-1zM9 21h1v1h-1zM20 21h1v1h-1z"/>
</g><g fill="#FFF8F0" aria-label="GatoPago"><path d="M359 352L549 352Q574 352 588.5 341Q603 330 608.5 305.5Q614 281 614 236L614 227L504 227Q463 227 434.5 233Q406 239 388.5 251Q371 263 363.5 281.5Q356 300 356 326Q356 333 357 340.5Q358 348 359 352ZM377 720Q398 720 416.5 717.5Q435 715 451 709.5Q467 704 481 695Q495 686 508 674Q536 645 550 613Q564 581 564 534Q564 522 564 509Q564 496 564 483.5Q564 471 564 460Q554 456 538 453.5Q522 451 502 451Q462 451 440.5 464Q419 477 419 507Q419 525 420.5 540Q422 555 425.5 573Q429 591 437 613L437 578Q428 584 417 585.5Q406 587 395 587Q350 587 314 563.5Q278 540 251 499.5Q224 459 210 406.5Q196 354 196 293L196 276Q196 259 196.5 240Q197 221 198 207Q218 163 255.5 144Q293 125 358 125Q398 125 425.5 135.5Q453 146 468 165.5Q483 185 482 212Q482 220 481.5 225.5Q481 231 480.5 236.5Q480 242 478 247L567 247L556 222Q572 210 578 192.5Q584 175 584 146Q584 111 570.5 85.5Q557 60 536 41Q519 24 490.5 10.5Q462 -3 426 -11.5Q390 -20 349 -20Q277 -20 222 1Q167 22 129 61Q91 100 71.5 154Q52 208 52 274L52 292Q52 382 75.5 460Q99 538 142.5 596.5Q186 655 246 687.5Q306 720 377 720Z" transform="translate(178.02 1659.88) scale(0.03588 -0.03588)"/><path d="M513 353Q513 333 513 312Q513 291 513 270.5Q513 250 513 229.5Q513 209 513 187Q513 175 513 164Q513 153 513 141Q516 139 522 137.5Q528 136 533 136Q543 136 554 139.5Q565 143 575 152L581 152Q582 145 582.5 140.5Q583 136 583 128Q583 99 573 69.5Q563 40 547 24Q530 7 514.5 0.5Q499 -6 483 -6Q457 -6 434 8.5Q411 23 394.5 47Q378 71 368.5 98.5Q359 126 359 150Q359 170 359 191Q359 212 359 231Q359 252 361.5 276Q364 300 369 329Q374 358 381 392Q362 400 344 404.5Q326 409 306 410Q286 411 262 411Q232 411 206.5 409Q181 407 157 402.5Q133 398 107 391L102 391Q100 400 98.5 412.5Q97 425 97 437Q97 460 103.5 481Q110 502 124 516Q136 527 155.5 534.5Q175 542 209 545.5Q243 549 297 549Q348 549 388.5 531Q429 513 456.5 484.5Q484 456 498.5 422Q513 388 513 353ZM199 158Q199 132 209 123Q219 114 250 114Q270 114 290.5 120.5Q311 127 332.5 141Q354 155 372 178L379 96L364 96Q353 70 328 45.5Q303 21 270.5 5.5Q238 -10 201 -10Q151 -10 116.5 7.5Q82 25 64 60.5Q46 96 46 149L46 156Q46 183 60.5 210.5Q75 238 100 262Q125 286 156.5 300.5Q188 315 223 315Q266 315 303 310.5Q340 306 366.5 297.5Q393 289 406 277Q412 271 417 261.5Q422 252 425.5 239Q429 226 429 207Q401 214 373 217.5Q345 221 317.5 223.5Q290 226 267 226Q249 226 234.5 223.5Q220 221 206 216Q203 201 201 187.5Q199 174 199 159Z" transform="translate(199.73 1659.88) scale(0.03588 -0.03588)"/><path d="M26 539L380 539Q420 539 435 521Q450 503 450 455Q450 444 449 433.5Q448 423 446.5 413.5Q445 404 443 395L190 395Q141 395 108.5 402Q76 409 57 423.5Q38 438 30.5 460Q23 482 23 514Q23 518 23.5 523Q24 528 24.5 532Q25 536 26 539ZM444 161Q446 152 447 143Q448 134 448 125Q448 89 441 63.5Q434 38 421 22Q414 13 404 6.5Q394 0 380 -4Q366 -8 348 -10Q330 -12 307 -12Q270 -12 236.5 0.5Q203 13 178.5 36Q154 59 140 91Q126 123 126 162Q126 218 126 273.5Q126 329 126 384.5Q126 440 126 495.5Q126 551 126 606Q126 629 124 653Q122 677 114 700Q132 705 148.5 707.5Q165 710 181 710Q206 710 226 699.5Q246 689 258 667.5Q270 646 270 612Q270 557 270 502.5Q270 448 270 393.5Q270 339 270 284.5Q270 230 270 175Q270 166 271 157Q272 148 275 140Q286 135 296.5 133Q307 131 323 131Q343 131 363 134.5Q383 138 402 144.5Q421 151 439 161Z" transform="translate(218.56 1659.88) scale(0.03588 -0.03588)"/><path d="M304 551Q354 551 398.5 533Q443 515 477.5 478.5Q512 442 532.5 386.5Q553 331 553 255L553 241Q553 166 520.5 109Q488 52 430 20Q372 -12 295 -12Q244 -12 199.5 3.5Q155 19 121 50Q87 81 67 129Q47 177 47 243L47 256Q47 345 79.5 411Q112 477 170 514Q228 551 304 551ZM322 416Q276 416 246 398.5Q216 381 201 343Q186 305 186 245L186 239Q186 206 190 179Q194 152 201 129Q217 125 233.5 124Q250 123 273 123Q321 123 352 136Q383 149 398.5 178Q414 207 414 253L414 260Q414 304 408.5 340.5Q403 377 393 408Q379 413 362.5 414.5Q346 416 322 416Z" transform="translate(234.89 1659.88) scale(0.03588 -0.03588)"/><path d="M241 0Q229 -3 217.5 -4.5Q206 -6 189 -6Q131 -6 103.5 19Q76 44 76 100Q76 162 76 224Q76 286 76 348Q76 410 76 472Q76 534 76 597L204 597L193 567Q213 554 221.5 532.5Q230 511 230 480Q230 415 230 351.5Q230 288 230 224.5Q230 161 230 96Q230 73 232 48Q234 23 241 0ZM23 700Q87 711 157.5 715.5Q228 720 294 720Q338 720 377.5 709Q417 698 448 677.5Q479 657 502 629Q525 601 536.5 568Q548 535 548 499L548 492Q548 408 529.5 345.5Q511 283 479.5 241.5Q448 200 407.5 180Q367 160 321 160Q295 160 273.5 174.5Q252 189 236 215L206 214L206 308Q224 303 242.5 300Q261 297 283 297Q309 297 329.5 307.5Q350 318 365 341Q380 364 388.5 400.5Q397 437 397 488L397 503Q397 517 395.5 529.5Q394 542 392 554Q371 565 345 570.5Q319 576 282 576Q226 576 179.5 571Q133 566 102 561Q71 556 60 556Q38 556 27.5 577.5Q17 599 17 646Q17 662 18.5 674.5Q20 687 23 700Z" transform="translate(254.80 1659.88) scale(0.03588 -0.03588)"/><path d="M513 353Q513 333 513 312Q513 291 513 270.5Q513 250 513 229.5Q513 209 513 187Q513 175 513 164Q513 153 513 141Q516 139 522 137.5Q528 136 533 136Q543 136 554 139.5Q565 143 575 152L581 152Q582 145 582.5 140.5Q583 136 583 128Q583 99 573 69.5Q563 40 547 24Q530 7 514.5 0.5Q499 -6 483 -6Q457 -6 434 8.5Q411 23 394.5 47Q378 71 368.5 98.5Q359 126 359 150Q359 170 359 191Q359 212 359 231Q359 252 361.5 276Q364 300 369 329Q374 358 381 392Q362 400 344 404.5Q326 409 306 410Q286 411 262 411Q232 411 206.5 409Q181 407 157 402.5Q133 398 107 391L102 391Q100 400 98.5 412.5Q97 425 97 437Q97 460 103.5 481Q110 502 124 516Q136 527 155.5 534.5Q175 542 209 545.5Q243 549 297 549Q348 549 388.5 531Q429 513 456.5 484.5Q484 456 498.5 422Q513 388 513 353ZM199 158Q199 132 209 123Q219 114 250 114Q270 114 290.5 120.5Q311 127 332.5 141Q354 155 372 178L379 96L364 96Q353 70 328 45.5Q303 21 270.5 5.5Q238 -10 201 -10Q151 -10 116.5 7.5Q82 25 64 60.5Q46 96 46 149L46 156Q46 183 60.5 210.5Q75 238 100 262Q125 286 156.5 300.5Q188 315 223 315Q266 315 303 310.5Q340 306 366.5 297.5Q393 289 406 277Q412 271 417 261.5Q422 252 425.5 239Q429 226 429 207Q401 214 373 217.5Q345 221 317.5 223.5Q290 226 267 226Q249 226 234.5 223.5Q220 221 206 216Q203 201 201 187.5Q199 174 199 159Z" transform="translate(273.28 1659.88) scale(0.03588 -0.03588)"/><path d="M129 64Q129 87 137 105.5Q145 124 161 139Q177 154 201 163L201 179L276 172Q267 158 264.5 143.5Q262 129 262 112Q262 97 271 87.5Q280 78 297 76L432 66Q469 64 498 49Q527 34 544 7.5Q561 -19 561 -57L561 -73Q561 -116 540 -148.5Q519 -181 478.5 -204Q438 -227 379 -238.5Q320 -250 244 -250L233 -250Q164 -250 116.5 -234Q69 -218 44.5 -189Q20 -160 20 -119L20 -106Q20 -77 35 -53.5Q50 -30 78.5 -15Q107 0 145 2L145 25L215 -14Q197 -24 185.5 -35.5Q174 -47 169 -60.5Q164 -74 164 -93L164 -104Q164 -124 172.5 -136Q181 -148 200.5 -152.5Q220 -157 250 -157L265 -157Q307 -157 343 -154.5Q379 -152 408 -145Q415 -136 417 -126Q419 -116 419 -106L419 -95Q419 -81 410.5 -72.5Q402 -64 387 -63L271 -54Q228 -50 196 -34Q164 -18 146.5 7.5Q129 33 129 64ZM328 441L427 436L427 411Q462 393 481 369.5Q500 346 500 313L500 302Q500 257 471.5 225Q443 193 394 176.5Q345 160 283 160Q215 159 161.5 180.5Q108 202 77.5 243.5Q47 285 47 342L47 352Q47 412 78 457Q109 502 169.5 527Q230 552 318 552Q383 552 434 550Q485 548 543 543Q546 536 548 522.5Q550 509 550 495Q550 459 538.5 436.5Q527 414 501 414Q482 414 458 417.5Q434 421 398 423.5Q362 426 308 426Q243 426 211 404Q179 382 179 337L179 328Q179 317 181.5 304.5Q184 292 191 280Q210 271 230.5 267.5Q251 264 283 264Q327 264 351.5 282Q376 300 376 332L376 343Q376 360 372 377Q368 394 358 410Q348 426 328 441Z" transform="translate(292.84 1659.88) scale(0.03588 -0.03588)"/><path d="M304 551Q354 551 398.5 533Q443 515 477.5 478.5Q512 442 532.5 386.5Q553 331 553 255L553 241Q553 166 520.5 109Q488 52 430 20Q372 -12 295 -12Q244 -12 199.5 3.5Q155 19 121 50Q87 81 67 129Q47 177 47 243L47 256Q47 345 79.5 411Q112 477 170 514Q228 551 304 551ZM322 416Q276 416 246 398.5Q216 381 201 343Q186 305 186 245L186 239Q186 206 190 179Q194 152 201 129Q217 125 233.5 124Q250 123 273 123Q321 123 352 136Q383 149 398.5 178Q414 207 414 253L414 260Q414 304 408.5 340.5Q403 377 393 408Q379 413 362.5 414.5Q346 416 322 416Z" transform="translate(311.67 1659.88) scale(0.03588 -0.03588)"/></g><g fill="#BDB4AA" aria-label="gatopago.com"><path d="M103 79Q103 101 111 119.5Q119 138 136 152Q153 166 178 174L178 204L238 182Q233 166 230 150Q227 134 227 116Q227 102 233 96.5Q239 91 252 91L386 91Q444 91 481.5 71Q519 51 538 16Q557 -19 557 -64L557 -99Q557 -132 546 -160Q535 -188 513 -208Q491 -228 458.5 -239Q426 -250 383 -250L183 -250Q131 -250 96.5 -236Q62 -222 44.5 -196Q27 -170 27 -132L27 -114Q27 -84 39.5 -60.5Q52 -37 75 -21.5Q98 -6 129 -1L129 35L200 -10Q181 -14 170 -24Q159 -34 154 -47.5Q149 -61 149 -77L149 -106Q149 -124 155 -136Q161 -148 174.5 -154Q188 -160 210 -160L373 -160Q389 -160 401 -155.5Q413 -151 420 -144Q428 -136 431 -124Q434 -112 434 -98L434 -72Q434 -43 420.5 -29Q407 -15 373 -15L195 -15Q171 -15 150 -2.5Q129 10 116 31.5Q103 53 103 79ZM340 446L431 452L431 426Q466 414 482 391.5Q498 369 498 335L498 318Q498 274 473 242Q448 210 399 192.5Q350 175 277 175Q205 175 154.5 195.5Q104 216 78 254.5Q52 293 52 346L52 368Q52 423 78 462.5Q104 502 154.5 523.5Q205 545 277 545Q345 545 413.5 545Q482 545 550 545Q550 522 550 498.5Q550 475 550 452Q550 448 547 444.5Q544 441 539 441Q496 441 454 441Q412 441 369 441Q326 441 277 441Q227 441 199.5 421.5Q172 402 172 364L172 345Q172 330 176.5 318Q181 306 191 297Q204 284 225.5 277Q247 270 277 270Q328 270 353 290Q378 310 378 348L378 370Q378 386 374.5 398.5Q371 411 363 422.5Q355 434 340 446Z" transform="translate(823.90 1656.20) scale(0.02200 -0.02200)"/><path d="M506 343Q506 318 506 293Q506 268 506 242.5Q506 217 506 191.5Q506 166 506 142Q506 133 508 126Q510 119 514 115Q518 111 523.5 109.5Q529 108 538 108Q540 108 542.5 108Q545 108 548 108L566 108Q566 83 566 59Q566 35 566 11Q566 6 563 3Q560 0 555 0Q550 0 533 0Q516 0 503 0Q476 0 454.5 8.5Q433 17 416.5 32.5Q400 48 391.5 71Q383 94 383 122Q383 154 383 187.5Q383 221 383 253Q383 270 383 285.5Q383 301 383 317Q383 333 383 349Q383 381 372.5 399Q362 417 338 424.5Q314 432 274 432Q246 432 219 429.5Q192 427 167 421.5Q142 416 116 407L98 407Q98 431 98 456Q98 481 98 504Q98 508 99 510Q100 512 101 513Q107 519 134 527Q161 535 198.5 540.5Q236 546 274 546Q335 546 379 535Q423 524 451 499.5Q479 475 492.5 436.5Q506 398 506 343ZM183 149Q183 125 196.5 112.5Q210 100 238 100Q267 100 294 107Q321 114 347.5 130Q374 146 401 172L401 86L372 86Q357 55 333.5 33.5Q310 12 278.5 1Q247 -10 209 -10Q163 -10 129.5 8Q96 26 77.5 58Q59 90 59 133L59 168Q59 200 70 226.5Q81 253 101.5 272Q122 291 151 301Q180 311 216 311Q251 311 284 311Q317 311 348 311Q379 311 408 311Q417 311 421 296.5Q425 282 426 264Q427 246 427 232Q394 232 363.5 232Q333 232 302 232Q271 232 238 232Q224 232 213.5 228.5Q203 225 196 218Q190 212 186.5 203Q183 194 183 183Z" transform="translate(837.98 1656.20) scale(0.02200 -0.02200)"/><path d="M66 536L489 536Q494 536 497 533Q500 530 500 525Q500 508 500 492.5Q500 477 500 461.5Q500 446 500 429L77 429Q74 429 72 429.5Q70 430 68.5 431.5Q67 433 66.5 435Q66 437 66 440Q66 457 66 472.5Q66 488 66 503.5Q66 519 66 536ZM500 110Q500 85 500 60.5Q500 36 500 11Q500 6 497.5 3Q495 0 489 0Q486 0 476.5 0Q467 0 454 0Q441 0 427.5 0Q414 0 403 0Q354 0 313.5 11.5Q273 23 244.5 48Q216 73 201 113Q186 153 186 211Q186 260 186 309Q186 358 186 406Q186 454 186 502.5Q186 551 186 600Q186 625 186 650Q186 675 186 700Q215 700 243 700Q271 700 299 700Q303 700 305 698.5Q307 697 308.5 695Q310 693 310 689Q310 630 310 570.5Q310 511 310 452Q310 393 310 333.5Q310 274 310 214Q310 184 315.5 163.5Q321 143 334 131Q345 120 363.5 115Q382 110 408 110Q421 110 433 110Q445 110 457.5 110Q470 110 482 110Z" transform="translate(852.06 1656.20) scale(0.02200 -0.02200)"/><path d="M300 548Q353 548 397 531.5Q441 515 472.5 484.5Q504 454 521.5 413Q539 372 539 321L539 217Q539 150 508.5 98Q478 46 424 17.5Q370 -11 300 -11Q247 -11 203 5.5Q159 22 127.5 52Q96 82 78.5 123.5Q61 165 61 215L61 319Q61 387 91.5 438.5Q122 490 176.5 519Q231 548 300 548ZM302 436Q265 436 239 421Q213 406 199 378.5Q185 351 185 314L185 222Q185 193 193.5 170Q202 147 217 131Q231 117 252 109Q273 101 298 101Q335 101 361.5 116Q388 131 401.5 158.5Q415 186 415 222L415 314Q415 346 407.5 369Q400 392 384 407Q370 422 349.5 429Q329 436 302 436Z" transform="translate(866.14 1656.20) scale(0.02200 -0.02200)"/><path d="M81 536Q100 536 118.5 536Q137 536 155.5 536Q174 536 193 536Q197 536 199 534.5Q201 533 202.5 531Q204 529 204 525Q204 435 204 344Q204 253 204 162.5Q204 72 204 -19Q204 -110 204 -200Q185 -200 166.5 -200Q148 -200 129.5 -200Q111 -200 92 -200Q89 -200 86.5 -198.5Q84 -197 82.5 -194.5Q81 -192 81 -189Q81 -111 81 -33Q81 45 81 123.5Q81 202 81 280Q81 358 81 436Q81 463 81 488Q81 513 81 536ZM372 548Q423 548 460.5 525Q498 502 519 458Q540 414 540 353L540 187Q540 141 528 104.5Q516 68 494 42.5Q472 17 440.5 3.5Q409 -10 371 -10Q341 -10 313 0Q285 10 262 28.5Q239 47 221 71L191 71L191 176Q220 142 257 125.5Q294 109 331 109Q359 109 377.5 120.5Q396 132 406 154Q416 176 416 207L416 333Q416 359 410 377.5Q404 396 393 407Q382 418 366.5 423.5Q351 429 332 429Q309 429 284 418Q259 407 236 386Q213 365 192 334L192 454L221 454Q237 484 260.5 504.5Q284 525 312 536.5Q340 548 372 548Z" transform="translate(880.22 1656.20) scale(0.02200 -0.02200)"/><path d="M506 343Q506 318 506 293Q506 268 506 242.5Q506 217 506 191.5Q506 166 506 142Q506 133 508 126Q510 119 514 115Q518 111 523.5 109.5Q529 108 538 108Q540 108 542.5 108Q545 108 548 108L566 108Q566 83 566 59Q566 35 566 11Q566 6 563 3Q560 0 555 0Q550 0 533 0Q516 0 503 0Q476 0 454.5 8.5Q433 17 416.5 32.5Q400 48 391.5 71Q383 94 383 122Q383 154 383 187.5Q383 221 383 253Q383 270 383 285.5Q383 301 383 317Q383 333 383 349Q383 381 372.5 399Q362 417 338 424.5Q314 432 274 432Q246 432 219 429.5Q192 427 167 421.5Q142 416 116 407L98 407Q98 431 98 456Q98 481 98 504Q98 508 99 510Q100 512 101 513Q107 519 134 527Q161 535 198.5 540.5Q236 546 274 546Q335 546 379 535Q423 524 451 499.5Q479 475 492.5 436.5Q506 398 506 343ZM183 149Q183 125 196.5 112.5Q210 100 238 100Q267 100 294 107Q321 114 347.5 130Q374 146 401 172L401 86L372 86Q357 55 333.5 33.5Q310 12 278.5 1Q247 -10 209 -10Q163 -10 129.5 8Q96 26 77.5 58Q59 90 59 133L59 168Q59 200 70 226.5Q81 253 101.5 272Q122 291 151 301Q180 311 216 311Q251 311 284 311Q317 311 348 311Q379 311 408 311Q417 311 421 296.5Q425 282 426 264Q427 246 427 232Q394 232 363.5 232Q333 232 302 232Q271 232 238 232Q224 232 213.5 228.5Q203 225 196 218Q190 212 186.5 203Q183 194 183 183Z" transform="translate(894.30 1656.20) scale(0.02200 -0.02200)"/><path d="M103 79Q103 101 111 119.5Q119 138 136 152Q153 166 178 174L178 204L238 182Q233 166 230 150Q227 134 227 116Q227 102 233 96.5Q239 91 252 91L386 91Q444 91 481.5 71Q519 51 538 16Q557 -19 557 -64L557 -99Q557 -132 546 -160Q535 -188 513 -208Q491 -228 458.5 -239Q426 -250 383 -250L183 -250Q131 -250 96.5 -236Q62 -222 44.5 -196Q27 -170 27 -132L27 -114Q27 -84 39.5 -60.5Q52 -37 75 -21.5Q98 -6 129 -1L129 35L200 -10Q181 -14 170 -24Q159 -34 154 -47.5Q149 -61 149 -77L149 -106Q149 -124 155 -136Q161 -148 174.5 -154Q188 -160 210 -160L373 -160Q389 -160 401 -155.5Q413 -151 420 -144Q428 -136 431 -124Q434 -112 434 -98L434 -72Q434 -43 420.5 -29Q407 -15 373 -15L195 -15Q171 -15 150 -2.5Q129 10 116 31.5Q103 53 103 79ZM340 446L431 452L431 426Q466 414 482 391.5Q498 369 498 335L498 318Q498 274 473 242Q448 210 399 192.5Q350 175 277 175Q205 175 154.5 195.5Q104 216 78 254.5Q52 293 52 346L52 368Q52 423 78 462.5Q104 502 154.5 523.5Q205 545 277 545Q345 545 413.5 545Q482 545 550 545Q550 522 550 498.5Q550 475 550 452Q550 448 547 444.5Q544 441 539 441Q496 441 454 441Q412 441 369 441Q326 441 277 441Q227 441 199.5 421.5Q172 402 172 364L172 345Q172 330 176.5 318Q181 306 191 297Q204 284 225.5 277Q247 270 277 270Q328 270 353 290Q378 310 378 348L378 370Q378 386 374.5 398.5Q371 411 363 422.5Q355 434 340 446Z" transform="translate(908.38 1656.20) scale(0.02200 -0.02200)"/><path d="M300 548Q353 548 397 531.5Q441 515 472.5 484.5Q504 454 521.5 413Q539 372 539 321L539 217Q539 150 508.5 98Q478 46 424 17.5Q370 -11 300 -11Q247 -11 203 5.5Q159 22 127.5 52Q96 82 78.5 123.5Q61 165 61 215L61 319Q61 387 91.5 438.5Q122 490 176.5 519Q231 548 300 548ZM302 436Q265 436 239 421Q213 406 199 378.5Q185 351 185 314L185 222Q185 193 193.5 170Q202 147 217 131Q231 117 252 109Q273 101 298 101Q335 101 361.5 116Q388 131 401.5 158.5Q415 186 415 222L415 314Q415 346 407.5 369Q400 392 384 407Q370 422 349.5 429Q329 436 302 436Z" transform="translate(922.46 1656.20) scale(0.02200 -0.02200)"/><path d="M390 -9Q364 -9 335 -9Q306 -9 277 -9Q248 -9 221 -9Q218 -9 215.5 -7.5Q213 -6 211.5 -3.5Q210 -1 210 2L210 171Q237 171 266 171Q295 171 324 171Q353 171 379 171Q383 171 385 169.5Q387 168 388.5 166Q390 164 390 160Z" transform="translate(936.54 1656.20) scale(0.02200 -0.02200)"/><path d="M334 548Q379 548 416.5 540.5Q454 533 478.5 523.5Q503 514 511 506Q513 505 513.5 502Q514 499 514 497Q514 471 514 446Q514 421 514 396L496 396Q459 413 422 422.5Q385 432 341 432Q295 432 264 419.5Q233 407 217.5 378Q202 349 202 304L202 230Q202 200 209.5 177Q217 154 233 137Q250 122 276 113.5Q302 105 340 105Q370 105 396 109Q422 113 446.5 121Q471 129 496 141L514 141Q514 115 514 89.5Q514 64 514 39Q514 37 513.5 35Q513 33 511 31Q502 22 477 12Q452 2 414 -4.5Q376 -11 330 -11Q269 -11 222.5 6Q176 23 142.5 54Q109 85 91.5 127.5Q74 170 74 222L74 312Q74 384 105.5 436.5Q137 489 195 518.5Q253 548 334 548Z" transform="translate(950.62 1656.20) scale(0.02200 -0.02200)"/><path d="M300 548Q353 548 397 531.5Q441 515 472.5 484.5Q504 454 521.5 413Q539 372 539 321L539 217Q539 150 508.5 98Q478 46 424 17.5Q370 -11 300 -11Q247 -11 203 5.5Q159 22 127.5 52Q96 82 78.5 123.5Q61 165 61 215L61 319Q61 387 91.5 438.5Q122 490 176.5 519Q231 548 300 548ZM302 436Q265 436 239 421Q213 406 199 378.5Q185 351 185 314L185 222Q185 193 193.5 170Q202 147 217 131Q231 117 252 109Q273 101 298 101Q335 101 361.5 116Q388 131 401.5 158.5Q415 186 415 222L415 314Q415 346 407.5 369Q400 392 384 407Q370 422 349.5 429Q329 436 302 436Z" transform="translate(964.70 1656.20) scale(0.02200 -0.02200)"/><path d="M562 0Q546 0 528.5 0Q511 0 494.5 0Q478 0 462 0Q459 0 456.5 1.5Q454 3 452.5 5Q451 7 451 11Q451 49 451 86.5Q451 124 451 162Q451 200 451 238Q451 276 451 314Q451 352 451 390Q451 410 442.5 418Q434 426 420 426Q407 426 393.5 420Q380 414 366.5 402Q353 390 337 369L319 461L367 461Q380 489 395 508Q410 527 429 537.5Q448 548 473 548Q493 548 509.5 541Q526 534 537.5 522Q549 510 555.5 491.5Q562 473 562 450Q562 406 562 362Q562 318 562 274.5Q562 231 562 187Q562 143 562 100Q562 75 562 50Q562 25 562 0ZM349 0Q334 0 319 0Q304 0 289.5 0Q275 0 262 0Q259 0 256.5 1.5Q254 3 252.5 5Q251 7 251 11Q251 49 251 87Q251 125 251 162.5Q251 200 251 238.5Q251 277 251 314.5Q251 352 251 390Q251 405 247.5 412Q244 419 237.5 422.5Q231 426 219 426Q208 426 194 420Q180 414 166 401.5Q152 389 135 368L113 461L155 461Q167 490 182 509.5Q197 529 217.5 538.5Q238 548 263 548Q282 548 297.5 541.5Q313 535 325 522Q337 509 343 491Q349 473 349 450Q349 415 349 370Q349 325 349 270Q349 215 349 148Q349 81 349 0ZM149 0Q136 0 123.5 0Q111 0 98.5 0Q86 0 73.5 0Q61 0 49 0Q46 0 44 0.5Q42 1 40.5 2.5Q39 4 38.5 6Q38 8 38 11Q38 82 38 153Q38 224 38 295Q38 366 38 436Q38 464 38 489.5Q38 515 38 536Q48 536 57.5 536Q67 536 77 536Q87 536 97 536Q107 536 117 536Q117 536 122 519.5Q127 503 133 481.5Q139 460 144 443Q149 426 149 426Q149 361 149 290.5Q149 220 149 147Q149 74 149 0Z" transform="translate(978.78 1656.20) scale(0.02200 -0.02200)"/></g></svg>
