<svg xmlns="http://www.w3.org/2000/svg" width="1080" height="1350" viewBox="0 0 1080 1350" role="img" aria-label="Primero la acción. Después, la explicación."><rect x="0" y="0" width="1080" height="1350" fill="#FFF8F0" /><rect x="931.98" y="0" width="60" height="12" fill="#F85239" /><rect x="913.98" y="0" width="18" height="12" fill="#9F292E" /><g transform="translate(0 163)"><rect x="88.02000000000001" y="108.02000000000001" width="28" height="28" fill="#F85239" /><rect x="88.02000000000001" y="136.02" width="28" height="28" fill="#F85239" /><rect x="116.02000000000001" y="108.02000000000001" width="28" height="28" fill="#F85239" /><rect x="158.02" y="108.02000000000001" width="28" height="28" fill="#F85239" /><rect x="158.02" y="136.02" width="28" height="28" fill="#F85239" /><rect x="186.02" y="108.02000000000001" width="28" height="28" fill="#F85239" /><g fill="#0B0B0F" aria-label="Primero"><path d="M241 0Q229 -3 217.5 -4.5Q206 -6 189 -6Q131 -6 103.5 19Q76 44 76 100Q76 162 76 224Q76 286 76 348Q76 410 76 472Q76 534 76 597L204 597L193 567Q213 554 221.5 532.5Q230 511 230 480Q230 415 230 351.5Q230 288 230 224.5Q230 161 230 96Q230 73 232 48Q234 23 241 0ZM23 700Q87 711 157.5 715.5Q228 720 294 720Q338 720 377.5 709Q417 698 448 677.5Q479 657 502 629Q525 601 536.5 568Q548 535 548 499L548 492Q548 408 529.5 345.5Q511 283 479.5 241.5Q448 200 407.5 180Q367 160 321 160Q295 160 273.5 174.5Q252 189 236 215L206 214L206 308Q224 303 242.5 300Q261 297 283 297Q309 297 329.5 307.5Q350 318 365 341Q380 364 388.5 400.5Q397 437 397 488L397 503Q397 517 395.5 529.5Q394 542 392 554Q371 565 345 570.5Q319 576 282 576Q226 576 179.5 571Q133 566 102 561Q71 556 60 556Q38 556 27.5 577.5Q17 599 17 646Q17 662 18.5 674.5Q20 687 23 700Z" transform="translate(88.02 327.82) scale(0.11800 -0.11800)"/><path d="M209 375L221 375Q236 435 255 475.5Q274 516 297 537.5Q320 559 349 559Q362 559 371.5 555.5Q381 552 389 544Q402 531 409 508.5Q416 486 416 444Q416 434 415.5 423.5Q415 413 414 403Q413 393 410.5 383.5Q408 374 405 366L399 366Q385 374 372.5 378.5Q360 383 342 383Q312 383 289.5 363.5Q267 344 247.5 301.5Q228 259 209 190ZM215 0Q206 -1 199.5 -2Q193 -3 186.5 -3.5Q180 -4 173 -4Q143 -4 123 2Q103 8 91.5 20Q80 32 75 48.5Q70 65 70 85Q70 125 70 162Q70 199 70 235.5Q70 272 70 305.5Q70 339 70 373Q70 407 70 441Q70 467 66 494.5Q62 522 51 539Q59 541 66.5 542Q74 543 81 544Q88 545 95 545Q129 545 156.5 530Q184 515 199.5 478Q215 441 215 374Q215 336 215 296Q215 256 215 217Q215 178 215 140.5Q215 103 215 67.5Q215 32 215 0Z" transform="translate(153.51 327.82) scale(0.11800 -0.11800)"/><path d="M127 114Q127 137 127 164Q127 191 127 219.5Q127 248 127 277.5Q127 307 127 336Q127 365 127 392L121 392Q118 389 113.5 386Q109 383 104.5 381.5Q100 380 94.5 379Q89 378 82 378Q58 378 45 400Q32 422 32 466Q32 486 34.5 504.5Q37 523 41 539Q50 541 59.5 542.5Q69 544 79 545Q89 546 99 547Q109 548 119 548.5Q129 549 140 549Q178 549 207.5 539Q237 529 254 508Q271 487 271 454Q271 417 271 376Q271 335 271 294Q271 253 271 213.5Q271 174 271 138Q271 111 272.5 91Q274 71 278.5 50Q283 29 290 0Q277 -3 264 -4.5Q251 -6 235 -6Q174 -6 150.5 19.5Q127 45 127 114ZM95 753Q104 756 115.5 759Q127 762 139 764.5Q151 767 164.5 768Q178 769 191 769Q237 769 266 753.5Q295 738 295 699L295 629Q286 625 276 622Q266 619 255 617Q244 615 233.5 614Q223 613 210 613Q160 613 127.5 636Q95 659 95 698Z" transform="translate(201.30 327.82) scale(0.11800 -0.11800)"/><path d="M804 0Q793 -2 784.5 -3.5Q776 -5 767 -5.5Q758 -6 748 -6Q703 -6 675.5 6.5Q648 19 636 48Q624 77 624 128Q624 150 625 172Q626 194 628.5 218Q631 242 634.5 266.5Q638 291 642.5 318.5Q647 346 653 375Q648 382 640 386.5Q632 391 618 391Q593 391 573 372.5Q553 354 534 315.5Q515 277 492 214L493 383L507 383Q526 435 553 472.5Q580 510 611.5 530.5Q643 551 673 551Q698 551 718.5 535.5Q739 520 753.5 493.5Q768 467 775.5 437.5Q783 408 783 379Q783 352 783 324Q783 296 783 268.5Q783 241 783 213Q783 185 783 157Q783 110 787.5 76.5Q792 43 804 0ZM501 0Q493 -1 483 -2.5Q473 -4 462 -4.5Q451 -5 436 -5Q403 -5 382.5 9.5Q362 24 352 55Q342 86 342 133Q342 153 343 173Q344 193 346.5 215Q349 237 352 261.5Q355 286 359 313.5Q363 341 369 374Q364 380 359 383.5Q354 387 348 389Q342 391 335 391Q312 391 292.5 372.5Q273 354 253.5 314.5Q234 275 209 210L209 383L227 383Q245 435 271.5 472.5Q298 510 329.5 529.5Q361 549 395 549Q420 549 439.5 530.5Q459 512 473 484Q487 456 494 427Q501 398 501 377Q501 330 501 284Q501 238 501 191Q501 144 501 96Q501 48 501 0ZM221 0Q214 -2 208 -3Q202 -4 196 -4.5Q190 -5 182.5 -5.5Q175 -6 165 -6Q142 -6 124 -1.5Q106 3 93 14.5Q80 26 73.5 49Q67 72 67 110Q67 164 67 219Q67 274 67 328Q67 382 67 436Q67 466 64 490.5Q61 515 54 541Q59 542 64.5 543Q70 544 74.5 544.5Q79 545 84.5 545Q90 545 95 545Q119 545 141.5 535Q164 525 181.5 505.5Q199 486 210 454.5Q221 423 221 382Q221 319 221 255Q221 191 221 127.5Q221 64 221 0Z" transform="translate(237.29 327.82) scale(0.11800 -0.11800)"/><path d="M324 555Q395 555 445 525.5Q495 496 522 445Q549 394 549 327L549 322Q549 282 544 262.5Q539 243 531 237.5Q523 232 514 232L300 232Q268 232 242.5 240.5Q217 249 202 263L181 253L185 316L404 316Q406 323 406.5 331Q407 339 407 344Q407 366 403 387Q399 408 387 424Q375 429 365.5 431Q356 433 336 433Q273 433 234.5 384Q196 335 196 234L196 230Q196 210 198 194Q200 178 203.5 163.5Q207 149 212 137Q235 126 265 121Q295 116 338 116Q371 116 402 120Q433 124 462.5 133.5Q492 143 519 158L526 158Q528 149 528.5 139.5Q529 130 529 121Q529 88 520.5 66Q512 44 495 28Q479 12 454 2.5Q429 -7 399.5 -11.5Q370 -16 337 -16Q274 -16 221.5 4Q169 24 131 60Q93 96 72.5 147Q52 198 52 261L52 264Q52 328 71.5 380.5Q91 433 128 472.5Q165 512 215 533.5Q265 555 324 555Z" transform="translate(332.28 327.82) scale(0.11800 -0.11800)"/><path d="M209 375L221 375Q236 435 255 475.5Q274 516 297 537.5Q320 559 349 559Q362 559 371.5 555.5Q381 552 389 544Q402 531 409 508.5Q416 486 416 444Q416 434 415.5 423.5Q415 413 414 403Q413 393 410.5 383.5Q408 374 405 366L399 366Q385 374 372.5 378.5Q360 383 342 383Q312 383 289.5 363.5Q267 344 247.5 301.5Q228 259 209 190ZM215 0Q206 -1 199.5 -2Q193 -3 186.5 -3.5Q180 -4 173 -4Q143 -4 123 2Q103 8 91.5 20Q80 32 75 48.5Q70 65 70 85Q70 125 70 162Q70 199 70 235.5Q70 272 70 305.5Q70 339 70 373Q70 407 70 441Q70 467 66 494.5Q62 522 51 539Q59 541 66.5 542Q74 543 81 544Q88 545 95 545Q129 545 156.5 530Q184 515 199.5 478Q215 441 215 374Q215 336 215 296Q215 256 215 217Q215 178 215 140.5Q215 103 215 67.5Q215 32 215 0Z" transform="translate(397.77 327.82) scale(0.11800 -0.11800)"/><path d="M304 551Q354 551 398.5 533Q443 515 477.5 478.5Q512 442 532.5 386.5Q553 331 553 255L553 241Q553 166 520.5 109Q488 52 430 20Q372 -12 295 -12Q244 -12 199.5 3.5Q155 19 121 50Q87 81 67 129Q47 177 47 243L47 256Q47 345 79.5 411Q112 477 170 514Q228 551 304 551ZM322 416Q276 416 246 398.5Q216 381 201 343Q186 305 186 245L186 239Q186 206 190 179Q194 152 201 129Q217 125 233.5 124Q250 123 273 123Q321 123 352 136Q383 149 398.5 178Q414 207 414 253L414 260Q414 304 408.5 340.5Q403 377 393 408Q379 413 362.5 414.5Q346 416 322 416Z" transform="translate(444.38 327.82) scale(0.11800 -0.11800)"/></g><g fill="#0B0B0F" aria-label="la acción."><path d="M20 750Q31 752 43.5 754Q56 756 68.5 757Q81 758 92 758.5Q103 759 112.5 759.5Q122 760 131 760Q165 760 187 749Q209 738 220.5 717Q232 696 232 665Q232 620 232 575Q232 530 232 486Q232 442 232 397Q232 352 232 307Q232 262 232 216Q232 193 233 175Q234 157 238 144Q243 140 250 137Q257 134 268 134Q283 134 296 139Q309 144 318 155L324 155Q326 146 327 135.5Q328 125 328 109Q328 86 324.5 66.5Q321 47 315 33Q309 19 302 11Q293 3 281.5 -2Q270 -7 257 -8.5Q244 -10 229 -10Q188 -10 161 5Q134 20 117.5 44Q101 68 94.5 97Q88 126 88 154Q88 198 88 243Q88 288 88 333.5Q88 379 88 424Q88 469 88 514.5Q88 560 88 604L82 606Q78 602 72 599Q66 596 59.5 595Q53 594 48 594Q32 594 22 615Q12 636 12 688Q12 705 14.5 721.5Q17 738 20 750Z" transform="translate(88.02 448.18) scale(0.11800 -0.11800)"/><path d="M513 353Q513 333 513 312Q513 291 513 270.5Q513 250 513 229.5Q513 209 513 187Q513 175 513 164Q513 153 513 141Q516 139 522 137.5Q528 136 533 136Q543 136 554 139.5Q565 143 575 152L581 152Q582 145 582.5 140.5Q583 136 583 128Q583 99 573 69.5Q563 40 547 24Q530 7 514.5 0.5Q499 -6 483 -6Q457 -6 434 8.5Q411 23 394.5 47Q378 71 368.5 98.5Q359 126 359 150Q359 170 359 191Q359 212 359 231Q359 252 361.5 276Q364 300 369 329Q374 358 381 392Q362 400 344 404.5Q326 409 306 410Q286 411 262 411Q232 411 206.5 409Q181 407 157 402.5Q133 398 107 391L102 391Q100 400 98.5 412.5Q97 425 97 437Q97 460 103.5 481Q110 502 124 516Q136 527 155.5 534.5Q175 542 209 545.5Q243 549 297 549Q348 549 388.5 531Q429 513 456.5 484.5Q484 456 498.5 422Q513 388 513 353ZM199 158Q199 132 209 123Q219 114 250 114Q270 114 290.5 120.5Q311 127 332.5 141Q354 155 372 178L379 96L364 96Q353 70 328 45.5Q303 21 270.5 5.5Q238 -10 201 -10Q151 -10 116.5 7.5Q82 25 64 60.5Q46 96 46 149L46 156Q46 183 60.5 210.5Q75 238 100 262Q125 286 156.5 300.5Q188 315 223 315Q266 315 303 310.5Q340 306 366.5 297.5Q393 289 406 277Q412 271 417 261.5Q422 252 425.5 239Q429 226 429 207Q401 214 373 217.5Q345 221 317.5 223.5Q290 226 267 226Q249 226 234.5 223.5Q220 221 206 216Q203 201 201 187.5Q199 174 199 159Z" transform="translate(122.83 448.18) scale(0.11800 -0.11800)"/><path d="M513 353Q513 333 513 312Q513 291 513 270.5Q513 250 513 229.5Q513 209 513 187Q513 175 513 164Q513 153 513 141Q516 139 522 137.5Q528 136 533 136Q543 136 554 139.5Q565 143 575 152L581 152Q582 145 582.5 140.5Q583 136 583 128Q583 99 573 69.5Q563 40 547 24Q530 7 514.5 0.5Q499 -6 483 -6Q457 -6 434 8.5Q411 23 394.5 47Q378 71 368.5 98.5Q359 126 359 150Q359 170 359 191Q359 212 359 231Q359 252 361.5 276Q364 300 369 329Q374 358 381 392Q362 400 344 404.5Q326 409 306 410Q286 411 262 411Q232 411 206.5 409Q181 407 157 402.5Q133 398 107 391L102 391Q100 400 98.5 412.5Q97 425 97 437Q97 460 103.5 481Q110 502 124 516Q136 527 155.5 534.5Q175 542 209 545.5Q243 549 297 549Q348 549 388.5 531Q429 513 456.5 484.5Q484 456 498.5 422Q513 388 513 353ZM199 158Q199 132 209 123Q219 114 250 114Q270 114 290.5 120.5Q311 127 332.5 141Q354 155 372 178L379 96L364 96Q353 70 328 45.5Q303 21 270.5 5.5Q238 -10 201 -10Q151 -10 116.5 7.5Q82 25 64 60.5Q46 96 46 149L46 156Q46 183 60.5 210.5Q75 238 100 262Q125 286 156.5 300.5Q188 315 223 315Q266 315 303 310.5Q340 306 366.5 297.5Q393 289 406 277Q412 271 417 261.5Q422 252 425.5 239Q429 226 429 207Q401 214 373 217.5Q345 221 317.5 223.5Q290 226 267 226Q249 226 234.5 223.5Q220 221 206 216Q203 201 201 187.5Q199 174 199 159Z" transform="translate(218.41 448.18) scale(0.11800 -0.11800)"/><path d="M330 551Q356 551 376 548Q396 545 411 539Q426 533 434 523Q447 512 452.5 496.5Q458 481 458 452Q458 426 454.5 406Q451 386 442 367L436 367Q408 388 383 396Q358 404 320 404Q279 404 251.5 382.5Q224 361 209.5 325Q195 289 195 242L195 231Q195 210 198.5 190Q202 170 209 153Q231 139 256 133.5Q281 128 310 128Q339 128 363.5 132.5Q388 137 410 147.5Q432 158 455 175L461 175Q463 165 464 154.5Q465 144 465 127Q465 90 458 63Q451 36 434 20Q423 10 404.5 2.5Q386 -5 360 -8.5Q334 -12 301 -12Q249 -12 204 2.5Q159 17 124.5 47.5Q90 78 70.5 127Q51 176 51 243L51 258Q51 345 86.5 411Q122 477 184 514Q246 551 330 551Z" transform="translate(283.90 448.18) scale(0.11800 -0.11800)"/><path d="M330 551Q356 551 376 548Q396 545 411 539Q426 533 434 523Q447 512 452.5 496.5Q458 481 458 452Q458 426 454.5 406Q451 386 442 367L436 367Q408 388 383 396Q358 404 320 404Q279 404 251.5 382.5Q224 361 209.5 325Q195 289 195 242L195 231Q195 210 198.5 190Q202 170 209 153Q231 139 256 133.5Q281 128 310 128Q339 128 363.5 132.5Q388 137 410 147.5Q432 158 455 175L461 175Q463 165 464 154.5Q465 144 465 127Q465 90 458 63Q451 36 434 20Q423 10 404.5 2.5Q386 -5 360 -8.5Q334 -12 301 -12Q249 -12 204 2.5Q159 17 124.5 47.5Q90 78 70.5 127Q51 176 51 243L51 258Q51 345 86.5 411Q122 477 184 514Q246 551 330 551Z" transform="translate(337.59 448.18) scale(0.11800 -0.11800)"/><path d="M127 114Q127 137 127 164Q127 191 127 219.5Q127 248 127 277.5Q127 307 127 336Q127 365 127 392L121 392Q118 389 113.5 386Q109 383 104.5 381.5Q100 380 94.5 379Q89 378 82 378Q58 378 45 400Q32 422 32 466Q32 486 34.5 504.5Q37 523 41 539Q50 541 59.5 542.5Q69 544 79 545Q89 546 99 547Q109 548 119 548.5Q129 549 140 549Q178 549 207.5 539Q237 529 254 508Q271 487 271 454Q271 417 271 376Q271 335 271 294Q271 253 271 213.5Q271 174 271 138Q271 111 272.5 91Q274 71 278.5 50Q283 29 290 0Q277 -3 264 -4.5Q251 -6 235 -6Q174 -6 150.5 19.5Q127 45 127 114ZM95 753Q104 756 115.5 759Q127 762 139 764.5Q151 767 164.5 768Q178 769 191 769Q237 769 266 753.5Q295 738 295 699L295 629Q286 625 276 622Q266 619 255 617Q244 615 233.5 614Q223 613 210 613Q160 613 127.5 636Q95 659 95 698Z" transform="translate(391.28 448.18) scale(0.11800 -0.11800)"/><path d="M304 551Q354 551 398.5 533Q443 515 477.5 478.5Q512 442 532.5 386.5Q553 331 553 255L553 241Q553 166 520.5 109Q488 52 430 20Q372 -12 295 -12Q244 -12 199.5 3.5Q155 19 121 50Q87 81 67 129Q47 177 47 243L47 256Q47 345 79.5 411Q112 477 170 514Q228 551 304 551ZM322 416Q276 416 246 398.5Q216 381 201 343Q186 305 186 245L186 239Q186 206 190 179Q194 152 201 129Q217 125 233.5 124Q250 123 273 123Q321 123 352 136Q383 149 398.5 178Q414 207 414 253L414 260Q414 304 408.5 340.5Q403 377 393 408Q379 413 362.5 414.5Q346 416 322 416ZM344 814Q378 815 405 811Q432 807 451 797Q465 790 468.5 777Q472 764 469 749Q463 723 450 702Q437 681 421.5 664.5Q406 648 388 636Q369 625 349.5 620Q330 615 304 615Q283 615 265 619.5Q247 624 232 633Q263 662 284 688.5Q305 715 320 745.5Q335 776 344 814Z" transform="translate(427.27 448.18) scale(0.11800 -0.11800)"/><path d="M548 0Q534 -3 521 -4.5Q508 -6 492 -6Q452 -6 424 5.5Q396 17 382 46.5Q368 76 368 129Q368 166 371.5 206.5Q375 247 382 288.5Q389 330 398 374Q391 382 382 386.5Q373 391 364 391Q341 391 319 379Q297 367 274.5 339Q252 311 231.5 262.5Q211 214 191 141L191 379L218 379Q236 428 267 467Q298 506 337 528.5Q376 551 418 551Q440 551 460 536.5Q480 522 494.5 497Q509 472 518 443Q527 414 527 385Q527 347 527 309Q527 271 527 233Q527 195 527 157Q527 109 531.5 76Q536 43 548 0ZM212 0Q204 -1 197 -2Q190 -3 183.5 -3Q177 -3 170 -3Q140 -3 120.5 3Q101 9 89 21Q77 33 72.5 49Q68 65 68 85Q68 135 68 181Q68 227 68 271Q68 315 68 356.5Q68 398 68 441Q68 467 63.5 494.5Q59 522 48 539Q56 541 63 542Q70 543 77.5 544Q85 545 91 545Q126 545 153.5 530Q181 515 196.5 478Q212 441 212 374Q212 310 212 243.5Q212 177 212 115Q212 53 212 0Z" transform="translate(492.76 448.18) scale(0.11800 -0.11800)"/><path d="M261 0Q250 -4 240 -6.5Q230 -9 219 -10Q208 -11 195 -11Q161 -11 137 -3.5Q113 4 101 26Q89 48 89 90L89 182Q102 188 115 192Q128 196 142.5 198Q157 200 173 200Q200 200 220 192Q240 184 250.5 164Q261 144 261 107Z" transform="translate(554.71 448.18) scale(0.11800 -0.11800)"/></g><g fill="#0B0B0F" aria-label="Después,"><path d="M599 401Q599 304 572 227.5Q545 151 498.5 98Q452 45 391 17.5Q330 -10 264 -10Q246 -10 229 -8Q212 -6 195 -1.5Q178 3 162 9Q146 15 132.5 24Q119 33 108 44Q89 63 82.5 75Q76 87 76 109Q76 172 76 234.5Q76 297 76 357Q76 417 76 476Q76 535 76 594L202 594L192 566Q212 552 221 532Q230 512 230 482Q230 439 230 396.5Q230 354 230 311Q230 268 230 225.5Q230 183 230 139Q233 139 235.5 139Q238 139 240.5 138.5Q243 138 246 138Q301 138 347 167.5Q393 197 420 253.5Q447 310 447 392L447 402Q447 438 444 463Q441 488 437 508.5Q433 529 426 546Q406 557 384.5 563Q363 569 339 572.5Q315 576 283 576Q236 576 199 573Q162 570 135 566Q108 562 90.5 559Q73 556 65 556Q50 556 40.5 566Q31 576 26.5 595.5Q22 615 22 646Q22 662 23.5 674.5Q25 687 27 700Q60 705 93.5 709Q127 713 161.5 715.5Q196 718 232 719Q268 720 305 720Q368 720 421 701Q474 682 513.5 644.5Q553 607 576 550Q599 493 599 417Z" transform="translate(88.02 568.54) scale(0.11800 -0.11800)"/><path d="M324 555Q395 555 445 525.5Q495 496 522 445Q549 394 549 327L549 322Q549 282 544 262.5Q539 243 531 237.5Q523 232 514 232L300 232Q268 232 242.5 240.5Q217 249 202 263L181 253L185 316L404 316Q406 323 406.5 331Q407 339 407 344Q407 366 403 387Q399 408 387 424Q375 429 365.5 431Q356 433 336 433Q273 433 234.5 384Q196 335 196 234L196 230Q196 210 198 194Q200 178 203.5 163.5Q207 149 212 137Q235 126 265 121Q295 116 338 116Q371 116 402 120Q433 124 462.5 133.5Q492 143 519 158L526 158Q528 149 528.5 139.5Q529 130 529 121Q529 88 520.5 66Q512 44 495 28Q479 12 454 2.5Q429 -7 399.5 -11.5Q370 -16 337 -16Q274 -16 221.5 4Q169 24 131 60Q93 96 72.5 147Q52 198 52 261L52 264Q52 328 71.5 380.5Q91 433 128 472.5Q165 512 215 533.5Q265 555 324 555Z" transform="translate(159.41 568.54) scale(0.11800 -0.11800)"/><path d="M298 132Q320 132 336.5 134.5Q353 137 366 143Q370 160 366 171.5Q362 183 348.5 193Q335 203 307 209L235 226Q176 240 141.5 258.5Q107 277 91.5 305Q76 333 76 374Q76 415 94.5 448.5Q113 482 147.5 504.5Q182 527 228.5 539Q275 551 332 551Q363 551 385.5 548Q408 545 424 539.5Q440 534 447 525Q458 515 465 499.5Q472 484 476 463.5Q480 443 480 415Q480 405 478.5 395.5Q477 386 475 377L468 377Q448 387 429.5 393.5Q411 400 388.5 403.5Q366 407 333 407Q294 407 268.5 402Q243 397 231.5 389Q220 381 220 370Q220 360 227 354Q234 348 251.5 343.5Q269 339 303 330L356 318Q410 305 442.5 283.5Q475 262 489.5 232Q504 202 504 162Q504 105 480 65.5Q456 26 408 7Q360 -12 287 -12Q246 -12 212.5 -9.5Q179 -7 154.5 -1.5Q130 4 113 11.5Q96 19 84 30Q70 43 60.5 67.5Q51 92 51 135Q51 152 52.5 164.5Q54 177 56 187L62 187Q89 172 112 161.5Q135 151 160 145Q185 139 218 135.5Q251 132 298 132Z" transform="translate(224.90 568.54) scale(0.11800 -0.11800)"/><path d="M48 539Q57 541 63.5 542Q70 543 77.5 544Q85 545 91 545Q123 545 150.5 530Q178 515 194.5 478Q211 441 211 374Q211 300 211 228.5Q211 157 211 86.5Q211 16 211 -54.5Q211 -125 211 -197Q204 -198 197 -199Q190 -200 185 -200Q180 -200 171 -200Q132 -200 109 -178.5Q86 -157 76.5 -122.5Q67 -88 67 -50Q67 22 67 82.5Q67 143 67 199.5Q67 256 67 314.5Q67 373 67 441Q67 467 63 494Q59 521 48 539ZM403 551Q442 551 477.5 522.5Q513 494 535.5 447Q558 400 558 343L558 322Q558 233 540 169.5Q522 106 491 66Q460 26 423 7Q386 -12 347 -12Q317 -12 291.5 -0.5Q266 11 246.5 29Q227 47 217 68L195 68L195 169Q215 149 238.5 137.5Q262 126 296 126Q334 126 359 146Q384 166 396.5 205Q409 244 409 300L409 311Q409 342 407.5 361Q406 380 401 392Q397 395 393 396Q389 397 385 397Q345 397 311 379Q277 361 250 320Q223 279 201 209L201 390L218 390Q234 435 263.5 471Q293 507 328.5 529Q364 551 403 551Z" transform="translate(284.49 568.54) scale(0.11800 -0.11800)"/><path d="M103 547Q145 547 172.5 535.5Q200 524 214 495Q228 466 228 413Q228 384 225.5 354.5Q223 325 219 294.5Q215 264 210 232.5Q205 201 198 167Q206 159 214.5 154.5Q223 150 232 150Q255 150 278 162.5Q301 175 322 207Q343 239 362 294.5Q381 350 395 437L395 162L380 162Q362 112 330 73.5Q298 35 259.5 12.5Q221 -10 179 -10Q156 -10 136.5 4.5Q117 19 102 44Q87 69 78 98Q69 127 69 157Q69 195 69 232.5Q69 270 69 308.5Q69 347 69 384Q69 431 64.5 464.5Q60 498 48 541Q63 544 76 545.5Q89 547 103 547ZM426 544Q466 544 488 533Q510 522 519 502Q528 482 528 455Q528 388 528 328Q528 268 528 212.5Q528 157 528 100Q528 84 530 65Q532 46 536.5 29Q541 12 548 0Q541 -1 533.5 -2.5Q526 -4 519 -4.5Q512 -5 505 -5Q470 -5 443 10.5Q416 26 401 63.5Q386 101 386 167Q386 232 386 297Q386 362 386 424.5Q386 487 386 541Q395 543 401 543.5Q407 544 413.5 544Q420 544 426 544Z" transform="translate(349.98 568.54) scale(0.11800 -0.11800)"/><path d="M324 555Q395 555 445 525.5Q495 496 522 445Q549 394 549 327L549 322Q549 282 544 262.5Q539 243 531 237.5Q523 232 514 232L300 232Q268 232 242.5 240.5Q217 249 202 263L181 253L185 316L404 316Q406 323 406.5 331Q407 339 407 344Q407 366 403 387Q399 408 387 424Q375 429 365.5 431Q356 433 336 433Q273 433 234.5 384Q196 335 196 234L196 230Q196 210 198 194Q200 178 203.5 163.5Q207 149 212 137Q235 126 265 121Q295 116 338 116Q371 116 402 120Q433 124 462.5 133.5Q492 143 519 158L526 158Q528 149 528.5 139.5Q529 130 529 121Q529 88 520.5 66Q512 44 495 28Q479 12 454 2.5Q429 -7 399.5 -11.5Q370 -16 337 -16Q274 -16 221.5 4Q169 24 131 60Q93 96 72.5 147Q52 198 52 261L52 264Q52 328 71.5 380.5Q91 433 128 472.5Q165 512 215 533.5Q265 555 324 555ZM364 814Q398 815 425 811Q452 807 471 797Q485 790 488.5 777Q492 764 489 749Q483 723 470 702Q457 681 441.5 664.5Q426 648 408 636Q389 625 369.5 620Q350 615 324 615Q303 615 285 619.5Q267 624 252 633Q283 662 304 688.5Q325 715 340 745.5Q355 776 364 814Z" transform="translate(415.47 568.54) scale(0.11800 -0.11800)"/><path d="M298 132Q320 132 336.5 134.5Q353 137 366 143Q370 160 366 171.5Q362 183 348.5 193Q335 203 307 209L235 226Q176 240 141.5 258.5Q107 277 91.5 305Q76 333 76 374Q76 415 94.5 448.5Q113 482 147.5 504.5Q182 527 228.5 539Q275 551 332 551Q363 551 385.5 548Q408 545 424 539.5Q440 534 447 525Q458 515 465 499.5Q472 484 476 463.5Q480 443 480 415Q480 405 478.5 395.5Q477 386 475 377L468 377Q448 387 429.5 393.5Q411 400 388.5 403.5Q366 407 333 407Q294 407 268.5 402Q243 397 231.5 389Q220 381 220 370Q220 360 227 354Q234 348 251.5 343.5Q269 339 303 330L356 318Q410 305 442.5 283.5Q475 262 489.5 232Q504 202 504 162Q504 105 480 65.5Q456 26 408 7Q360 -12 287 -12Q246 -12 212.5 -9.5Q179 -7 154.5 -1.5Q130 4 113 11.5Q96 19 84 30Q70 43 60.5 67.5Q51 92 51 135Q51 152 52.5 164.5Q54 177 56 187L62 187Q89 172 112 161.5Q135 151 160 145Q185 139 218 135.5Q251 132 298 132Z" transform="translate(480.96 568.54) scale(0.11800 -0.11800)"/><path d="M132 -208Q110 -208 90.5 -198Q71 -188 55 -170Q73 -136 85.5 -98.5Q98 -61 107 -18.5Q116 24 120.5 72.5Q125 121 126 177Q140 180 150.5 182Q161 184 172 184.5Q183 185 194 185Q223 185 243.5 176.5Q264 168 274.5 149Q285 130 285 99Q284 65 275.5 25Q267 -15 251.5 -55.5Q236 -96 217 -131Q198 -166 176 -191Q169 -200 159 -204Q149 -208 132 -208Z" transform="translate(537.01 568.54) scale(0.11800 -0.11800)"/></g><g fill="#0B0B0F" aria-label="la explicación."><path d="M20 750Q31 752 43.5 754Q56 756 68.5 757Q81 758 92 758.5Q103 759 112.5 759.5Q122 760 131 760Q165 760 187 749Q209 738 220.5 717Q232 696 232 665Q232 620 232 575Q232 530 232 486Q232 442 232 397Q232 352 232 307Q232 262 232 216Q232 193 233 175Q234 157 238 144Q243 140 250 137Q257 134 268 134Q283 134 296 139Q309 144 318 155L324 155Q326 146 327 135.5Q328 125 328 109Q328 86 324.5 66.5Q321 47 315 33Q309 19 302 11Q293 3 281.5 -2Q270 -7 257 -8.5Q244 -10 229 -10Q188 -10 161 5Q134 20 117.5 44Q101 68 94.5 97Q88 126 88 154Q88 198 88 243Q88 288 88 333.5Q88 379 88 424Q88 469 88 514.5Q88 560 88 604L82 606Q78 602 72 599Q66 596 59.5 595Q53 594 48 594Q32 594 22 615Q12 636 12 688Q12 705 14.5 721.5Q17 738 20 750Z" transform="translate(88.02 688.90) scale(0.11800 -0.11800)"/><path d="M513 353Q513 333 513 312Q513 291 513 270.5Q513 250 513 229.5Q513 209 513 187Q513 175 513 164Q513 153 513 141Q516 139 522 137.5Q528 136 533 136Q543 136 554 139.5Q565 143 575 152L581 152Q582 145 582.5 140.5Q583 136 583 128Q583 99 573 69.5Q563 40 547 24Q530 7 514.5 0.5Q499 -6 483 -6Q457 -6 434 8.5Q411 23 394.5 47Q378 71 368.5 98.5Q359 126 359 150Q359 170 359 191Q359 212 359 231Q359 252 361.5 276Q364 300 369 329Q374 358 381 392Q362 400 344 404.5Q326 409 306 410Q286 411 262 411Q232 411 206.5 409Q181 407 157 402.5Q133 398 107 391L102 391Q100 400 98.5 412.5Q97 425 97 437Q97 460 103.5 481Q110 502 124 516Q136 527 155.5 534.5Q175 542 209 545.5Q243 549 297 549Q348 549 388.5 531Q429 513 456.5 484.5Q484 456 498.5 422Q513 388 513 353ZM199 158Q199 132 209 123Q219 114 250 114Q270 114 290.5 120.5Q311 127 332.5 141Q354 155 372 178L379 96L364 96Q353 70 328 45.5Q303 21 270.5 5.5Q238 -10 201 -10Q151 -10 116.5 7.5Q82 25 64 60.5Q46 96 46 149L46 156Q46 183 60.5 210.5Q75 238 100 262Q125 286 156.5 300.5Q188 315 223 315Q266 315 303 310.5Q340 306 366.5 297.5Q393 289 406 277Q412 271 417 261.5Q422 252 425.5 239Q429 226 429 207Q401 214 373 217.5Q345 221 317.5 223.5Q290 226 267 226Q249 226 234.5 223.5Q220 221 206 216Q203 201 201 187.5Q199 174 199 159Z" transform="translate(122.83 688.90) scale(0.11800 -0.11800)"/><path d="M324 555Q395 555 445 525.5Q495 496 522 445Q549 394 549 327L549 322Q549 282 544 262.5Q539 243 531 237.5Q523 232 514 232L300 232Q268 232 242.5 240.5Q217 249 202 263L181 253L185 316L404 316Q406 323 406.5 331Q407 339 407 344Q407 366 403 387Q399 408 387 424Q375 429 365.5 431Q356 433 336 433Q273 433 234.5 384Q196 335 196 234L196 230Q196 210 198 194Q200 178 203.5 163.5Q207 149 212 137Q235 126 265 121Q295 116 338 116Q371 116 402 120Q433 124 462.5 133.5Q492 143 519 158L526 158Q528 149 528.5 139.5Q529 130 529 121Q529 88 520.5 66Q512 44 495 28Q479 12 454 2.5Q429 -7 399.5 -11.5Q370 -16 337 -16Q274 -16 221.5 4Q169 24 131 60Q93 96 72.5 147Q52 198 52 261L52 264Q52 328 71.5 380.5Q91 433 128 472.5Q165 512 215 533.5Q265 555 324 555Z" transform="translate(218.41 688.90) scale(0.11800 -0.11800)"/><path d="M36 541Q50 545 67 547Q84 549 103 549Q162 549 194 538.5Q226 528 239 499Q260 453 283.5 407Q307 361 334 319L374 256Q421 189 474 128Q527 67 584 17Q575 10 565 4.5Q555 -1 543.5 -4.5Q532 -8 518.5 -10Q505 -12 490 -12Q447 -12 423.5 0Q400 12 376 38Q361 56 345.5 73.5Q330 91 314.5 109Q299 127 285 144L240 202Q182 282 131 366.5Q80 451 36 541ZM250 259L337 131L291 131Q275 106 258.5 82Q242 58 223.5 36Q205 14 183 -10L170 -10Q95 -10 64.5 5Q34 20 34 50Q34 63 42 72.5Q50 82 69 97Q125 138 169.5 178Q214 218 250 259ZM447 551Q498 551 532 536Q566 521 566 487Q566 481 564.5 473.5Q563 466 560 457Q531 392 486.5 333.5Q442 275 376 211L296 340L326 340Q347 374 364.5 407Q382 440 397 475.5Q412 511 425 551Z" transform="translate(281.54 688.90) scale(0.11800 -0.11800)"/><path d="M48 539Q57 541 63.5 542Q70 543 77.5 544Q85 545 91 545Q123 545 150.5 530Q178 515 194.5 478Q211 441 211 374Q211 300 211 228.5Q211 157 211 86.5Q211 16 211 -54.5Q211 -125 211 -197Q204 -198 197 -199Q190 -200 185 -200Q180 -200 171 -200Q132 -200 109 -178.5Q86 -157 76.5 -122.5Q67 -88 67 -50Q67 22 67 82.5Q67 143 67 199.5Q67 256 67 314.5Q67 373 67 441Q67 467 63 494Q59 521 48 539ZM403 551Q442 551 477.5 522.5Q513 494 535.5 447Q558 400 558 343L558 322Q558 233 540 169.5Q522 106 491 66Q460 26 423 7Q386 -12 347 -12Q317 -12 291.5 -0.5Q266 11 246.5 29Q227 47 217 68L195 68L195 169Q215 149 238.5 137.5Q262 126 296 126Q334 126 359 146Q384 166 396.5 205Q409 244 409 300L409 311Q409 342 407.5 361Q406 380 401 392Q397 395 393 396Q389 397 385 397Q345 397 311 379Q277 361 250 320Q223 279 201 209L201 390L218 390Q234 435 263.5 471Q293 507 328.5 529Q364 551 403 551Z" transform="translate(347.03 688.90) scale(0.11800 -0.11800)"/><path d="M20 750Q31 752 43.5 754Q56 756 68.5 757Q81 758 92 758.5Q103 759 112.5 759.5Q122 760 131 760Q165 760 187 749Q209 738 220.5 717Q232 696 232 665Q232 620 232 575Q232 530 232 486Q232 442 232 397Q232 352 232 307Q232 262 232 216Q232 193 233 175Q234 157 238 144Q243 140 250 137Q257 134 268 134Q283 134 296 139Q309 144 318 155L324 155Q326 146 327 135.5Q328 125 328 109Q328 86 324.5 66.5Q321 47 315 33Q309 19 302 11Q293 3 281.5 -2Q270 -7 257 -8.5Q244 -10 229 -10Q188 -10 161 5Q134 20 117.5 44Q101 68 94.5 97Q88 126 88 154Q88 198 88 243Q88 288 88 333.5Q88 379 88 424Q88 469 88 514.5Q88 560 88 604L82 606Q78 602 72 599Q66 596 59.5 595Q53 594 48 594Q32 594 22 615Q12 636 12 688Q12 705 14.5 721.5Q17 738 20 750Z" transform="translate(412.52 688.90) scale(0.11800 -0.11800)"/><path d="M127 114Q127 137 127 164Q127 191 127 219.5Q127 248 127 277.5Q127 307 127 336Q127 365 127 392L121 392Q118 389 113.5 386Q109 383 104.5 381.5Q100 380 94.5 379Q89 378 82 378Q58 378 45 400Q32 422 32 466Q32 486 34.5 504.5Q37 523 41 539Q50 541 59.5 542.5Q69 544 79 545Q89 546 99 547Q109 548 119 548.5Q129 549 140 549Q178 549 207.5 539Q237 529 254 508Q271 487 271 454Q271 417 271 376Q271 335 271 294Q271 253 271 213.5Q271 174 271 138Q271 111 272.5 91Q274 71 278.5 50Q283 29 290 0Q277 -3 264 -4.5Q251 -6 235 -6Q174 -6 150.5 19.5Q127 45 127 114ZM95 753Q104 756 115.5 759Q127 762 139 764.5Q151 767 164.5 768Q178 769 191 769Q237 769 266 753.5Q295 738 295 699L295 629Q286 625 276 622Q266 619 255 617Q244 615 233.5 614Q223 613 210 613Q160 613 127.5 636Q95 659 95 698Z" transform="translate(444.97 688.90) scale(0.11800 -0.11800)"/><path d="M330 551Q356 551 376 548Q396 545 411 539Q426 533 434 523Q447 512 452.5 496.5Q458 481 458 452Q458 426 454.5 406Q451 386 442 367L436 367Q408 388 383 396Q358 404 320 404Q279 404 251.5 382.5Q224 361 209.5 325Q195 289 195 242L195 231Q195 210 198.5 190Q202 170 209 153Q231 139 256 133.5Q281 128 310 128Q339 128 363.5 132.5Q388 137 410 147.5Q432 158 455 175L461 175Q463 165 464 154.5Q465 144 465 127Q465 90 458 63Q451 36 434 20Q423 10 404.5 2.5Q386 -5 360 -8.5Q334 -12 301 -12Q249 -12 204 2.5Q159 17 124.5 47.5Q90 78 70.5 127Q51 176 51 243L51 258Q51 345 86.5 411Q122 477 184 514Q246 551 330 551Z" transform="translate(480.96 688.90) scale(0.11800 -0.11800)"/><path d="M513 353Q513 333 513 312Q513 291 513 270.5Q513 250 513 229.5Q513 209 513 187Q513 175 513 164Q513 153 513 141Q516 139 522 137.5Q528 136 533 136Q543 136 554 139.5Q565 143 575 152L581 152Q582 145 582.5 140.5Q583 136 583 128Q583 99 573 69.5Q563 40 547 24Q530 7 514.5 0.5Q499 -6 483 -6Q457 -6 434 8.5Q411 23 394.5 47Q378 71 368.5 98.5Q359 126 359 150Q359 170 359 191Q359 212 359 231Q359 252 361.5 276Q364 300 369 329Q374 358 381 392Q362 400 344 404.5Q326 409 306 410Q286 411 262 411Q232 411 206.5 409Q181 407 157 402.5Q133 398 107 391L102 391Q100 400 98.5 412.5Q97 425 97 437Q97 460 103.5 481Q110 502 124 516Q136 527 155.5 534.5Q175 542 209 545.5Q243 549 297 549Q348 549 388.5 531Q429 513 456.5 484.5Q484 456 498.5 422Q513 388 513 353ZM199 158Q199 132 209 123Q219 114 250 114Q270 114 290.5 120.5Q311 127 332.5 141Q354 155 372 178L379 96L364 96Q353 70 328 45.5Q303 21 270.5 5.5Q238 -10 201 -10Q151 -10 116.5 7.5Q82 25 64 60.5Q46 96 46 149L46 156Q46 183 60.5 210.5Q75 238 100 262Q125 286 156.5 300.5Q188 315 223 315Q266 315 303 310.5Q340 306 366.5 297.5Q393 289 406 277Q412 271 417 261.5Q422 252 425.5 239Q429 226 429 207Q401 214 373 217.5Q345 221 317.5 223.5Q290 226 267 226Q249 226 234.5 223.5Q220 221 206 216Q203 201 201 187.5Q199 174 199 159Z" transform="translate(534.65 688.90) scale(0.11800 -0.11800)"/><path d="M330 551Q356 551 376 548Q396 545 411 539Q426 533 434 523Q447 512 452.5 496.5Q458 481 458 452Q458 426 454.5 406Q451 386 442 367L436 367Q408 388 383 396Q358 404 320 404Q279 404 251.5 382.5Q224 361 209.5 325Q195 289 195 242L195 231Q195 210 198.5 190Q202 170 209 153Q231 139 256 133.5Q281 128 310 128Q339 128 363.5 132.5Q388 137 410 147.5Q432 158 455 175L461 175Q463 165 464 154.5Q465 144 465 127Q465 90 458 63Q451 36 434 20Q423 10 404.5 2.5Q386 -5 360 -8.5Q334 -12 301 -12Q249 -12 204 2.5Q159 17 124.5 47.5Q90 78 70.5 127Q51 176 51 243L51 258Q51 345 86.5 411Q122 477 184 514Q246 551 330 551Z" transform="translate(600.14 688.90) scale(0.11800 -0.11800)"/><path d="M127 114Q127 137 127 164Q127 191 127 219.5Q127 248 127 277.5Q127 307 127 336Q127 365 127 392L121 392Q118 389 113.5 386Q109 383 104.5 381.5Q100 380 94.5 379Q89 378 82 378Q58 378 45 400Q32 422 32 466Q32 486 34.5 504.5Q37 523 41 539Q50 541 59.5 542.5Q69 544 79 545Q89 546 99 547Q109 548 119 548.5Q129 549 140 549Q178 549 207.5 539Q237 529 254 508Q271 487 271 454Q271 417 271 376Q271 335 271 294Q271 253 271 213.5Q271 174 271 138Q271 111 272.5 91Q274 71 278.5 50Q283 29 290 0Q277 -3 264 -4.5Q251 -6 235 -6Q174 -6 150.5 19.5Q127 45 127 114ZM95 753Q104 756 115.5 759Q127 762 139 764.5Q151 767 164.5 768Q178 769 191 769Q237 769 266 753.5Q295 738 295 699L295 629Q286 625 276 622Q266 619 255 617Q244 615 233.5 614Q223 613 210 613Q160 613 127.5 636Q95 659 95 698Z" transform="translate(653.83 688.90) scale(0.11800 -0.11800)"/><path d="M304 551Q354 551 398.5 533Q443 515 477.5 478.5Q512 442 532.5 386.5Q553 331 553 255L553 241Q553 166 520.5 109Q488 52 430 20Q372 -12 295 -12Q244 -12 199.5 3.5Q155 19 121 50Q87 81 67 129Q47 177 47 243L47 256Q47 345 79.5 411Q112 477 170 514Q228 551 304 551ZM322 416Q276 416 246 398.5Q216 381 201 343Q186 305 186 245L186 239Q186 206 190 179Q194 152 201 129Q217 125 233.5 124Q250 123 273 123Q321 123 352 136Q383 149 398.5 178Q414 207 414 253L414 260Q414 304 408.5 340.5Q403 377 393 408Q379 413 362.5 414.5Q346 416 322 416ZM344 814Q378 815 405 811Q432 807 451 797Q465 790 468.5 777Q472 764 469 749Q463 723 450 702Q437 681 421.5 664.5Q406 648 388 636Q369 625 349.5 620Q330 615 304 615Q283 615 265 619.5Q247 624 232 633Q263 662 284 688.5Q305 715 320 745.5Q335 776 344 814Z" transform="translate(689.82 688.90) scale(0.11800 -0.11800)"/><path d="M548 0Q534 -3 521 -4.5Q508 -6 492 -6Q452 -6 424 5.5Q396 17 382 46.5Q368 76 368 129Q368 166 371.5 206.5Q375 247 382 288.5Q389 330 398 374Q391 382 382 386.5Q373 391 364 391Q341 391 319 379Q297 367 274.5 339Q252 311 231.5 262.5Q211 214 191 141L191 379L218 379Q236 428 267 467Q298 506 337 528.5Q376 551 418 551Q440 551 460 536.5Q480 522 494.5 497Q509 472 518 443Q527 414 527 385Q527 347 527 309Q527 271 527 233Q527 195 527 157Q527 109 531.5 76Q536 43 548 0ZM212 0Q204 -1 197 -2Q190 -3 183.5 -3Q177 -3 170 -3Q140 -3 120.5 3Q101 9 89 21Q77 33 72.5 49Q68 65 68 85Q68 135 68 181Q68 227 68 271Q68 315 68 356.5Q68 398 68 441Q68 467 63.5 494.5Q59 522 48 539Q56 541 63 542Q70 543 77.5 544Q85 545 91 545Q126 545 153.5 530Q181 515 196.5 478Q212 441 212 374Q212 310 212 243.5Q212 177 212 115Q212 53 212 0Z" transform="translate(755.31 688.90) scale(0.11800 -0.11800)"/><path d="M261 0Q250 -4 240 -6.5Q230 -9 219 -10Q208 -11 195 -11Q161 -11 137 -3.5Q113 4 101 26Q89 48 89 90L89 182Q102 188 115 192Q128 196 142.5 198Q157 200 173 200Q200 200 220 192Q240 184 250.5 164Q261 144 261 107Z" transform="translate(817.26 688.90) scale(0.11800 -0.11800)"/></g><rect x="88.02000000000001" y="748.9000000000001" width="64" height="6" fill="#F85239" /><g fill="#5F5650" aria-label="Cómo diseñamos"><path d="M339 -20Q269 -20 215.5 -1.5Q162 17 127 51.5Q92 86 74.5 136.5Q57 187 57 252L57 456Q57 516 75 564Q93 612 127.5 647.5Q162 683 213 701.5Q264 720 329 720Q380 720 420 710.5Q460 701 488.5 686.5Q517 672 533 655Q535 653 536 650.5Q537 648 537.5 645.5Q538 643 538 639Q538 603 538 557Q538 511 538 469Q512 469 485.5 469Q459 469 433 469Q428 469 425 472Q422 475 422 480Q422 499 422 518Q422 537 422 560Q422 583 422 612L448 569Q422 588 393 595Q364 602 327 602Q284 602 253 586Q222 570 205 537Q188 504 188 453L188 262Q188 217 197.5 184.5Q207 152 228 131Q247 111 276 103.5Q305 96 340 96Q395 96 437.5 109Q480 122 525 153L543 153Q543 140 543 127.5Q543 115 543 103Q543 91 543 78Q543 65 543 52Q543 48 541.5 44Q540 40 538 38Q522 22 493 9Q464 -4 424.5 -12Q385 -20 339 -20Z" transform="translate(178.02 758.90) scale(0.02800 -0.02800)"/><path d="M300 548Q353 548 397 531.5Q441 515 472.5 484.5Q504 454 521.5 413Q539 372 539 321L539 217Q539 150 508.5 98Q478 46 424 17.5Q370 -11 300 -11Q247 -11 203 5.5Q159 22 127.5 52Q96 82 78.5 123.5Q61 165 61 215L61 319Q61 387 91.5 438.5Q122 490 176.5 519Q231 548 300 548ZM302 436Q265 436 239 421Q213 406 199 378.5Q185 351 185 314L185 222Q185 193 193.5 170Q202 147 217 131Q231 117 252 109Q273 101 298 101Q335 101 361.5 116Q388 131 401.5 158.5Q415 186 415 222L415 314Q415 346 407.5 369Q400 392 384 407Q370 422 349.5 429Q329 436 302 436ZM354 814Q393 814 424.5 814Q456 814 493 814Q500 814 502.5 808.5Q505 803 500 798Q476 770 454 744.5Q432 719 409 693Q386 667 357 634Q355 631 350.5 628.5Q346 626 340 626Q314 626 291 626Q268 626 244 626Q262 657 280.5 688Q299 719 317.5 750.5Q336 782 354 814Z" transform="translate(195.94 758.90) scale(0.02800 -0.02800)"/><path d="M562 0Q546 0 528.5 0Q511 0 494.5 0Q478 0 462 0Q459 0 456.5 1.5Q454 3 452.5 5Q451 7 451 11Q451 49 451 86.5Q451 124 451 162Q451 200 451 238Q451 276 451 314Q451 352 451 390Q451 410 442.5 418Q434 426 420 426Q407 426 393.5 420Q380 414 366.5 402Q353 390 337 369L319 461L367 461Q380 489 395 508Q410 527 429 537.5Q448 548 473 548Q493 548 509.5 541Q526 534 537.5 522Q549 510 555.5 491.5Q562 473 562 450Q562 406 562 362Q562 318 562 274.5Q562 231 562 187Q562 143 562 100Q562 75 562 50Q562 25 562 0ZM349 0Q334 0 319 0Q304 0 289.5 0Q275 0 262 0Q259 0 256.5 1.5Q254 3 252.5 5Q251 7 251 11Q251 49 251 87Q251 125 251 162.5Q251 200 251 238.5Q251 277 251 314.5Q251 352 251 390Q251 405 247.5 412Q244 419 237.5 422.5Q231 426 219 426Q208 426 194 420Q180 414 166 401.5Q152 389 135 368L113 461L155 461Q167 490 182 509.5Q197 529 217.5 538.5Q238 548 263 548Q282 548 297.5 541.5Q313 535 325 522Q337 509 343 491Q349 473 349 450Q349 415 349 370Q349 325 349 270Q349 215 349 148Q349 81 349 0ZM149 0Q136 0 123.5 0Q111 0 98.5 0Q86 0 73.5 0Q61 0 49 0Q46 0 44 0.5Q42 1 40.5 2.5Q39 4 38.5 6Q38 8 38 11Q38 82 38 153Q38 224 38 295Q38 366 38 436Q38 464 38 489.5Q38 515 38 536Q48 536 57.5 536Q67 536 77 536Q87 536 97 536Q107 536 117 536Q117 536 122 519.5Q127 503 133 481.5Q139 460 144 443Q149 426 149 426Q149 361 149 290.5Q149 220 149 147Q149 74 149 0Z" transform="translate(213.86 758.90) scale(0.02800 -0.02800)"/><path d="M300 548Q353 548 397 531.5Q441 515 472.5 484.5Q504 454 521.5 413Q539 372 539 321L539 217Q539 150 508.5 98Q478 46 424 17.5Q370 -11 300 -11Q247 -11 203 5.5Q159 22 127.5 52Q96 82 78.5 123.5Q61 165 61 215L61 319Q61 387 91.5 438.5Q122 490 176.5 519Q231 548 300 548ZM302 436Q265 436 239 421Q213 406 199 378.5Q185 351 185 314L185 222Q185 193 193.5 170Q202 147 217 131Q231 117 252 109Q273 101 298 101Q335 101 361.5 116Q388 131 401.5 158.5Q415 186 415 222L415 314Q415 346 407.5 369Q400 392 384 407Q370 422 349.5 429Q329 436 302 436Z" transform="translate(231.78 758.90) scale(0.02800 -0.02800)"/><path d="M229 548Q264 548 291.5 537.5Q319 527 340.5 508Q362 489 378 461L411 461L411 345Q380 388 343 408.5Q306 429 268 429Q242 429 223 417.5Q204 406 194 384Q184 362 184 330L184 205Q184 179 190 160.5Q196 142 207 131Q218 120 233.5 114.5Q249 109 268 109Q293 109 317.5 117.5Q342 126 365.5 145Q389 164 411 194L411 79L378 79Q362 51 339 31Q316 11 288 0.5Q260 -10 228 -10Q191 -10 159.5 3Q128 16 106 41.5Q84 67 72 103Q60 139 60 185L60 351Q60 397 72 433.5Q84 470 106 495.5Q128 521 159.5 534.5Q191 548 229 548ZM508 750Q512 750 514 748.5Q516 747 517.5 745Q519 743 519 739Q519 664 519 587.5Q519 511 519 434.5Q519 358 519 283.5Q519 209 519 136Q519 100 519 66Q519 32 519 0Q506 0 491.5 0Q477 0 463 0Q449 0 435 0Q421 0 407 0Q404 0 401.5 1.5Q399 3 397.5 5Q396 7 396 11Q396 91 396 171Q396 251 396 330.5Q396 410 396 490Q396 570 396 650Q396 675 396 700Q396 725 396 750Q410 750 424 750Q438 750 452 750Q466 750 480.5 750Q495 750 508 750Z" transform="translate(267.62 758.90) scale(0.02800 -0.02800)"/><path d="M250 11Q250 38 250 79.5Q250 121 250 170Q250 219 250 268Q250 317 250 359Q250 401 250 428L233 428Q210 428 195 428Q180 428 166 428Q152 428 135.5 428Q119 428 93 428Q89 428 85.5 431Q82 434 82 439Q82 464 82 488Q82 512 82 536Q117 536 145 536Q173 536 198 536Q223 536 248 536Q273 536 301 536Q329 536 363 536Q367 536 369 534.5Q371 533 372.5 531Q374 529 374 525Q374 479 374 424Q374 369 374 313Q374 257 374 202.5Q374 148 374 101Q374 84 374 67Q374 50 374 33.5Q374 17 374 0Q344 0 318 0Q292 0 261 0Q257 0 253.5 3Q250 6 250 11ZM220 788Q238 788 257 788Q276 788 295.5 788Q315 788 334 788Q353 788 371 788Q376 788 379 785Q382 782 382 777L382 657Q364 657 345 657Q326 657 306.5 657Q287 657 268 657Q249 657 231 657Q226 657 223 660Q220 663 220 668Z" transform="translate(285.54 758.90) scale(0.02800 -0.02800)"/><path d="M293 107Q358 107 382.5 123.5Q407 140 407 168Q407 183 401 192.5Q395 202 379 209.5Q363 217 334 222L232 239Q184 247 152 264.5Q120 282 104.5 310Q89 338 89 374Q89 413 105 444.5Q121 476 151 498.5Q181 521 225 533Q269 545 324 545Q371 545 407 539.5Q443 534 463.5 526.5Q484 519 490 513Q491 512 491.5 511Q492 510 492.5 508.5Q493 507 493 504Q493 479 493 454Q493 429 493 404L475 404Q447 413 424 418.5Q401 424 377 427Q353 430 321 430Q282 430 258 423Q234 416 223 402Q212 388 212 369Q212 355 217.5 345.5Q223 336 237.5 329.5Q252 323 278 319L375 304Q428 296 462 277Q496 258 512 229Q528 200 528 160Q528 104 500.5 66.5Q473 29 420.5 10.5Q368 -8 292 -8Q250 -8 213.5 -4Q177 0 148.5 7Q120 14 102.5 21.5Q85 29 78 35Q77 37 77 38.5Q77 40 77 42Q77 69 77 95.5Q77 122 77 149L94 149Q117 138 139 130Q161 122 184.5 117Q208 112 235 109.5Q262 107 293 107Z" transform="translate(303.46 758.90) scale(0.02800 -0.02800)"/><path d="M302 548Q368 548 418 521Q468 494 496.5 444.5Q525 395 525 325L525 244Q525 241 524 238.5Q523 236 520.5 235Q518 234 515 234L277 234Q260 234 242.5 234Q225 234 208 234L170 234L164 313L405 313Q405 317 405 320.5Q405 324 405 329Q405 360 398.5 382.5Q392 405 377 419Q365 432 346.5 437.5Q328 443 302 443Q249 443 221.5 416Q194 389 194 328L194 211Q194 192 197 177Q200 162 206 150Q212 138 221 129Q238 112 266 104.5Q294 97 331 97Q367 97 395 100.5Q423 104 447.5 111.5Q472 119 495 129L513 129Q513 105 513 81Q513 57 513 34Q513 32 512 30Q511 28 509 26Q500 17 472.5 8.5Q445 0 407 -5.5Q369 -11 330 -11Q266 -11 216.5 4Q167 19 135 48Q103 77 86.5 118Q70 159 70 211L70 323Q70 376 87 417.5Q104 459 135 488Q166 517 208.5 532.5Q251 548 302 548Z" transform="translate(321.38 758.90) scale(0.02800 -0.02800)"/><path d="M528 0Q498 0 472 0Q446 0 415 0Q412 0 409.5 1.5Q407 3 405.5 5Q404 7 404 11Q404 71 404 130.5Q404 190 404 249.5Q404 309 404 368Q404 399 390 414Q376 429 347 429Q329 429 308.5 423Q288 417 267 405.5Q246 394 226 377.5Q206 361 188 337L188 449L222 449Q243 479 268 501Q293 523 323 535.5Q353 548 387 548Q420 548 446 537.5Q472 527 490.5 506.5Q509 486 518.5 457.5Q528 429 528 394Q528 346 528 297Q528 248 528 199Q528 150 528 101Q528 75 528 50Q528 25 528 0ZM204 0Q184 0 166 0Q148 0 129.5 0Q111 0 92 0Q89 0 87 0.5Q85 1 83.5 2.5Q82 4 81.5 6Q81 8 81 11Q81 65 81 118.5Q81 172 81 224.5Q81 277 81 330.5Q81 384 81 438Q81 467 81 492.5Q81 518 81 536Q103 536 121.5 536Q140 536 157.5 536Q175 536 193 536Q197 536 199 534.5Q201 533 202.5 531Q204 529 204 525Q204 438 204 350.5Q204 263 204 175.5Q204 88 204 0ZM390 743Q417 743 440.5 756Q464 769 481 793L499 793Q499 779 499 763.5Q499 748 499 734Q499 720 499 707Q499 700 497.5 694.5Q496 689 491 683Q474 663 447 651.5Q420 640 386 640Q353 640 331.5 648Q310 656 292 666.5Q274 677 255 685Q236 693 210 693Q183 693 159.5 680Q136 667 119 642L101 642Q101 658 101 673Q101 688 101 702.5Q101 717 101 728Q101 736 102.5 741Q104 746 109 753Q126 773 153 784Q180 795 214 795Q247 795 268.5 787.5Q290 780 308 769Q326 758 345 750.5Q364 743 390 743Z" transform="translate(339.30 758.90) scale(0.02800 -0.02800)"/><path d="M506 343Q506 318 506 293Q506 268 506 242.5Q506 217 506 191.5Q506 166 506 142Q506 133 508 126Q510 119 514 115Q518 111 523.5 109.5Q529 108 538 108Q540 108 542.5 108Q545 108 548 108L566 108Q566 83 566 59Q566 35 566 11Q566 6 563 3Q560 0 555 0Q550 0 533 0Q516 0 503 0Q476 0 454.5 8.5Q433 17 416.5 32.5Q400 48 391.5 71Q383 94 383 122Q383 154 383 187.5Q383 221 383 253Q383 270 383 285.5Q383 301 383 317Q383 333 383 349Q383 381 372.5 399Q362 417 338 424.5Q314 432 274 432Q246 432 219 429.5Q192 427 167 421.5Q142 416 116 407L98 407Q98 431 98 456Q98 481 98 504Q98 508 99 510Q100 512 101 513Q107 519 134 527Q161 535 198.5 540.5Q236 546 274 546Q335 546 379 535Q423 524 451 499.5Q479 475 492.5 436.5Q506 398 506 343ZM183 149Q183 125 196.5 112.5Q210 100 238 100Q267 100 294 107Q321 114 347.5 130Q374 146 401 172L401 86L372 86Q357 55 333.5 33.5Q310 12 278.5 1Q247 -10 209 -10Q163 -10 129.5 8Q96 26 77.5 58Q59 90 59 133L59 168Q59 200 70 226.5Q81 253 101.5 272Q122 291 151 301Q180 311 216 311Q251 311 284 311Q317 311 348 311Q379 311 408 311Q417 311 421 296.5Q425 282 426 264Q427 246 427 232Q394 232 363.5 232Q333 232 302 232Q271 232 238 232Q224 232 213.5 228.5Q203 225 196 218Q190 212 186.5 203Q183 194 183 183Z" transform="translate(357.22 758.90) scale(0.02800 -0.02800)"/><path d="M562 0Q546 0 528.5 0Q511 0 494.5 0Q478 0 462 0Q459 0 456.5 1.5Q454 3 452.5 5Q451 7 451 11Q451 49 451 86.5Q451 124 451 162Q451 200 451 238Q451 276 451 314Q451 352 451 390Q451 410 442.5 418Q434 426 420 426Q407 426 393.5 420Q380 414 366.5 402Q353 390 337 369L319 461L367 461Q380 489 395 508Q410 527 429 537.5Q448 548 473 548Q493 548 509.5 541Q526 534 537.5 522Q549 510 555.5 491.5Q562 473 562 450Q562 406 562 362Q562 318 562 274.5Q562 231 562 187Q562 143 562 100Q562 75 562 50Q562 25 562 0ZM349 0Q334 0 319 0Q304 0 289.5 0Q275 0 262 0Q259 0 256.5 1.5Q254 3 252.5 5Q251 7 251 11Q251 49 251 87Q251 125 251 162.5Q251 200 251 238.5Q251 277 251 314.5Q251 352 251 390Q251 405 247.5 412Q244 419 237.5 422.5Q231 426 219 426Q208 426 194 420Q180 414 166 401.5Q152 389 135 368L113 461L155 461Q167 490 182 509.5Q197 529 217.5 538.5Q238 548 263 548Q282 548 297.5 541.5Q313 535 325 522Q337 509 343 491Q349 473 349 450Q349 415 349 370Q349 325 349 270Q349 215 349 148Q349 81 349 0ZM149 0Q136 0 123.5 0Q111 0 98.5 0Q86 0 73.5 0Q61 0 49 0Q46 0 44 0.5Q42 1 40.5 2.5Q39 4 38.5 6Q38 8 38 11Q38 82 38 153Q38 224 38 295Q38 366 38 436Q38 464 38 489.5Q38 515 38 536Q48 536 57.5 536Q67 536 77 536Q87 536 97 536Q107 536 117 536Q117 536 122 519.5Q127 503 133 481.5Q139 460 144 443Q149 426 149 426Q149 361 149 290.5Q149 220 149 147Q149 74 149 0Z" transform="translate(375.14 758.90) scale(0.02800 -0.02800)"/><path d="M300 548Q353 548 397 531.5Q441 515 472.5 484.5Q504 454 521.5 413Q539 372 539 321L539 217Q539 150 508.5 98Q478 46 424 17.5Q370 -11 300 -11Q247 -11 203 5.5Q159 22 127.5 52Q96 82 78.5 123.5Q61 165 61 215L61 319Q61 387 91.5 438.5Q122 490 176.5 519Q231 548 300 548ZM302 436Q265 436 239 421Q213 406 199 378.5Q185 351 185 314L185 222Q185 193 193.5 170Q202 147 217 131Q231 117 252 109Q273 101 298 101Q335 101 361.5 116Q388 131 401.5 158.5Q415 186 415 222L415 314Q415 346 407.5 369Q400 392 384 407Q370 422 349.5 429Q329 436 302 436Z" transform="translate(393.06 758.90) scale(0.02800 -0.02800)"/><path d="M293 107Q358 107 382.5 123.5Q407 140 407 168Q407 183 401 192.5Q395 202 379 209.5Q363 217 334 222L232 239Q184 247 152 264.5Q120 282 104.5 310Q89 338 89 374Q89 413 105 444.5Q121 476 151 498.5Q181 521 225 533Q269 545 324 545Q371 545 407 539.5Q443 534 463.5 526.5Q484 519 490 513Q491 512 491.5 511Q492 510 492.5 508.5Q493 507 493 504Q493 479 493 454Q493 429 493 404L475 404Q447 413 424 418.5Q401 424 377 427Q353 430 321 430Q282 430 258 423Q234 416 223 402Q212 388 212 369Q212 355 217.5 345.5Q223 336 237.5 329.5Q252 323 278 319L375 304Q428 296 462 277Q496 258 512 229Q528 200 528 160Q528 104 500.5 66.5Q473 29 420.5 10.5Q368 -8 292 -8Q250 -8 213.5 -4Q177 0 148.5 7Q120 14 102.5 21.5Q85 29 78 35Q77 37 77 38.5Q77 40 77 42Q77 69 77 95.5Q77 122 77 149L94 149Q117 138 139 130Q161 122 184.5 117Q208 112 235 109.5Q262 107 293 107Z" transform="translate(410.98 758.90) scale(0.02800 -0.02800)"/></g></g><g transform="translate(88.02000000000001 1215.98) scale(2)" shape-rendering="crispEdges">
  <path fill="#0B0B0F" d="M3 0h4v1h-4zM23 0h4v1h-4zM2 1h1v1h-1zM7 1h2v1h-2zM21 1h2v1h-2zM27 1h1v1h-1zM2 2h1v1h-1zM9 2h1v1h-1zM20 2h1v1h-1zM27 2h1v1h-1zM2 3h1v1h-1zM10 3h1v1h-1zM19 3h1v1h-1zM27 3h1v1h-1zM2 4h1v1h-1zM11 4h8v1h-8zM27 4h1v1h-1zM2 5h1v1h-1zM27 5h1v1h-1zM2 6h1v1h-1zM27 6h1v1h-1zM2 7h1v1h-1zM27 7h1v1h-1zM2 8h1v1h-1zM27 8h1v1h-1zM3 9h1v1h-1zM26 9h1v1h-1zM3 10h1v1h-1zM26 10h1v1h-1zM2 11h1v1h-1zM27 11h1v1h-1zM2 12h1v1h-1zM8 12h2v1h-2zM20 12h2v1h-2zM27 12h1v1h-1zM2 13h1v1h-1zM8 13h2v1h-2zM20 13h2v1h-2zM27 13h1v1h-1zM0 14h5v1h-5zM8 14h2v1h-2zM20 14h2v1h-2zM25 14h5v1h-5zM2 15h1v1h-1zM27 15h1v1h-1zM2 16h3v1h-3zM25 16h3v1h-3zM1 17h3v1h-3zM11 17h1v1h-1zM14 17h2v1h-2zM18 17h1v1h-1zM26 17h3v1h-3zM4 18h1v1h-1zM12 18h2v1h-2zM16 18h2v1h-2zM25 18h1v1h-1zM5 19h1v1h-1zM24 19h1v1h-1zM6 20h1v1h-1zM23 20h1v1h-1zM7 21h2v1h-2zM21 21h2v1h-2zM9 22h12v1h-12z"/>
  <path fill="#F85239" d="M3 1h4v1h-4zM23 1h4v1h-4zM3 2h1v1h-1zM5 2h4v1h-4zM21 2h4v1h-4zM26 2h1v1h-1zM3 3h1v1h-1zM6 3h4v1h-4zM20 3h4v1h-4zM26 3h1v1h-1zM3 4h1v1h-1zM7 4h4v1h-4zM19 4h4v1h-4zM26 4h1v1h-1zM3 5h1v1h-1zM8 5h3v1h-3zM13 5h1v1h-1zM16 5h1v1h-1zM19 5h3v1h-3zM26 5h1v1h-1zM3 6h1v1h-1zM7 6h5v1h-5zM13 6h1v1h-1zM16 6h1v1h-1zM18 6h5v1h-5zM26 6h1v1h-1zM3 7h1v1h-1zM6 7h6v1h-6zM13 7h1v1h-1zM16 7h1v1h-1zM18 7h6v1h-6zM26 7h1v1h-1zM3 8h1v1h-1zM5 8h9v1h-9zM16 8h9v1h-9zM26 8h1v1h-1zM4 9h22v1h-22zM4 10h22v1h-22zM3 11h24v1h-24zM3 12h5v1h-5zM10 12h10v1h-10zM22 12h5v1h-5zM3 13h5v1h-5zM10 13h10v1h-10zM22 13h5v1h-5zM5 14h3v1h-3zM10 14h10v1h-10zM22 14h3v1h-3zM3 15h10v1h-10zM17 15h10v1h-10zM5 16h9v1h-9zM16 16h9v1h-9zM4 17h7v1h-7zM12 17h2v1h-2zM16 17h2v1h-2zM19 17h7v1h-7zM6 18h6v1h-6zM14 18h2v1h-2zM18 18h6v1h-6zM7 19h16v1h-16zM8 20h14v1h-14zM10 21h10v1h-10z"/>
  <path fill="#CF3433" d="M4 2h1v1h-1zM25 2h1v1h-1zM4 3h2v1h-2zM24 3h2v1h-2zM4 4h3v1h-3zM23 4h3v1h-3zM4 5h4v1h-4zM11 5h2v1h-2zM14 5h2v1h-2zM17 5h2v1h-2zM22 5h4v1h-4zM4 6h3v1h-3zM12 6h1v1h-1zM14 6h2v1h-2zM17 6h1v1h-1zM23 6h3v1h-3zM4 7h2v1h-2zM12 7h1v1h-1zM14 7h2v1h-2zM17 7h1v1h-1zM24 7h2v1h-2zM4 8h1v1h-1zM14 8h2v1h-2zM25 8h1v1h-1zM13 15h4v1h-4zM14 16h2v1h-2zM5 18h1v1h-1zM24 18h1v1h-1zM6 19h1v1h-1zM23 19h1v1h-1zM7 20h1v1h-1zM22 20h1v1h-1zM9 21h1v1h-1zM20 21h1v1h-1z"/>
</g><g fill="#0B0B0F" aria-label="GatoPago"><path d="M359 352L549 352Q574 352 588.5 341Q603 330 608.5 305.5Q614 281 614 236L614 227L504 227Q463 227 434.5 233Q406 239 388.5 251Q371 263 363.5 281.5Q356 300 356 326Q356 333 357 340.5Q358 348 359 352ZM377 720Q398 720 416.5 717.5Q435 715 451 709.5Q467 704 481 695Q495 686 508 674Q536 645 550 613Q564 581 564 534Q564 522 564 509Q564 496 564 483.5Q564 471 564 460Q554 456 538 453.5Q522 451 502 451Q462 451 440.5 464Q419 477 419 507Q419 525 420.5 540Q422 555 425.5 573Q429 591 437 613L437 578Q428 584 417 585.5Q406 587 395 587Q350 587 314 563.5Q278 540 251 499.5Q224 459 210 406.5Q196 354 196 293L196 276Q196 259 196.5 240Q197 221 198 207Q218 163 255.5 144Q293 125 358 125Q398 125 425.5 135.5Q453 146 468 165.5Q483 185 482 212Q482 220 481.5 225.5Q481 231 480.5 236.5Q480 242 478 247L567 247L556 222Q572 210 578 192.5Q584 175 584 146Q584 111 570.5 85.5Q557 60 536 41Q519 24 490.5 10.5Q462 -3 426 -11.5Q390 -20 349 -20Q277 -20 222 1Q167 22 129 61Q91 100 71.5 154Q52 208 52 274L52 292Q52 382 75.5 460Q99 538 142.5 596.5Q186 655 246 687.5Q306 720 377 720Z" transform="translate(166.02 1251.86) scale(0.03588 -0.03588)"/><path d="M513 353Q513 333 513 312Q513 291 513 270.5Q513 250 513 229.5Q513 209 513 187Q513 175 513 164Q513 153 513 141Q516 139 522 137.5Q528 136 533 136Q543 136 554 139.5Q565 143 575 152L581 152Q582 145 582.5 140.5Q583 136 583 128Q583 99 573 69.5Q563 40 547 24Q530 7 514.5 0.5Q499 -6 483 -6Q457 -6 434 8.5Q411 23 394.5 47Q378 71 368.5 98.5Q359 126 359 150Q359 170 359 191Q359 212 359 231Q359 252 361.5 276Q364 300 369 329Q374 358 381 392Q362 400 344 404.5Q326 409 306 410Q286 411 262 411Q232 411 206.5 409Q181 407 157 402.5Q133 398 107 391L102 391Q100 400 98.5 412.5Q97 425 97 437Q97 460 103.5 481Q110 502 124 516Q136 527 155.5 534.5Q175 542 209 545.5Q243 549 297 549Q348 549 388.5 531Q429 513 456.5 484.5Q484 456 498.5 422Q513 388 513 353ZM199 158Q199 132 209 123Q219 114 250 114Q270 114 290.5 120.5Q311 127 332.5 141Q354 155 372 178L379 96L364 96Q353 70 328 45.5Q303 21 270.5 5.5Q238 -10 201 -10Q151 -10 116.5 7.5Q82 25 64 60.5Q46 96 46 149L46 156Q46 183 60.5 210.5Q75 238 100 262Q125 286 156.5 300.5Q188 315 223 315Q266 315 303 310.5Q340 306 366.5 297.5Q393 289 406 277Q412 271 417 261.5Q422 252 425.5 239Q429 226 429 207Q401 214 373 217.5Q345 221 317.5 223.5Q290 226 267 226Q249 226 234.5 223.5Q220 221 206 216Q203 201 201 187.5Q199 174 199 159Z" transform="translate(187.73 1251.86) scale(0.03588 -0.03588)"/><path d="M26 539L380 539Q420 539 435 521Q450 503 450 455Q450 444 449 433.5Q448 423 446.5 413.5Q445 404 443 395L190 395Q141 395 108.5 402Q76 409 57 423.5Q38 438 30.5 460Q23 482 23 514Q23 518 23.5 523Q24 528 24.5 532Q25 536 26 539ZM444 161Q446 152 447 143Q448 134 448 125Q448 89 441 63.5Q434 38 421 22Q414 13 404 6.5Q394 0 380 -4Q366 -8 348 -10Q330 -12 307 -12Q270 -12 236.5 0.5Q203 13 178.5 36Q154 59 140 91Q126 123 126 162Q126 218 126 273.5Q126 329 126 384.5Q126 440 126 495.5Q126 551 126 606Q126 629 124 653Q122 677 114 700Q132 705 148.5 707.5Q165 710 181 710Q206 710 226 699.5Q246 689 258 667.5Q270 646 270 612Q270 557 270 502.5Q270 448 270 393.5Q270 339 270 284.5Q270 230 270 175Q270 166 271 157Q272 148 275 140Q286 135 296.5 133Q307 131 323 131Q343 131 363 134.5Q383 138 402 144.5Q421 151 439 161Z" transform="translate(206.56 1251.86) scale(0.03588 -0.03588)"/><path d="M304 551Q354 551 398.5 533Q443 515 477.5 478.5Q512 442 532.5 386.5Q553 331 553 255L553 241Q553 166 520.5 109Q488 52 430 20Q372 -12 295 -12Q244 -12 199.5 3.5Q155 19 121 50Q87 81 67 129Q47 177 47 243L47 256Q47 345 79.5 411Q112 477 170 514Q228 551 304 551ZM322 416Q276 416 246 398.5Q216 381 201 343Q186 305 186 245L186 239Q186 206 190 179Q194 152 201 129Q217 125 233.5 124Q250 123 273 123Q321 123 352 136Q383 149 398.5 178Q414 207 414 253L414 260Q414 304 408.5 340.5Q403 377 393 408Q379 413 362.5 414.5Q346 416 322 416Z" transform="translate(222.89 1251.86) scale(0.03588 -0.03588)"/><path d="M241 0Q229 -3 217.5 -4.5Q206 -6 189 -6Q131 -6 103.5 19Q76 44 76 100Q76 162 76 224Q76 286 76 348Q76 410 76 472Q76 534 76 597L204 597L193 567Q213 554 221.5 532.5Q230 511 230 480Q230 415 230 351.5Q230 288 230 224.5Q230 161 230 96Q230 73 232 48Q234 23 241 0ZM23 700Q87 711 157.5 715.5Q228 720 294 720Q338 720 377.5 709Q417 698 448 677.5Q479 657 502 629Q525 601 536.5 568Q548 535 548 499L548 492Q548 408 529.5 345.5Q511 283 479.5 241.5Q448 200 407.5 180Q367 160 321 160Q295 160 273.5 174.5Q252 189 236 215L206 214L206 308Q224 303 242.5 300Q261 297 283 297Q309 297 329.5 307.5Q350 318 365 341Q380 364 388.5 400.5Q397 437 397 488L397 503Q397 517 395.5 529.5Q394 542 392 554Q371 565 345 570.5Q319 576 282 576Q226 576 179.5 571Q133 566 102 561Q71 556 60 556Q38 556 27.5 577.5Q17 599 17 646Q17 662 18.5 674.5Q20 687 23 700Z" transform="translate(242.80 1251.86) scale(0.03588 -0.03588)"/><path d="M513 353Q513 333 513 312Q513 291 513 270.5Q513 250 513 229.5Q513 209 513 187Q513 175 513 164Q513 153 513 141Q516 139 522 137.5Q528 136 533 136Q543 136 554 139.5Q565 143 575 152L581 152Q582 145 582.5 140.5Q583 136 583 128Q583 99 573 69.5Q563 40 547 24Q530 7 514.5 0.5Q499 -6 483 -6Q457 -6 434 8.5Q411 23 394.5 47Q378 71 368.5 98.5Q359 126 359 150Q359 170 359 191Q359 212 359 231Q359 252 361.5 276Q364 300 369 329Q374 358 381 392Q362 400 344 404.5Q326 409 306 410Q286 411 262 411Q232 411 206.5 409Q181 407 157 402.5Q133 398 107 391L102 391Q100 400 98.5 412.5Q97 425 97 437Q97 460 103.5 481Q110 502 124 516Q136 527 155.5 534.5Q175 542 209 545.5Q243 549 297 549Q348 549 388.5 531Q429 513 456.5 484.5Q484 456 498.5 422Q513 388 513 353ZM199 158Q199 132 209 123Q219 114 250 114Q270 114 290.5 120.5Q311 127 332.5 141Q354 155 372 178L379 96L364 96Q353 70 328 45.5Q303 21 270.5 5.5Q238 -10 201 -10Q151 -10 116.5 7.5Q82 25 64 60.5Q46 96 46 149L46 156Q46 183 60.5 210.5Q75 238 100 262Q125 286 156.5 300.5Q188 315 223 315Q266 315 303 310.5Q340 306 366.5 297.5Q393 289 406 277Q412 271 417 261.5Q422 252 425.5 239Q429 226 429 207Q401 214 373 217.5Q345 221 317.5 223.5Q290 226 267 226Q249 226 234.5 223.5Q220 221 206 216Q203 201 201 187.5Q199 174 199 159Z" transform="translate(261.28 1251.86) scale(0.03588 -0.03588)"/><path d="M129 64Q129 87 137 105.5Q145 124 161 139Q177 154 201 163L201 179L276 172Q267 158 264.5 143.5Q262 129 262 112Q262 97 271 87.5Q280 78 297 76L432 66Q469 64 498 49Q527 34 544 7.5Q561 -19 561 -57L561 -73Q561 -116 540 -148.5Q519 -181 478.5 -204Q438 -227 379 -238.5Q320 -250 244 -250L233 -250Q164 -250 116.5 -234Q69 -218 44.5 -189Q20 -160 20 -119L20 -106Q20 -77 35 -53.5Q50 -30 78.5 -15Q107 0 145 2L145 25L215 -14Q197 -24 185.5 -35.5Q174 -47 169 -60.5Q164 -74 164 -93L164 -104Q164 -124 172.5 -136Q181 -148 200.5 -152.5Q220 -157 250 -157L265 -157Q307 -157 343 -154.5Q379 -152 408 -145Q415 -136 417 -126Q419 -116 419 -106L419 -95Q419 -81 410.5 -72.5Q402 -64 387 -63L271 -54Q228 -50 196 -34Q164 -18 146.5 7.5Q129 33 129 64ZM328 441L427 436L427 411Q462 393 481 369.5Q500 346 500 313L500 302Q500 257 471.5 225Q443 193 394 176.5Q345 160 283 160Q215 159 161.5 180.5Q108 202 77.5 243.5Q47 285 47 342L47 352Q47 412 78 457Q109 502 169.5 527Q230 552 318 552Q383 552 434 550Q485 548 543 543Q546 536 548 522.5Q550 509 550 495Q550 459 538.5 436.5Q527 414 501 414Q482 414 458 417.5Q434 421 398 423.5Q362 426 308 426Q243 426 211 404Q179 382 179 337L179 328Q179 317 181.5 304.5Q184 292 191 280Q210 271 230.5 267.5Q251 264 283 264Q327 264 351.5 282Q376 300 376 332L376 343Q376 360 372 377Q368 394 358 410Q348 426 328 441Z" transform="translate(280.84 1251.86) scale(0.03588 -0.03588)"/><path d="M304 551Q354 551 398.5 533Q443 515 477.5 478.5Q512 442 532.5 386.5Q553 331 553 255L553 241Q553 166 520.5 109Q488 52 430 20Q372 -12 295 -12Q244 -12 199.5 3.5Q155 19 121 50Q87 81 67 129Q47 177 47 243L47 256Q47 345 79.5 411Q112 477 170 514Q228 551 304 551ZM322 416Q276 416 246 398.5Q216 381 201 343Q186 305 186 245L186 239Q186 206 190 179Q194 152 201 129Q217 125 233.5 124Q250 123 273 123Q321 123 352 136Q383 149 398.5 178Q414 207 414 253L414 260Q414 304 408.5 340.5Q403 377 393 408Q379 413 362.5 414.5Q346 416 322 416Z" transform="translate(299.67 1251.86) scale(0.03588 -0.03588)"/></g><g fill="#5F5650" aria-label="gatopago.com"><path d="M103 79Q103 101 111 119.5Q119 138 136 152Q153 166 178 174L178 204L238 182Q233 166 230 150Q227 134 227 116Q227 102 233 96.5Q239 91 252 91L386 91Q444 91 481.5 71Q519 51 538 16Q557 -19 557 -64L557 -99Q557 -132 546 -160Q535 -188 513 -208Q491 -228 458.5 -239Q426 -250 383 -250L183 -250Q131 -250 96.5 -236Q62 -222 44.5 -196Q27 -170 27 -132L27 -114Q27 -84 39.5 -60.5Q52 -37 75 -21.5Q98 -6 129 -1L129 35L200 -10Q181 -14 170 -24Q159 -34 154 -47.5Q149 -61 149 -77L149 -106Q149 -124 155 -136Q161 -148 174.5 -154Q188 -160 210 -160L373 -160Q389 -160 401 -155.5Q413 -151 420 -144Q428 -136 431 -124Q434 -112 434 -98L434 -72Q434 -43 420.5 -29Q407 -15 373 -15L195 -15Q171 -15 150 -2.5Q129 10 116 31.5Q103 53 103 79ZM340 446L431 452L431 426Q466 414 482 391.5Q498 369 498 335L498 318Q498 274 473 242Q448 210 399 192.5Q350 175 277 175Q205 175 154.5 195.5Q104 216 78 254.5Q52 293 52 346L52 368Q52 423 78 462.5Q104 502 154.5 523.5Q205 545 277 545Q345 545 413.5 545Q482 545 550 545Q550 522 550 498.5Q550 475 550 452Q550 448 547 444.5Q544 441 539 441Q496 441 454 441Q412 441 369 441Q326 441 277 441Q227 441 199.5 421.5Q172 402 172 364L172 345Q172 330 176.5 318Q181 306 191 297Q204 284 225.5 277Q247 270 277 270Q328 270 353 290Q378 310 378 348L378 370Q378 386 374.5 398.5Q371 411 363 422.5Q355 434 340 446Z" transform="translate(823.90 1248.18) scale(0.02200 -0.02200)"/><path d="M506 343Q506 318 506 293Q506 268 506 242.5Q506 217 506 191.5Q506 166 506 142Q506 133 508 126Q510 119 514 115Q518 111 523.5 109.5Q529 108 538 108Q540 108 542.5 108Q545 108 548 108L566 108Q566 83 566 59Q566 35 566 11Q566 6 563 3Q560 0 555 0Q550 0 533 0Q516 0 503 0Q476 0 454.5 8.5Q433 17 416.5 32.5Q400 48 391.5 71Q383 94 383 122Q383 154 383 187.5Q383 221 383 253Q383 270 383 285.5Q383 301 383 317Q383 333 383 349Q383 381 372.5 399Q362 417 338 424.5Q314 432 274 432Q246 432 219 429.5Q192 427 167 421.5Q142 416 116 407L98 407Q98 431 98 456Q98 481 98 504Q98 508 99 510Q100 512 101 513Q107 519 134 527Q161 535 198.5 540.5Q236 546 274 546Q335 546 379 535Q423 524 451 499.5Q479 475 492.5 436.5Q506 398 506 343ZM183 149Q183 125 196.5 112.5Q210 100 238 100Q267 100 294 107Q321 114 347.5 130Q374 146 401 172L401 86L372 86Q357 55 333.5 33.5Q310 12 278.5 1Q247 -10 209 -10Q163 -10 129.5 8Q96 26 77.5 58Q59 90 59 133L59 168Q59 200 70 226.5Q81 253 101.5 272Q122 291 151 301Q180 311 216 311Q251 311 284 311Q317 311 348 311Q379 311 408 311Q417 311 421 296.5Q425 282 426 264Q427 246 427 232Q394 232 363.5 232Q333 232 302 232Q271 232 238 232Q224 232 213.5 228.5Q203 225 196 218Q190 212 186.5 203Q183 194 183 183Z" transform="translate(837.98 1248.18) scale(0.02200 -0.02200)"/><path d="M66 536L489 536Q494 536 497 533Q500 530 500 525Q500 508 500 492.5Q500 477 500 461.5Q500 446 500 429L77 429Q74 429 72 429.5Q70 430 68.5 431.5Q67 433 66.5 435Q66 437 66 440Q66 457 66 472.5Q66 488 66 503.5Q66 519 66 536ZM500 110Q500 85 500 60.5Q500 36 500 11Q500 6 497.5 3Q495 0 489 0Q486 0 476.5 0Q467 0 454 0Q441 0 427.5 0Q414 0 403 0Q354 0 313.5 11.5Q273 23 244.5 48Q216 73 201 113Q186 153 186 211Q186 260 186 309Q186 358 186 406Q186 454 186 502.5Q186 551 186 600Q186 625 186 650Q186 675 186 700Q215 700 243 700Q271 700 299 700Q303 700 305 698.5Q307 697 308.5 695Q310 693 310 689Q310 630 310 570.5Q310 511 310 452Q310 393 310 333.5Q310 274 310 214Q310 184 315.5 163.5Q321 143 334 131Q345 120 363.5 115Q382 110 408 110Q421 110 433 110Q445 110 457.5 110Q470 110 482 110Z" transform="translate(852.06 1248.18) scale(0.02200 -0.02200)"/><path d="M300 548Q353 548 397 531.5Q441 515 472.5 484.5Q504 454 521.5 413Q539 372 539 321L539 217Q539 150 508.5 98Q478 46 424 17.5Q370 -11 300 -11Q247 -11 203 5.5Q159 22 127.5 52Q96 82 78.5 123.5Q61 165 61 215L61 319Q61 387 91.5 438.5Q122 490 176.5 519Q231 548 300 548ZM302 436Q265 436 239 421Q213 406 199 378.5Q185 351 185 314L185 222Q185 193 193.5 170Q202 147 217 131Q231 117 252 109Q273 101 298 101Q335 101 361.5 116Q388 131 401.5 158.5Q415 186 415 222L415 314Q415 346 407.5 369Q400 392 384 407Q370 422 349.5 429Q329 436 302 436Z" transform="translate(866.14 1248.18) scale(0.02200 -0.02200)"/><path d="M81 536Q100 536 118.5 536Q137 536 155.5 536Q174 536 193 536Q197 536 199 534.5Q201 533 202.5 531Q204 529 204 525Q204 435 204 344Q204 253 204 162.5Q204 72 204 -19Q204 -110 204 -200Q185 -200 166.5 -200Q148 -200 129.5 -200Q111 -200 92 -200Q89 -200 86.5 -198.5Q84 -197 82.5 -194.5Q81 -192 81 -189Q81 -111 81 -33Q81 45 81 123.5Q81 202 81 280Q81 358 81 436Q81 463 81 488Q81 513 81 536ZM372 548Q423 548 460.5 525Q498 502 519 458Q540 414 540 353L540 187Q540 141 528 104.5Q516 68 494 42.5Q472 17 440.5 3.5Q409 -10 371 -10Q341 -10 313 0Q285 10 262 28.5Q239 47 221 71L191 71L191 176Q220 142 257 125.5Q294 109 331 109Q359 109 377.5 120.5Q396 132 406 154Q416 176 416 207L416 333Q416 359 410 377.5Q404 396 393 407Q382 418 366.5 423.5Q351 429 332 429Q309 429 284 418Q259 407 236 386Q213 365 192 334L192 454L221 454Q237 484 260.5 504.5Q284 525 312 536.5Q340 548 372 548Z" transform="translate(880.22 1248.18) scale(0.02200 -0.02200)"/><path d="M506 343Q506 318 506 293Q506 268 506 242.5Q506 217 506 191.5Q506 166 506 142Q506 133 508 126Q510 119 514 115Q518 111 523.5 109.5Q529 108 538 108Q540 108 542.5 108Q545 108 548 108L566 108Q566 83 566 59Q566 35 566 11Q566 6 563 3Q560 0 555 0Q550 0 533 0Q516 0 503 0Q476 0 454.5 8.5Q433 17 416.5 32.5Q400 48 391.5 71Q383 94 383 122Q383 154 383 187.5Q383 221 383 253Q383 270 383 285.5Q383 301 383 317Q383 333 383 349Q383 381 372.5 399Q362 417 338 424.5Q314 432 274 432Q246 432 219 429.5Q192 427 167 421.5Q142 416 116 407L98 407Q98 431 98 456Q98 481 98 504Q98 508 99 510Q100 512 101 513Q107 519 134 527Q161 535 198.5 540.5Q236 546 274 546Q335 546 379 535Q423 524 451 499.5Q479 475 492.5 436.5Q506 398 506 343ZM183 149Q183 125 196.5 112.5Q210 100 238 100Q267 100 294 107Q321 114 347.5 130Q374 146 401 172L401 86L372 86Q357 55 333.5 33.5Q310 12 278.5 1Q247 -10 209 -10Q163 -10 129.5 8Q96 26 77.5 58Q59 90 59 133L59 168Q59 200 70 226.5Q81 253 101.5 272Q122 291 151 301Q180 311 216 311Q251 311 284 311Q317 311 348 311Q379 311 408 311Q417 311 421 296.5Q425 282 426 264Q427 246 427 232Q394 232 363.5 232Q333 232 302 232Q271 232 238 232Q224 232 213.5 228.5Q203 225 196 218Q190 212 186.5 203Q183 194 183 183Z" transform="translate(894.30 1248.18) scale(0.02200 -0.02200)"/><path d="M103 79Q103 101 111 119.5Q119 138 136 152Q153 166 178 174L178 204L238 182Q233 166 230 150Q227 134 227 116Q227 102 233 96.5Q239 91 252 91L386 91Q444 91 481.5 71Q519 51 538 16Q557 -19 557 -64L557 -99Q557 -132 546 -160Q535 -188 513 -208Q491 -228 458.5 -239Q426 -250 383 -250L183 -250Q131 -250 96.5 -236Q62 -222 44.5 -196Q27 -170 27 -132L27 -114Q27 -84 39.5 -60.5Q52 -37 75 -21.5Q98 -6 129 -1L129 35L200 -10Q181 -14 170 -24Q159 -34 154 -47.5Q149 -61 149 -77L149 -106Q149 -124 155 -136Q161 -148 174.5 -154Q188 -160 210 -160L373 -160Q389 -160 401 -155.5Q413 -151 420 -144Q428 -136 431 -124Q434 -112 434 -98L434 -72Q434 -43 420.5 -29Q407 -15 373 -15L195 -15Q171 -15 150 -2.5Q129 10 116 31.5Q103 53 103 79ZM340 446L431 452L431 426Q466 414 482 391.5Q498 369 498 335L498 318Q498 274 473 242Q448 210 399 192.5Q350 175 277 175Q205 175 154.5 195.5Q104 216 78 254.5Q52 293 52 346L52 368Q52 423 78 462.5Q104 502 154.5 523.5Q205 545 277 545Q345 545 413.5 545Q482 545 550 545Q550 522 550 498.5Q550 475 550 452Q550 448 547 444.5Q544 441 539 441Q496 441 454 441Q412 441 369 441Q326 441 277 441Q227 441 199.5 421.5Q172 402 172 364L172 345Q172 330 176.5 318Q181 306 191 297Q204 284 225.5 277Q247 270 277 270Q328 270 353 290Q378 310 378 348L378 370Q378 386 374.5 398.5Q371 411 363 422.5Q355 434 340 446Z" transform="translate(908.38 1248.18) scale(0.02200 -0.02200)"/><path d="M300 548Q353 548 397 531.5Q441 515 472.5 484.5Q504 454 521.5 413Q539 372 539 321L539 217Q539 150 508.5 98Q478 46 424 17.5Q370 -11 300 -11Q247 -11 203 5.5Q159 22 127.5 52Q96 82 78.5 123.5Q61 165 61 215L61 319Q61 387 91.5 438.5Q122 490 176.5 519Q231 548 300 548ZM302 436Q265 436 239 421Q213 406 199 378.5Q185 351 185 314L185 222Q185 193 193.5 170Q202 147 217 131Q231 117 252 109Q273 101 298 101Q335 101 361.5 116Q388 131 401.5 158.5Q415 186 415 222L415 314Q415 346 407.5 369Q400 392 384 407Q370 422 349.5 429Q329 436 302 436Z" transform="translate(922.46 1248.18) scale(0.02200 -0.02200)"/><path d="M390 -9Q364 -9 335 -9Q306 -9 277 -9Q248 -9 221 -9Q218 -9 215.5 -7.5Q213 -6 211.5 -3.5Q210 -1 210 2L210 171Q237 171 266 171Q295 171 324 171Q353 171 379 171Q383 171 385 169.5Q387 168 388.5 166Q390 164 390 160Z" transform="translate(936.54 1248.18) scale(0.02200 -0.02200)"/><path d="M334 548Q379 548 416.5 540.5Q454 533 478.5 523.5Q503 514 511 506Q513 505 513.5 502Q514 499 514 497Q514 471 514 446Q514 421 514 396L496 396Q459 413 422 422.5Q385 432 341 432Q295 432 264 419.5Q233 407 217.5 378Q202 349 202 304L202 230Q202 200 209.5 177Q217 154 233 137Q250 122 276 113.5Q302 105 340 105Q370 105 396 109Q422 113 446.5 121Q471 129 496 141L514 141Q514 115 514 89.5Q514 64 514 39Q514 37 513.5 35Q513 33 511 31Q502 22 477 12Q452 2 414 -4.5Q376 -11 330 -11Q269 -11 222.5 6Q176 23 142.5 54Q109 85 91.5 127.5Q74 170 74 222L74 312Q74 384 105.5 436.5Q137 489 195 518.5Q253 548 334 548Z" transform="translate(950.62 1248.18) scale(0.02200 -0.02200)"/><path d="M300 548Q353 548 397 531.5Q441 515 472.5 484.5Q504 454 521.5 413Q539 372 539 321L539 217Q539 150 508.5 98Q478 46 424 17.5Q370 -11 300 -11Q247 -11 203 5.5Q159 22 127.5 52Q96 82 78.5 123.5Q61 165 61 215L61 319Q61 387 91.5 438.5Q122 490 176.5 519Q231 548 300 548ZM302 436Q265 436 239 421Q213 406 199 378.5Q185 351 185 314L185 222Q185 193 193.5 170Q202 147 217 131Q231 117 252 109Q273 101 298 101Q335 101 361.5 116Q388 131 401.5 158.5Q415 186 415 222L415 314Q415 346 407.5 369Q400 392 384 407Q370 422 349.5 429Q329 436 302 436Z" transform="translate(964.70 1248.18) scale(0.02200 -0.02200)"/><path d="M562 0Q546 0 528.5 0Q511 0 494.5 0Q478 0 462 0Q459 0 456.5 1.5Q454 3 452.5 5Q451 7 451 11Q451 49 451 86.5Q451 124 451 162Q451 200 451 238Q451 276 451 314Q451 352 451 390Q451 410 442.5 418Q434 426 420 426Q407 426 393.5 420Q380 414 366.5 402Q353 390 337 369L319 461L367 461Q380 489 395 508Q410 527 429 537.5Q448 548 473 548Q493 548 509.5 541Q526 534 537.5 522Q549 510 555.5 491.5Q562 473 562 450Q562 406 562 362Q562 318 562 274.5Q562 231 562 187Q562 143 562 100Q562 75 562 50Q562 25 562 0ZM349 0Q334 0 319 0Q304 0 289.5 0Q275 0 262 0Q259 0 256.5 1.5Q254 3 252.5 5Q251 7 251 11Q251 49 251 87Q251 125 251 162.5Q251 200 251 238.5Q251 277 251 314.5Q251 352 251 390Q251 405 247.5 412Q244 419 237.5 422.5Q231 426 219 426Q208 426 194 420Q180 414 166 401.5Q152 389 135 368L113 461L155 461Q167 490 182 509.5Q197 529 217.5 538.5Q238 548 263 548Q282 548 297.5 541.5Q313 535 325 522Q337 509 343 491Q349 473 349 450Q349 415 349 370Q349 325 349 270Q349 215 349 148Q349 81 349 0ZM149 0Q136 0 123.5 0Q111 0 98.5 0Q86 0 73.5 0Q61 0 49 0Q46 0 44 0.5Q42 1 40.5 2.5Q39 4 38.5 6Q38 8 38 11Q38 82 38 153Q38 224 38 295Q38 366 38 436Q38 464 38 489.5Q38 515 38 536Q48 536 57.5 536Q67 536 77 536Q87 536 97 536Q107 536 117 536Q117 536 122 519.5Q127 503 133 481.5Q139 460 144 443Q149 426 149 426Q149 361 149 290.5Q149 220 149 147Q149 74 149 0Z" transform="translate(978.78 1248.18) scale(0.02200 -0.02200)"/></g></svg>
